<svg xmlns="http://www.w3.org/2000/svg" xmlns:xlink="http://www.w3.org/1999/xlink" width="1366" zoomAndPan="magnify" viewBox="0 0 1024.5 576" height="768" preserveAspectRatio="xMidYMid meet" version="1.0"><defs><g/><clipPath id="b703711f06"><path d="M 0 0.140625 L 1024 0.140625 L 1024 575.859375 L 0 575.859375 Z M 0 0.140625 " clip-rule="nonzero"/></clipPath><clipPath id="6c713bb91a"><path d="M 0 445 L 185 445 L 185 575.859375 L 0 575.859375 Z M 0 445 " clip-rule="nonzero"/></clipPath><clipPath id="00737cf2d7"><path d="M -40.507812 511.460938 L 119.320312 445.992188 L 184.785156 605.820312 L 24.960938 671.289062 Z M -40.507812 511.460938 " clip-rule="nonzero"/></clipPath><clipPath id="8e24cdf581"><path d="M 0 0.84375 L 184.949219 0.84375 L 184.949219 130.859375 L 0 130.859375 Z M 0 0.84375 " clip-rule="nonzero"/></clipPath><clipPath id="f194df6570"><path d="M -40.507812 66.460938 L 119.320312 0.992188 L 184.785156 160.820312 L 24.960938 226.289062 Z M -40.507812 66.460938 " clip-rule="nonzero"/></clipPath><clipPath id="80692413a5"><rect x="0" width="185" y="0" height="131"/></clipPath><clipPath id="51661eb1fd"><path d="M 0 378 L 79 378 L 79 459 L 0 459 Z M 0 378 " clip-rule="nonzero"/></clipPath><clipPath id="0e69387baf"><path d="M 0 401.046875 L 54.730469 378.628906 L 78.324219 436.226562 L 23.59375 458.648438 Z M 0 401.046875 " clip-rule="nonzero"/></clipPath><clipPath id="be2a90f016"><path d="M 0 0.4375 L 78.441406 0.4375 L 78.441406 80.796875 L 0 80.796875 Z M 0 0.4375 " clip-rule="nonzero"/></clipPath><clipPath id="538448a9d0"><path d="M 0 23.046875 L 54.730469 0.628906 L 78.324219 58.226562 L 23.59375 80.648438 Z M 0 23.046875 " clip-rule="nonzero"/></clipPath><clipPath id="b4afe6070f"><rect x="0" width="79" y="0" height="81"/></clipPath><clipPath id="d88f6053ba"><path d="M 241 535 L 320 535 L 320 575.859375 L 241 575.859375 Z M 241 535 " clip-rule="nonzero"/></clipPath><clipPath id="1f4b7c6e9b"><path d="M 241.457031 558.265625 L 296.1875 535.847656 L 319.78125 593.449219 L 265.050781 615.867188 Z M 241.457031 558.265625 " clip-rule="nonzero"/></clipPath><clipPath id="189e78663b"><path d="M 0.320312 0.800781 L 79 0.800781 L 79 40.859375 L 0.320312 40.859375 Z M 0.320312 0.800781 " clip-rule="nonzero"/></clipPath><clipPath id="2f0c23969d"><path d="M 0.457031 23.265625 L 55.1875 0.847656 L 78.78125 58.449219 L 24.050781 80.867188 Z M 0.457031 23.265625 " clip-rule="nonzero"/></clipPath><clipPath id="5b1cee10dd"><rect x="0" width="79" y="0" height="41"/></clipPath><clipPath id="e665026119"><path d="M 267 476 L 309 476 L 309 519 L 267 519 Z M 267 476 " clip-rule="nonzero"/></clipPath><clipPath id="0e2aa9f43a"><path d="M 267.152344 487.882812 L 295.84375 476.132812 L 308.296875 506.535156 L 279.605469 518.285156 Z M 267.152344 487.882812 " clip-rule="nonzero"/></clipPath><clipPath id="3b807d1eae"><path d="M 0 0.0664062 L 41.488281 0.0664062 L 41.488281 42.289062 L 0 42.289062 Z M 0 0.0664062 " clip-rule="nonzero"/></clipPath><clipPath id="13609ddeb8"><path d="M 0.152344 11.882812 L 28.84375 0.132812 L 41.296875 30.535156 L 12.605469 42.285156 Z M 0.152344 11.882812 " clip-rule="nonzero"/></clipPath><clipPath id="ca18532d6c"><rect x="0" width="42" y="0" height="43"/></clipPath><clipPath id="3435c4896c"><path d="M 164 512 L 268 512 L 268 575.859375 L 164 575.859375 Z M 164 512 " clip-rule="nonzero"/></clipPath><clipPath id="3cfa0b38fd"><path d="M 170.175781 512.429688 L 267.152344 518.484375 L 261.757812 604.855469 L 164.785156 598.800781 Z M 170.175781 512.429688 " clip-rule="nonzero"/></clipPath><clipPath id="303812ad15"><path d="M 0.558594 0.289062 L 103.230469 0.289062 L 103.230469 63.859375 L 0.558594 63.859375 Z M 0.558594 0.289062 " clip-rule="nonzero"/></clipPath><clipPath id="b28f935ef3"><path d="M 6.175781 0.429688 L 103.152344 6.484375 L 97.757812 92.855469 L 0.785156 86.800781 Z M 6.175781 0.429688 " clip-rule="nonzero"/></clipPath><clipPath id="27c11a99f5"><rect x="0" width="104" y="0" height="64"/></clipPath><clipPath id="d0aade7d1f"><path d="M 129 390 L 216 390 L 216 477 L 129 477 Z M 129 390 " clip-rule="nonzero"/></clipPath><clipPath id="d435619fce"><path d="M 129.820312 432.117188 L 171.644531 390.296875 L 215.65625 434.308594 L 173.835938 476.132812 Z M 129.820312 432.117188 " clip-rule="nonzero"/></clipPath><clipPath id="e6d115b189"><path d="M 0.777344 0.191406 L 86.894531 0.191406 L 86.894531 86.308594 L 0.777344 86.308594 Z M 0.777344 0.191406 " clip-rule="nonzero"/></clipPath><clipPath id="19d3b352a9"><path d="M 0.820312 42.117188 L 42.644531 0.296875 L 86.65625 44.308594 L 44.835938 86.132812 Z M 0.820312 42.117188 " clip-rule="nonzero"/></clipPath><clipPath id="6b4c306dae"><rect x="0" width="87" y="0" height="87"/></clipPath><clipPath id="c6bd6b3369"><path d="M 239 416 L 281 416 L 281 459 L 239 459 Z M 239 416 " clip-rule="nonzero"/></clipPath><clipPath id="4b53e1f6bb"><path d="M 239.476562 428.246094 L 268.167969 416.492188 L 280.621094 446.894531 L 251.929688 458.644531 Z M 239.476562 428.246094 " clip-rule="nonzero"/></clipPath><clipPath id="b7a9925084"><path d="M 0.402344 0.335938 L 41.664062 0.335938 L 41.664062 42.796875 L 0.402344 42.796875 Z M 0.402344 0.335938 " clip-rule="nonzero"/></clipPath><clipPath id="907b8b2a38"><path d="M 0.476562 12.246094 L 29.167969 0.492188 L 41.621094 30.894531 L 12.929688 42.644531 Z M 0.476562 12.246094 " clip-rule="nonzero"/></clipPath><clipPath id="711b2f1800"><rect x="0" width="42" y="0" height="43"/></clipPath><clipPath id="e96d9df6a7"><path d="M 335 523 L 438 523 L 438 575.859375 L 335 575.859375 Z M 335 523 " clip-rule="nonzero"/></clipPath><clipPath id="5e53a2beab"><path d="M 340.699219 523.441406 L 437.675781 529.496094 L 432.28125 615.871094 L 335.308594 609.8125 Z M 340.699219 523.441406 " clip-rule="nonzero"/></clipPath><clipPath id="657bc77647"><path d="M 0.117188 0.324219 L 102.785156 0.324219 L 102.785156 52.859375 L 0.117188 52.859375 Z M 0.117188 0.324219 " clip-rule="nonzero"/></clipPath><clipPath id="c9fced5d4a"><path d="M 5.699219 0.441406 L 102.675781 6.496094 L 97.28125 92.871094 L 0.308594 86.8125 Z M 5.699219 0.441406 " clip-rule="nonzero"/></clipPath><clipPath id="3bb4759f41"><rect x="0" width="103" y="0" height="53"/></clipPath><clipPath id="e73dc68fa8"><path d="M 707.355469 437.570312 L 880.472656 437.570312 L 880.472656 550.917969 L 707.355469 550.917969 Z M 707.355469 437.570312 " clip-rule="nonzero"/></clipPath><clipPath id="df43c323d7"><path d="M 805.417969 437.570312 C 807.3125 437.570312 809.21875 437.570312 811.109375 437.570312 C 826.183594 439.464844 835.605469 445.765625 839.894531 456.078125 C 865.027344 454.703125 883.296875 474.199219 872.164062 493.335938 C 875.867188 497.355469 878.953125 501.855469 880.070312 507.890625 C 880.070312 509.621094 880.070312 511.347656 880.070312 513.074219 C 876.746094 528.441406 862.4375 538.824219 838.953125 536.027344 C 832.910156 543.917969 822.15625 551.816406 805.421875 550.832031 C 796.773438 550.316406 790.757812 547.316406 785.488281 543.671875 C 779.941406 546.699219 773.929688 549.078125 765.246094 549.105469 C 745.160156 549.148438 731.722656 537.476562 731.394531 521.46875 C 718.484375 517.722656 709.734375 510.730469 707.355469 498.769531 C 707.355469 497.039062 707.355469 495.308594 707.355469 493.585938 C 709.984375 481.730469 718.253906 474.285156 732.023438 471.128906 C 731.199219 451.132812 758.742188 438.636719 781.375 447.449219 C 786.761719 443.089844 794.382812 438.339844 805.417969 437.570312 Z M 805.417969 437.570312 " clip-rule="nonzero"/></clipPath><clipPath id="3c2aa54ae1"><path d="M 0.355469 0.570312 L 173.472656 0.570312 L 173.472656 113.917969 L 0.355469 113.917969 Z M 0.355469 0.570312 " clip-rule="nonzero"/></clipPath><clipPath id="ba0997281a"><path d="M 98.417969 0.570312 C 100.3125 0.570312 102.21875 0.570312 104.109375 0.570312 C 119.183594 2.464844 128.605469 8.765625 132.894531 19.078125 C 158.027344 17.703125 176.296875 37.199219 165.164062 56.335938 C 168.867188 60.355469 171.953125 64.855469 173.070312 70.890625 C 173.070312 72.621094 173.070312 74.347656 173.070312 76.074219 C 169.746094 91.441406 155.4375 101.824219 131.953125 99.027344 C 125.910156 106.917969 115.15625 114.816406 98.421875 113.832031 C 89.773438 113.316406 83.757812 110.316406 78.488281 106.671875 C 72.941406 109.699219 66.929688 112.078125 58.246094 112.105469 C 38.160156 112.148438 24.722656 100.476562 24.394531 84.46875 C 11.484375 80.722656 2.734375 73.730469 0.355469 61.769531 C 0.355469 60.039062 0.355469 58.308594 0.355469 56.585938 C 2.984375 44.730469 11.253906 37.285156 25.023438 34.128906 C 24.199219 14.132812 51.742188 1.636719 74.375 10.449219 C 79.761719 6.089844 87.382812 1.339844 98.417969 0.570312 Z M 98.417969 0.570312 " clip-rule="nonzero"/></clipPath><clipPath id="3f0664875d"><rect x="0" width="174" y="0" height="114"/></clipPath><clipPath id="9932c76598"><path d="M 537.695312 490.964844 L 710.46875 490.964844 L 710.46875 575.859375 L 537.695312 575.859375 Z M 537.695312 490.964844 " clip-rule="nonzero"/></clipPath><clipPath id="0907ead206"><path d="M 622.390625 490.964844 C 638.21875 490.964844 651.574219 499.851562 655.835938 512.023438 C 661.003906 510.238281 666.898438 510.152344 672.550781 512.183594 C 682.195312 515.652344 688.324219 524.265625 688.644531 533.414062 L 688.820312 533.414062 C 700.742188 533.414062 710.410156 542.914062 710.410156 554.636719 C 710.410156 566.359375 700.742188 575.859375 688.820312 575.859375 L 559.285156 575.859375 C 547.363281 575.859375 537.695312 566.359375 537.695312 554.636719 C 537.695312 541.496094 548.90625 533.414062 561.367188 533.414062 C 557.8125 521.546875 567.089844 509.746094 579.257812 508.296875 C 583.023438 507.847656 586.667969 508.363281 589.921875 509.625 C 595.011719 498.703125 607.625 490.964844 622.390625 490.964844 Z M 622.390625 490.964844 " clip-rule="nonzero"/></clipPath><clipPath id="2fff2cf2c8"><path d="M 0.695312 0.964844 L 173.46875 0.964844 L 173.46875 85.859375 L 0.695312 85.859375 Z M 0.695312 0.964844 " clip-rule="nonzero"/></clipPath><clipPath id="0a4a76cbf1"><path d="M 85.390625 0.964844 C 101.21875 0.964844 114.574219 9.851562 118.835938 22.023438 C 124.003906 20.238281 129.898438 20.152344 135.550781 22.183594 C 145.195312 25.652344 151.324219 34.265625 151.644531 43.414062 L 151.820312 43.414062 C 163.742188 43.414062 173.410156 52.914062 173.410156 64.636719 C 173.410156 76.359375 163.742188 85.859375 151.820312 85.859375 L 22.285156 85.859375 C 10.363281 85.859375 0.695312 76.359375 0.695312 64.636719 C 0.695312 51.496094 11.90625 43.414062 24.367188 43.414062 C 20.8125 31.546875 30.089844 19.746094 42.257812 18.296875 C 46.023438 17.847656 49.667969 18.363281 52.921875 19.625 C 58.011719 8.703125 70.625 0.964844 85.390625 0.964844 Z M 85.390625 0.964844 " clip-rule="nonzero"/></clipPath><clipPath id="5e2e3feb16"><rect x="0" width="174" y="0" height="86"/></clipPath><clipPath id="500ffe3584"><path d="M 880.070312 490.964844 L 1024 490.964844 L 1024 575.859375 L 880.070312 575.859375 Z M 880.070312 490.964844 " clip-rule="nonzero"/></clipPath><clipPath id="3134b16d0b"><path d="M 964.765625 490.964844 C 980.59375 490.964844 993.949219 499.851562 998.210938 512.023438 C 1003.378906 510.238281 1009.273438 510.152344 1014.925781 512.183594 C 1024.570312 515.652344 1030.699219 524.265625 1031.019531 533.414062 L 1031.195312 533.414062 C 1043.117188 533.414062 1052.785156 542.914062 1052.785156 554.636719 C 1052.785156 566.359375 1043.117188 575.859375 1031.195312 575.859375 L 901.660156 575.859375 C 889.738281 575.859375 880.070312 566.359375 880.070312 554.636719 C 880.070312 541.496094 891.28125 533.414062 903.742188 533.414062 C 900.1875 521.546875 909.464844 509.746094 921.632812 508.296875 C 925.398438 507.847656 929.042969 508.363281 932.296875 509.625 C 937.386719 498.703125 950 490.964844 964.765625 490.964844 Z M 964.765625 490.964844 " clip-rule="nonzero"/></clipPath><clipPath id="b54b731678"><path d="M 0.0703125 0.964844 L 144 0.964844 L 144 85.859375 L 0.0703125 85.859375 Z M 0.0703125 0.964844 " clip-rule="nonzero"/></clipPath><clipPath id="5810a51d04"><path d="M 84.765625 0.964844 C 100.59375 0.964844 113.949219 9.851562 118.210938 22.023438 C 123.378906 20.238281 129.273438 20.152344 134.925781 22.183594 C 144.570312 25.652344 150.699219 34.265625 151.019531 43.414062 L 151.195312 43.414062 C 163.117188 43.414062 172.785156 52.914062 172.785156 64.636719 C 172.785156 76.359375 163.117188 85.859375 151.195312 85.859375 L 21.660156 85.859375 C 9.738281 85.859375 0.0703125 76.359375 0.0703125 64.636719 C 0.0703125 51.496094 11.28125 43.414062 23.742188 43.414062 C 20.1875 31.546875 29.464844 19.746094 41.632812 18.296875 C 45.398438 17.847656 49.042969 18.363281 52.296875 19.625 C 57.386719 8.703125 70 0.964844 84.765625 0.964844 Z M 84.765625 0.964844 " clip-rule="nonzero"/></clipPath><clipPath id="8d1ed7c990"><rect x="0" width="144" y="0" height="86"/></clipPath></defs><g clip-path="url(#b703711f06)"><path fill="#ffffff" d="M 0 0.140625 L 1024 0.140625 L 1024 575.859375 L 0 575.859375 Z M 0 0.140625 " fill-opacity="1" fill-rule="nonzero"/><path fill="#f8f9fa" d="M 0 0.140625 L 1024 0.140625 L 1024 575.859375 L 0 575.859375 Z M 0 0.140625 " fill-opacity="1" fill-rule="nonzero"/></g><g clip-path="url(#6c713bb91a)"><g clip-path="url(#00737cf2d7)"><g transform="matrix(1, 0, 0, 1, 0, 445)"><g clip-path="url(#80692413a5)"><g clip-path="url(#8e24cdf581)"><g clip-path="url(#f194df6570)"><path fill="#001f3f" d="M -40.507812 66.460938 L 119.320312 0.992188 L 184.785156 160.820312 L 24.960938 226.289062 Z M -40.507812 66.460938 " fill-opacity="1" fill-rule="nonzero"/></g></g></g></g></g></g><g clip-path="url(#51661eb1fd)"><g clip-path="url(#0e69387baf)"><g transform="matrix(1, 0, 0, 1, 0, 378)"><g clip-path="url(#b4afe6070f)"><g clip-path="url(#be2a90f016)"><g clip-path="url(#538448a9d0)"><path fill="#001f3f" d="M 0 23.046875 L 54.730469 0.628906 L 78.289062 58.140625 L 23.558594 80.558594 Z M 0 23.046875 " fill-opacity="1" fill-rule="nonzero"/></g></g></g></g></g></g><g clip-path="url(#d88f6053ba)"><g clip-path="url(#1f4b7c6e9b)"><g transform="matrix(1, 0, 0, 1, 241, 535)"><g clip-path="url(#5b1cee10dd)"><g clip-path="url(#189e78663b)"><g clip-path="url(#2f0c23969d)"><path fill="#001f3f" d="M 0.457031 23.265625 L 55.1875 0.847656 L 78.746094 58.359375 L 24.015625 80.777344 Z M 0.457031 23.265625 " fill-opacity="1" fill-rule="nonzero"/></g></g></g></g></g></g><g clip-path="url(#e665026119)"><g clip-path="url(#0e2aa9f43a)"><g transform="matrix(1, 0, 0, 1, 267, 476)"><g clip-path="url(#ca18532d6c)"><g clip-path="url(#3b807d1eae)"><g clip-path="url(#13609ddeb8)"><path fill="#001f3f" d="M 0.152344 11.882812 L 28.84375 0.132812 L 41.285156 30.503906 L 12.59375 42.257812 Z M 0.152344 11.882812 " fill-opacity="1" fill-rule="nonzero"/></g></g></g></g></g></g><g clip-path="url(#3435c4896c)"><g clip-path="url(#3cfa0b38fd)"><g transform="matrix(1, 0, 0, 1, 164, 512)"><g clip-path="url(#27c11a99f5)"><g clip-path="url(#303812ad15)"><g clip-path="url(#b28f935ef3)"><path fill="#001f3f" d="M 6.175781 0.429688 L 103.007812 6.476562 L 97.613281 92.847656 L 0.785156 86.800781 Z M 6.175781 0.429688 " fill-opacity="1" fill-rule="nonzero"/></g></g></g></g></g></g><g clip-path="url(#d0aade7d1f)"><g clip-path="url(#d435619fce)"><g transform="matrix(1, 0, 0, 1, 129, 390)"><g clip-path="url(#6b4c306dae)"><g clip-path="url(#e6d115b189)"><g clip-path="url(#19d3b352a9)"><path fill="#001f3f" d="M 0.820312 42.117188 L 42.644531 0.296875 L 86.589844 44.242188 L 44.765625 86.066406 Z M 0.820312 42.117188 " fill-opacity="1" fill-rule="nonzero"/></g></g></g></g></g></g><g clip-path="url(#c6bd6b3369)"><g clip-path="url(#4b53e1f6bb)"><g transform="matrix(1, 0, 0, 1, 239, 416)"><g clip-path="url(#711b2f1800)"><g clip-path="url(#b7a9925084)"><g clip-path="url(#907b8b2a38)"><path fill="#001f3f" d="M 0.476562 12.246094 L 29.167969 0.492188 L 41.609375 30.863281 L 12.917969 42.617188 Z M 0.476562 12.246094 " fill-opacity="1" fill-rule="nonzero"/></g></g></g></g></g></g><g clip-path="url(#e96d9df6a7)"><g clip-path="url(#5e53a2beab)"><g transform="matrix(1, 0, 0, 1, 335, 523)"><g clip-path="url(#3bb4759f41)"><g clip-path="url(#657bc77647)"><g clip-path="url(#c9fced5d4a)"><path fill="#001f3f" d="M 5.699219 0.441406 L 102.53125 6.488281 L 97.136719 92.859375 L 0.308594 86.8125 Z M 5.699219 0.441406 " fill-opacity="1" fill-rule="nonzero"/></g></g></g></g></g></g><g clip-path="url(#e73dc68fa8)"><g clip-path="url(#df43c323d7)"><g transform="matrix(1, 0, 0, 1, 707, 437)"><g clip-path="url(#3f0664875d)"><g clip-path="url(#3c2aa54ae1)"><g clip-path="url(#ba0997281a)"><path fill="#17a2b8" d="M 0.355469 0.570312 L 173.027344 0.570312 L 173.027344 113.917969 L 0.355469 113.917969 Z M 0.355469 0.570312 " fill-opacity="1" fill-rule="nonzero"/></g></g></g></g></g></g><g clip-path="url(#9932c76598)"><g clip-path="url(#0907ead206)"><g transform="matrix(1, 0, 0, 1, 537, 490)"><g clip-path="url(#5e2e3feb16)"><g clip-path="url(#2fff2cf2c8)"><g clip-path="url(#0a4a76cbf1)"><path fill="#17a2b8" d="M 0.695312 0.964844 L 173.46875 0.964844 L 173.46875 85.859375 L 0.695312 85.859375 Z M 0.695312 0.964844 " fill-opacity="1" fill-rule="nonzero"/></g></g></g></g></g></g><g clip-path="url(#500ffe3584)"><g clip-path="url(#3134b16d0b)"><g transform="matrix(1, 0, 0, 1, 880, 490)"><g clip-path="url(#8d1ed7c990)"><g clip-path="url(#b54b731678)"><g clip-path="url(#5810a51d04)"><path fill="#17a2b8" d="M 0.0703125 0.964844 L 172.84375 0.964844 L 172.84375 85.859375 L 0.0703125 85.859375 Z M 0.0703125 0.964844 " fill-opacity="1" fill-rule="nonzero"/></g></g></g></g></g></g><g fill="#000000" fill-opacity="1"><g transform="translate(291.479618, 223.181694)"><g><path d="M 30 1.234375 C 25.03125 1.234375 20.554688 0.0625 16.578125 -2.28125 C 12.609375 -4.625 9.492188 -7.769531 7.234375 -11.71875 C 4.984375 -15.675781 3.859375 -19.953125 3.859375 -24.546875 C 3.859375 -29.367188 5.003906 -33.78125 7.296875 -37.78125 C 9.597656 -41.78125 12.710938 -44.941406 16.640625 -47.265625 C 20.578125 -49.585938 24.890625 -50.75 29.578125 -50.75 C 34.492188 -50.75 38.972656 -49.609375 43.015625 -47.328125 C 47.066406 -45.054688 50.253906 -41.929688 52.578125 -37.953125 C 54.898438 -33.984375 56.0625 -29.582031 56.0625 -24.75 C 56.0625 -19.96875 54.910156 -15.585938 52.609375 -11.609375 C 50.304688 -7.640625 47.164062 -4.503906 43.1875 -2.203125 C 39.21875 0.0859375 34.820312 1.234375 30 1.234375 Z M 29.859375 -3.578125 C 33.671875 -3.578125 37.1875 -4.484375 40.40625 -6.296875 C 43.625 -8.117188 46.175781 -10.648438 48.0625 -13.890625 C 49.945312 -17.128906 50.890625 -20.773438 50.890625 -24.828125 C 50.890625 -28.867188 49.910156 -32.5 47.953125 -35.71875 C 46.003906 -38.9375 43.421875 -41.441406 40.203125 -43.234375 C 36.984375 -45.023438 33.535156 -45.921875 29.859375 -45.921875 C 26.222656 -45.921875 22.804688 -45.007812 19.609375 -43.1875 C 16.421875 -41.375 13.859375 -38.835938 11.921875 -35.578125 C 9.992188 -32.316406 9.03125 -28.640625 9.03125 -24.546875 C 9.03125 -20.597656 9.984375 -17.023438 11.890625 -13.828125 C 13.796875 -10.628906 16.332031 -8.117188 19.5 -6.296875 C 22.675781 -4.484375 26.128906 -3.578125 29.859375 -3.578125 Z M 29.859375 -3.578125 "/></g></g></g><g fill="#000000" fill-opacity="1"><g transform="translate(351.401116, 223.181694)"><g><path d="M 20.75 0.890625 C 15.46875 0.890625 11.457031 -0.671875 8.71875 -3.796875 C 5.988281 -6.921875 4.625 -11.539062 4.625 -17.65625 L 4.625 -36.609375 L 9.578125 -36.609375 L 9.578125 -15.71875 C 9.578125 -11.71875 10.566406 -8.707031 12.546875 -6.6875 C 14.523438 -4.664062 17.257812 -3.65625 20.75 -3.65625 C 23.1875 -3.65625 25.234375 -4.148438 26.890625 -5.140625 C 28.546875 -6.128906 29.785156 -7.503906 30.609375 -9.265625 C 31.441406 -11.035156 31.859375 -13.070312 31.859375 -15.375 L 31.859375 -36.609375 L 36.828125 -36.609375 L 36.828125 -17.65625 C 36.828125 -11.488281 35.46875 -6.851562 32.75 -3.75 C 30.039062 -0.65625 26.039062 0.890625 20.75 0.890625 Z M 20.75 0.890625 "/></g></g></g><g fill="#000000" fill-opacity="1"><g transform="translate(393.325481, 223.181694)"><g><path d="M 9.453125 -32.484375 L 2.96875 -32.484375 L 2.96875 -36.609375 L 9.453125 -36.609375 L 9.453125 -50.265625 L 14.140625 -50.265625 L 14.140625 -36.609375 L 21.65625 -36.609375 L 21.65625 -32.484375 L 14.140625 -32.484375 L 14.140625 0 L 9.453125 0 Z M 9.453125 -32.484375 "/></g></g></g><g fill="#000000" fill-opacity="1"><g transform="translate(416.701069, 223.181694)"><g><path d="M 30 1.234375 C 25.03125 1.234375 20.554688 0.0625 16.578125 -2.28125 C 12.609375 -4.625 9.492188 -7.769531 7.234375 -11.71875 C 4.984375 -15.675781 3.859375 -19.953125 3.859375 -24.546875 C 3.859375 -29.367188 5.003906 -33.78125 7.296875 -37.78125 C 9.597656 -41.78125 12.710938 -44.941406 16.640625 -47.265625 C 20.578125 -49.585938 24.890625 -50.75 29.578125 -50.75 C 34.492188 -50.75 38.972656 -49.609375 43.015625 -47.328125 C 47.066406 -45.054688 50.253906 -41.929688 52.578125 -37.953125 C 54.898438 -33.984375 56.0625 -29.582031 56.0625 -24.75 C 56.0625 -19.96875 54.910156 -15.585938 52.609375 -11.609375 C 50.304688 -7.640625 47.164062 -4.503906 43.1875 -2.203125 C 39.21875 0.0859375 34.820312 1.234375 30 1.234375 Z M 29.859375 -3.578125 C 33.671875 -3.578125 37.1875 -4.484375 40.40625 -6.296875 C 43.625 -8.117188 46.175781 -10.648438 48.0625 -13.890625 C 49.945312 -17.128906 50.890625 -20.773438 50.890625 -24.828125 C 50.890625 -28.867188 49.910156 -32.5 47.953125 -35.71875 C 46.003906 -38.9375 43.421875 -41.441406 40.203125 -43.234375 C 36.984375 -45.023438 33.535156 -45.921875 29.859375 -45.921875 C 26.222656 -45.921875 22.804688 -45.007812 19.609375 -43.1875 C 16.421875 -41.375 13.859375 -38.835938 11.921875 -35.578125 C 9.992188 -32.316406 9.03125 -28.640625 9.03125 -24.546875 C 9.03125 -20.597656 9.984375 -17.023438 11.890625 -13.828125 C 13.796875 -10.628906 16.332031 -8.117188 19.5 -6.296875 C 22.675781 -4.484375 26.128906 -3.578125 29.859375 -3.578125 Z M 29.859375 -3.578125 "/></g></g></g><g fill="#000000" fill-opacity="1"><g transform="translate(476.622566, 223.181694)"><g><path d="M 2.625 -32.484375 L 2.625 -36.609375 L 7.453125 -36.609375 L 7.453125 -42.34375 C 7.453125 -44.457031 7.664062 -46.191406 8.09375 -47.546875 C 8.53125 -48.898438 9.289062 -49.941406 10.375 -50.671875 C 11.457031 -51.410156 12.960938 -51.78125 14.890625 -51.78125 C 15.765625 -51.78125 16.625 -51.6875 17.46875 -51.5 C 18.320312 -51.320312 19.253906 -51.070312 20.265625 -50.75 L 20.265625 -46.125 C 19.484375 -46.445312 18.757812 -46.710938 18.09375 -46.921875 C 17.425781 -47.128906 16.679688 -47.234375 15.859375 -47.234375 C 14.660156 -47.234375 13.796875 -47.023438 13.265625 -46.609375 C 12.742188 -46.191406 12.425781 -45.613281 12.3125 -44.875 C 12.195312 -44.144531 12.140625 -43.046875 12.140625 -41.578125 L 12.140625 -36.609375 L 19.859375 -36.609375 L 19.859375 -32.484375 L 12.140625 -32.484375 L 12.140625 0 L 7.453125 0 L 7.453125 -32.484375 Z M 2.625 -32.484375 "/></g></g></g><g fill="#000000" fill-opacity="1"><g transform="translate(498.274291, 223.181694)"><g><path d="M 6 -49.515625 L 30.828125 -49.515625 L 30.828125 -44.6875 L 10.96875 -44.6875 L 10.96875 -29.171875 L 30.828125 -29.171875 L 30.828125 -24.34375 L 10.96875 -24.34375 L 10.96875 0 L 6 0 Z M 6 -49.515625 "/></g></g></g><g fill="#000000" fill-opacity="1"><g transform="translate(531.717243, 223.181694)"><g><path d="M 22.609375 0.96875 C 19.023438 0.96875 15.773438 0.109375 12.859375 -1.609375 C 9.941406 -3.335938 7.65625 -5.671875 6 -8.609375 C 4.34375 -11.554688 3.515625 -14.753906 3.515625 -18.203125 C 3.515625 -21.648438 4.34375 -24.867188 6 -27.859375 C 7.65625 -30.847656 9.941406 -33.210938 12.859375 -34.953125 C 15.773438 -36.703125 19.023438 -37.578125 22.609375 -37.578125 C 26.203125 -37.578125 29.457031 -36.703125 32.375 -34.953125 C 35.289062 -33.210938 37.578125 -30.847656 39.234375 -27.859375 C 40.890625 -24.867188 41.71875 -21.648438 41.71875 -18.203125 C 41.71875 -14.753906 40.890625 -11.554688 39.234375 -8.609375 C 37.578125 -5.671875 35.289062 -3.335938 32.375 -1.609375 C 29.457031 0.109375 26.203125 0.96875 22.609375 0.96875 Z M 22.609375 -3.578125 C 25.273438 -3.578125 27.703125 -4.234375 29.890625 -5.546875 C 32.078125 -6.859375 33.789062 -8.628906 35.03125 -10.859375 C 36.269531 -13.085938 36.890625 -15.515625 36.890625 -18.140625 C 36.890625 -20.804688 36.242188 -23.273438 34.953125 -25.546875 C 33.671875 -27.816406 31.9375 -29.628906 29.75 -30.984375 C 27.570312 -32.347656 25.191406 -33.03125 22.609375 -33.03125 C 20.035156 -33.03125 17.65625 -32.347656 15.46875 -30.984375 C 13.289062 -29.628906 11.554688 -27.816406 10.265625 -25.546875 C 8.984375 -23.273438 8.34375 -20.804688 8.34375 -18.140625 C 8.34375 -15.472656 8.960938 -13.035156 10.203125 -10.828125 C 11.441406 -8.617188 13.140625 -6.859375 15.296875 -5.546875 C 17.460938 -4.234375 19.898438 -3.578125 22.609375 -3.578125 Z M 22.609375 -3.578125 "/></g></g></g><g fill="#000000" fill-opacity="1"><g transform="translate(576.88247, 223.181694)"><g><path d="M 22.890625 0.96875 C 19.171875 0.96875 15.835938 0.117188 12.890625 -1.578125 C 9.953125 -3.285156 7.65625 -5.609375 6 -8.546875 C 4.34375 -11.492188 3.515625 -14.757812 3.515625 -18.34375 C 3.515625 -21.96875 4.351562 -25.238281 6.03125 -28.15625 C 7.707031 -31.082031 10.039062 -33.382812 13.03125 -35.0625 C 16.019531 -36.738281 19.351562 -37.578125 23.03125 -37.578125 C 26.519531 -37.578125 29.703125 -36.875 32.578125 -35.46875 C 35.453125 -34.070312 37.765625 -32.132812 39.515625 -29.65625 L 36.0625 -26.6875 C 34.3125 -28.800781 32.367188 -30.382812 30.234375 -31.4375 C 28.097656 -32.5 25.628906 -33.03125 22.828125 -33.03125 C 20.066406 -33.03125 17.59375 -32.382812 15.40625 -31.09375 C 13.226562 -29.8125 11.503906 -28.054688 10.234375 -25.828125 C 8.972656 -23.597656 8.34375 -21.101562 8.34375 -18.34375 C 8.34375 -15.488281 8.960938 -12.9375 10.203125 -10.6875 C 11.441406 -8.4375 13.175781 -6.6875 15.40625 -5.4375 C 17.632812 -4.195312 20.128906 -3.578125 22.890625 -3.578125 C 28.222656 -3.578125 32.613281 -5.648438 36.0625 -9.796875 L 39.578125 -7.03125 C 37.597656 -4.5 35.195312 -2.53125 32.375 -1.125 C 29.550781 0.269531 26.390625 0.96875 22.890625 0.96875 Z M 22.890625 0.96875 "/></g></g></g><g fill="#000000" fill-opacity="1"><g transform="translate(619.496383, 223.181694)"><g><path d="M 20.75 0.890625 C 15.46875 0.890625 11.457031 -0.671875 8.71875 -3.796875 C 5.988281 -6.921875 4.625 -11.539062 4.625 -17.65625 L 4.625 -36.609375 L 9.578125 -36.609375 L 9.578125 -15.71875 C 9.578125 -11.71875 10.566406 -8.707031 12.546875 -6.6875 C 14.523438 -4.664062 17.257812 -3.65625 20.75 -3.65625 C 23.1875 -3.65625 25.234375 -4.148438 26.890625 -5.140625 C 28.546875 -6.128906 29.785156 -7.503906 30.609375 -9.265625 C 31.441406 -11.035156 31.859375 -13.070312 31.859375 -15.375 L 31.859375 -36.609375 L 36.828125 -36.609375 L 36.828125 -17.65625 C 36.828125 -11.488281 35.46875 -6.851562 32.75 -3.75 C 30.039062 -0.65625 26.039062 0.890625 20.75 0.890625 Z M 20.75 0.890625 "/></g></g></g><g fill="#000000" fill-opacity="1"><g transform="translate(661.42076, 223.181694)"><g><path d="M 13.171875 0.96875 C 11.097656 0.96875 9.097656 0.507812 7.171875 -0.40625 C 5.242188 -1.332031 3.632812 -2.625 2.34375 -4.28125 L 5.3125 -7.65625 C 7.75 -4.9375 10.300781 -3.578125 12.96875 -3.578125 C 14.15625 -3.578125 15.265625 -3.84375 16.296875 -4.375 C 17.335938 -4.90625 18.164062 -5.640625 18.78125 -6.578125 C 19.40625 -7.523438 19.71875 -8.550781 19.71875 -9.65625 C 19.71875 -10.894531 19.40625 -11.953125 18.78125 -12.828125 C 18.164062 -13.703125 17.171875 -14.503906 15.796875 -15.234375 C 12.898438 -16.796875 10.691406 -18.082031 9.171875 -19.09375 C 7.648438 -20.101562 6.40625 -21.320312 5.4375 -22.75 C 4.476562 -24.175781 4 -25.878906 4 -27.859375 C 4 -29.742188 4.445312 -31.421875 5.34375 -32.890625 C 6.238281 -34.359375 7.457031 -35.503906 9 -36.328125 C 10.539062 -37.160156 12.226562 -37.578125 14.0625 -37.578125 C 15.945312 -37.578125 17.691406 -37.160156 19.296875 -36.328125 C 20.910156 -35.503906 22.546875 -34.265625 24.203125 -32.609375 L 21.171875 -29.515625 C 19.972656 -30.660156 18.785156 -31.53125 17.609375 -32.125 C 16.441406 -32.726562 15.171875 -33.03125 13.796875 -33.03125 C 12.785156 -33.03125 11.863281 -32.8125 11.03125 -32.375 C 10.207031 -31.9375 9.539062 -31.347656 9.03125 -30.609375 C 8.53125 -29.878906 8.28125 -29.054688 8.28125 -28.140625 C 8.28125 -26.890625 8.644531 -25.804688 9.375 -24.890625 C 10.113281 -23.972656 11.238281 -23.097656 12.75 -22.265625 C 15.695312 -20.660156 17.914062 -19.335938 19.40625 -18.296875 C 20.90625 -17.265625 22.078125 -16.082031 22.921875 -14.75 C 23.773438 -13.414062 24.203125 -11.785156 24.203125 -9.859375 C 24.203125 -7.929688 23.738281 -6.140625 22.8125 -4.484375 C 21.894531 -2.828125 20.597656 -1.503906 18.921875 -0.515625 C 17.242188 0.472656 15.328125 0.96875 13.171875 0.96875 Z M 13.171875 0.96875 "/></g></g></g><g fill="#000000" fill-opacity="1"><g transform="translate(688.176625, 223.181694)"><g/></g></g><g fill="#000000" fill-opacity="1"><g transform="translate(586.753468, 281.653155)"><g><path d="M 12.203125 0.46875 C 9.273438 0.46875 6.882812 -0.796875 5.03125 -3.328125 L 5.03125 0 L 2.71875 0 L 2.71875 -25.015625 L 5.03125 -25.015625 L 5.03125 -14.953125 C 7 -17.328125 9.410156 -18.515625 12.265625 -18.515625 C 13.984375 -18.515625 15.550781 -18.082031 16.96875 -17.21875 C 18.382812 -16.363281 19.5 -15.207031 20.3125 -13.75 C 21.132812 -12.289062 21.546875 -10.707031 21.546875 -9 C 21.546875 -7.320312 21.128906 -5.753906 20.296875 -4.296875 C 19.472656 -2.835938 18.347656 -1.675781 16.921875 -0.8125 C 15.492188 0.0390625 13.921875 0.46875 12.203125 0.46875 Z M 12.03125 -1.765625 C 13.382812 -1.765625 14.601562 -2.097656 15.6875 -2.765625 C 16.78125 -3.429688 17.632812 -4.328125 18.25 -5.453125 C 18.863281 -6.578125 19.171875 -7.785156 19.171875 -9.078125 C 19.171875 -10.367188 18.851562 -11.570312 18.21875 -12.6875 C 17.582031 -13.8125 16.71875 -14.710938 15.625 -15.390625 C 14.539062 -16.078125 13.34375 -16.421875 12.03125 -16.421875 C 10.78125 -16.421875 9.601562 -16.125 8.5 -15.53125 C 7.40625 -14.9375 6.523438 -14.082031 5.859375 -12.96875 C 5.191406 -11.863281 4.859375 -10.585938 4.859375 -9.140625 C 4.859375 -7.753906 5.171875 -6.5 5.796875 -5.375 C 6.421875 -4.257812 7.28125 -3.378906 8.375 -2.734375 C 9.476562 -2.085938 10.695312 -1.765625 12.03125 -1.765625 Z M 12.03125 -1.765625 "/></g></g></g><g fill="#000000" fill-opacity="1"><g transform="translate(608.636228, 281.653155)"><g><path d="M 15.390625 -18.046875 L 17.8125 -18.046875 L 7.03125 6.59375 L 4.59375 6.59375 L 8.09375 -1.21875 L 0.640625 -18.046875 L 3.03125 -18.046875 L 9.28125 -3.875 Z M 15.390625 -18.046875 "/></g></g></g><g fill="#000000" fill-opacity="1"><g transform="translate(626.509447, 281.653155)"><g/></g></g><g fill="#000000" fill-opacity="1"><g transform="translate(635.921772, 281.653155)"><g><path d="M 14.78125 0.609375 C 12.332031 0.609375 10.128906 0.03125 8.171875 -1.125 C 6.210938 -2.28125 4.675781 -3.832031 3.5625 -5.78125 C 2.457031 -7.726562 1.90625 -9.832031 1.90625 -12.09375 C 1.90625 -14.476562 2.46875 -16.65625 3.59375 -18.625 C 4.726562 -20.59375 6.265625 -22.148438 8.203125 -23.296875 C 10.140625 -24.441406 12.265625 -25.015625 14.578125 -25.015625 C 17.003906 -25.015625 19.210938 -24.453125 21.203125 -23.328125 C 23.203125 -22.203125 24.769531 -20.660156 25.90625 -18.703125 C 27.050781 -16.742188 27.625 -14.578125 27.625 -12.203125 C 27.625 -9.847656 27.054688 -7.6875 25.921875 -5.71875 C 24.796875 -3.757812 23.253906 -2.210938 21.296875 -1.078125 C 19.335938 0.046875 17.164062 0.609375 14.78125 0.609375 Z M 14.71875 -1.765625 C 16.59375 -1.765625 18.320312 -2.210938 19.90625 -3.109375 C 21.5 -4.003906 22.757812 -5.25 23.6875 -6.84375 C 24.613281 -8.445312 25.078125 -10.242188 25.078125 -12.234375 C 25.078125 -14.222656 24.59375 -16.007812 23.625 -17.59375 C 22.664062 -19.1875 21.394531 -20.425781 19.8125 -21.3125 C 18.226562 -22.195312 16.53125 -22.640625 14.71875 -22.640625 C 12.925781 -22.640625 11.242188 -22.191406 9.671875 -21.296875 C 8.097656 -20.398438 6.832031 -19.144531 5.875 -17.53125 C 4.925781 -15.925781 4.453125 -14.113281 4.453125 -12.09375 C 4.453125 -10.144531 4.921875 -8.382812 5.859375 -6.8125 C 6.796875 -5.238281 8.046875 -4.003906 9.609375 -3.109375 C 11.179688 -2.210938 12.882812 -1.765625 14.71875 -1.765625 Z M 14.71875 -1.765625 "/></g></g></g><g fill="#000000" fill-opacity="1"><g transform="translate(665.449974, 281.653155)"><g><path d="M 5.03125 -18.046875 L 5.03125 -14.75 C 5.914062 -16 6.96875 -16.9375 8.1875 -17.5625 C 9.414062 -18.195312 10.753906 -18.515625 12.203125 -18.515625 C 13.921875 -18.515625 15.492188 -18.082031 16.921875 -17.21875 C 18.347656 -16.363281 19.472656 -15.21875 20.296875 -13.78125 C 21.128906 -12.34375 21.546875 -10.773438 21.546875 -9.078125 C 21.546875 -7.378906 21.132812 -5.796875 20.3125 -4.328125 C 19.5 -2.867188 18.382812 -1.707031 16.96875 -0.84375 C 15.550781 0.0078125 13.984375 0.4375 12.265625 0.4375 C 9.390625 0.4375 6.976562 -0.738281 5.03125 -3.09375 L 5.03125 6.59375 L 2.71875 6.59375 L 2.71875 -18.046875 Z M 12.03125 -1.671875 C 13.34375 -1.671875 14.539062 -2.003906 15.625 -2.671875 C 16.71875 -3.335938 17.582031 -4.234375 18.21875 -5.359375 C 18.851562 -6.492188 19.171875 -7.707031 19.171875 -9 C 19.171875 -10.289062 18.863281 -11.492188 18.25 -12.609375 C 17.632812 -13.722656 16.773438 -14.613281 15.671875 -15.28125 C 14.578125 -15.945312 13.363281 -16.28125 12.03125 -16.28125 C 10.695312 -16.28125 9.484375 -15.957031 8.390625 -15.3125 C 7.304688 -14.664062 6.445312 -13.785156 5.8125 -12.671875 C 5.175781 -11.566406 4.859375 -10.320312 4.859375 -8.9375 C 4.859375 -7.488281 5.191406 -6.210938 5.859375 -5.109375 C 6.523438 -4.015625 7.40625 -3.164062 8.5 -2.5625 C 9.601562 -1.96875 10.78125 -1.671875 12.03125 -1.671875 Z M 12.03125 -1.671875 "/></g></g></g><g fill="#000000" fill-opacity="1"><g transform="translate(688.691972, 281.653155)"><g><path d="M 5.03125 -25.015625 L 5.03125 -14.8125 C 5.976562 -16.039062 7.003906 -16.960938 8.109375 -17.578125 C 9.222656 -18.203125 10.453125 -18.515625 11.796875 -18.515625 C 13.109375 -18.515625 14.265625 -18.207031 15.265625 -17.59375 C 16.273438 -16.988281 17.054688 -16.070312 17.609375 -14.84375 C 18.171875 -13.625 18.453125 -12.128906 18.453125 -10.359375 L 18.453125 0 L 16.140625 0 L 16.140625 -9.828125 C 16.140625 -12.023438 15.765625 -13.671875 15.015625 -14.765625 C 14.273438 -15.867188 13.050781 -16.421875 11.34375 -16.421875 C 10.125 -16.421875 9.03125 -16.085938 8.0625 -15.421875 C 7.101562 -14.765625 6.359375 -13.847656 5.828125 -12.671875 C 5.296875 -11.492188 5.03125 -10.144531 5.03125 -8.625 L 5.03125 0 L 2.71875 0 L 2.71875 -25.015625 Z M 5.03125 -25.015625 "/></g></g></g><g fill="#000000" fill-opacity="1"><g transform="translate(709.521416, 281.653155)"><g><path d="M 11.140625 0.4375 C 9.191406 0.4375 7.507812 0.015625 6.09375 -0.828125 C 4.675781 -1.679688 3.59375 -2.828125 2.84375 -4.265625 C 2.101562 -5.703125 1.734375 -7.269531 1.734375 -8.96875 C 1.734375 -10.625 2.117188 -12.179688 2.890625 -13.640625 C 3.660156 -15.109375 4.753906 -16.285156 6.171875 -17.171875 C 7.585938 -18.066406 9.203125 -18.515625 11.015625 -18.515625 C 12.753906 -18.515625 14.335938 -18.109375 15.765625 -17.296875 C 17.191406 -16.484375 18.3125 -15.347656 19.125 -13.890625 C 19.945312 -12.441406 20.359375 -10.8125 20.359375 -9 L 20.359375 -8.84375 L 4.109375 -8.84375 C 4.160156 -7.457031 4.484375 -6.226562 5.078125 -5.15625 C 5.679688 -4.09375 6.503906 -3.265625 7.546875 -2.671875 C 8.585938 -2.085938 9.785156 -1.796875 11.140625 -1.796875 C 12.753906 -1.796875 14.070312 -2.171875 15.09375 -2.921875 C 16.113281 -3.671875 17.019531 -4.691406 17.8125 -5.984375 L 19.75 -4.96875 C 18.863281 -3.257812 17.6875 -1.929688 16.21875 -0.984375 C 14.757812 -0.0351562 13.066406 0.4375 11.140625 0.4375 Z M 17.8125 -10.875 C 17.351562 -12.664062 16.515625 -14.015625 15.296875 -14.921875 C 14.085938 -15.828125 12.671875 -16.28125 11.046875 -16.28125 C 9.390625 -16.28125 7.988281 -15.832031 6.84375 -14.9375 C 5.695312 -14.039062 4.863281 -12.6875 4.34375 -10.875 Z M 12.59375 -25.796875 L 16.171875 -25.796875 L 11.609375 -21.40625 L 9.3125 -21.40625 Z M 12.59375 -25.796875 "/></g></g></g><path stroke-linecap="butt" transform="matrix(0.749634, 0, 0, 0.749634, 267.151648, 286.50074)" fill="none" stroke-linejoin="miter" d="M 0.000927872 1.999989 L 309.625936 1.999989 " stroke="#1c3144" stroke-width="4" stroke-opacity="1" stroke-miterlimit="4"/><path stroke-linecap="butt" transform="matrix(0.749634, 0, 0, 0.749634, 499.256321, 286.50074)" fill="none" stroke-linejoin="miter" d="M 0.00199009 1.999989 L 309.960494 1.999989 " stroke="#17a2b8" stroke-width="4" stroke-opacity="1" stroke-miterlimit="4"/></svg>