<svg xmlns="http://www.w3.org/2000/svg" xmlns:xlink="http://www.w3.org/1999/xlink" width="1366" zoomAndPan="magnify" viewBox="0 0 1024.5 576" height="768" preserveAspectRatio="xMidYMid meet" version="1.0"><defs><g/><clipPath id="296a456200"><path d="M 0 0.140625 L 1024 0.140625 L 1024 575.859375 L 0 575.859375 Z M 0 0.140625 " clip-rule="nonzero"/></clipPath><clipPath id="0af6fe01b6"><path d="M 0 445 L 185 445 L 185 575.859375 L 0 575.859375 Z M 0 445 " clip-rule="nonzero"/></clipPath><clipPath id="0a3e86b665"><path d="M -40.507812 511.460938 L 119.320312 445.992188 L 184.785156 605.820312 L 24.960938 671.289062 Z M -40.507812 511.460938 " clip-rule="nonzero"/></clipPath><clipPath id="75709611e5"><path d="M 0 0.84375 L 184.949219 0.84375 L 184.949219 130.859375 L 0 130.859375 Z M 0 0.84375 " clip-rule="nonzero"/></clipPath><clipPath id="494f7856e0"><path d="M -40.507812 66.460938 L 119.320312 0.992188 L 184.785156 160.820312 L 24.960938 226.289062 Z M -40.507812 66.460938 " clip-rule="nonzero"/></clipPath><clipPath id="405037493f"><rect x="0" width="185" y="0" height="131"/></clipPath><clipPath id="7c41c59f85"><path d="M 0 378 L 79 378 L 79 459 L 0 459 Z M 0 378 " clip-rule="nonzero"/></clipPath><clipPath id="ffd6d268cb"><path d="M 0 401.046875 L 54.730469 378.628906 L 78.324219 436.226562 L 23.59375 458.648438 Z M 0 401.046875 " clip-rule="nonzero"/></clipPath><clipPath id="8a18a1ba1c"><path d="M 0 0.4375 L 78.441406 0.4375 L 78.441406 80.796875 L 0 80.796875 Z M 0 0.4375 " clip-rule="nonzero"/></clipPath><clipPath id="f3455cadf5"><path d="M 0 23.046875 L 54.730469 0.628906 L 78.324219 58.226562 L 23.59375 80.648438 Z M 0 23.046875 " clip-rule="nonzero"/></clipPath><clipPath id="6cd3e75eb9"><rect x="0" width="79" y="0" height="81"/></clipPath><clipPath id="5203c6b28e"><path d="M 241 535 L 320 535 L 320 575.859375 L 241 575.859375 Z M 241 535 " clip-rule="nonzero"/></clipPath><clipPath id="bb48484e26"><path d="M 241.457031 558.265625 L 296.1875 535.847656 L 319.78125 593.449219 L 265.050781 615.867188 Z M 241.457031 558.265625 " clip-rule="nonzero"/></clipPath><clipPath id="de2bb435fd"><path d="M 0.320312 0.800781 L 79 0.800781 L 79 40.859375 L 0.320312 40.859375 Z M 0.320312 0.800781 " clip-rule="nonzero"/></clipPath><clipPath id="f516e4ae2c"><path d="M 0.457031 23.265625 L 55.1875 0.847656 L 78.78125 58.449219 L 24.050781 80.867188 Z M 0.457031 23.265625 " clip-rule="nonzero"/></clipPath><clipPath id="15b091e487"><rect x="0" width="79" y="0" height="41"/></clipPath><clipPath id="250cadb398"><path d="M 267 476 L 309 476 L 309 519 L 267 519 Z M 267 476 " clip-rule="nonzero"/></clipPath><clipPath id="becbb7450c"><path d="M 267.152344 487.882812 L 295.84375 476.132812 L 308.296875 506.535156 L 279.605469 518.285156 Z M 267.152344 487.882812 " clip-rule="nonzero"/></clipPath><clipPath id="99f958e972"><path d="M 0 0.0664062 L 41.488281 0.0664062 L 41.488281 42.289062 L 0 42.289062 Z M 0 0.0664062 " clip-rule="nonzero"/></clipPath><clipPath id="5e43e39374"><path d="M 0.152344 11.882812 L 28.84375 0.132812 L 41.296875 30.535156 L 12.605469 42.285156 Z M 0.152344 11.882812 " clip-rule="nonzero"/></clipPath><clipPath id="a1129e72a8"><rect x="0" width="42" y="0" height="43"/></clipPath><clipPath id="2737a6698e"><path d="M 164 512 L 268 512 L 268 575.859375 L 164 575.859375 Z M 164 512 " clip-rule="nonzero"/></clipPath><clipPath id="9353160be3"><path d="M 170.175781 512.429688 L 267.152344 518.484375 L 261.757812 604.855469 L 164.785156 598.800781 Z M 170.175781 512.429688 " clip-rule="nonzero"/></clipPath><clipPath id="b4cccf0c1f"><path d="M 0.558594 0.289062 L 103.230469 0.289062 L 103.230469 63.859375 L 0.558594 63.859375 Z M 0.558594 0.289062 " clip-rule="nonzero"/></clipPath><clipPath id="c89065d50a"><path d="M 6.175781 0.429688 L 103.152344 6.484375 L 97.757812 92.855469 L 0.785156 86.800781 Z M 6.175781 0.429688 " clip-rule="nonzero"/></clipPath><clipPath id="3652751e93"><rect x="0" width="104" y="0" height="64"/></clipPath><clipPath id="9fec5c8818"><path d="M 129 390 L 216 390 L 216 477 L 129 477 Z M 129 390 " clip-rule="nonzero"/></clipPath><clipPath id="d5f15d00de"><path d="M 129.820312 432.117188 L 171.644531 390.296875 L 215.65625 434.308594 L 173.835938 476.132812 Z M 129.820312 432.117188 " clip-rule="nonzero"/></clipPath><clipPath id="78754092b3"><path d="M 0.777344 0.191406 L 86.894531 0.191406 L 86.894531 86.308594 L 0.777344 86.308594 Z M 0.777344 0.191406 " clip-rule="nonzero"/></clipPath><clipPath id="beb2ca02fa"><path d="M 0.820312 42.117188 L 42.644531 0.296875 L 86.65625 44.308594 L 44.835938 86.132812 Z M 0.820312 42.117188 " clip-rule="nonzero"/></clipPath><clipPath id="d51376e613"><rect x="0" width="87" y="0" height="87"/></clipPath><clipPath id="27ed5e6bc0"><path d="M 239 416 L 281 416 L 281 459 L 239 459 Z M 239 416 " clip-rule="nonzero"/></clipPath><clipPath id="023c4becb4"><path d="M 239.476562 428.246094 L 268.167969 416.492188 L 280.621094 446.894531 L 251.929688 458.644531 Z M 239.476562 428.246094 " clip-rule="nonzero"/></clipPath><clipPath id="58624c6920"><path d="M 0.402344 0.335938 L 41.664062 0.335938 L 41.664062 42.796875 L 0.402344 42.796875 Z M 0.402344 0.335938 " clip-rule="nonzero"/></clipPath><clipPath id="5ed496057b"><path d="M 0.476562 12.246094 L 29.167969 0.492188 L 41.621094 30.894531 L 12.929688 42.644531 Z M 0.476562 12.246094 " clip-rule="nonzero"/></clipPath><clipPath id="3e7c298fae"><rect x="0" width="42" y="0" height="43"/></clipPath><clipPath id="1831ff60c8"><path d="M 335 523 L 438 523 L 438 575.859375 L 335 575.859375 Z M 335 523 " clip-rule="nonzero"/></clipPath><clipPath id="ad79212020"><path d="M 340.699219 523.441406 L 437.675781 529.496094 L 432.28125 615.871094 L 335.308594 609.8125 Z M 340.699219 523.441406 " clip-rule="nonzero"/></clipPath><clipPath id="f0d4fcdce6"><path d="M 0.117188 0.324219 L 102.785156 0.324219 L 102.785156 52.859375 L 0.117188 52.859375 Z M 0.117188 0.324219 " clip-rule="nonzero"/></clipPath><clipPath id="03f3747c44"><path d="M 5.699219 0.441406 L 102.675781 6.496094 L 97.28125 92.871094 L 0.308594 86.8125 Z M 5.699219 0.441406 " clip-rule="nonzero"/></clipPath><clipPath id="9731aba81b"><rect x="0" width="103" y="0" height="53"/></clipPath><clipPath id="165bb23c32"><path d="M 707.355469 437.570312 L 880.472656 437.570312 L 880.472656 550.917969 L 707.355469 550.917969 Z M 707.355469 437.570312 " clip-rule="nonzero"/></clipPath><clipPath id="a1bd7f291e"><path d="M 805.417969 437.570312 C 807.3125 437.570312 809.21875 437.570312 811.109375 437.570312 C 826.183594 439.464844 835.605469 445.765625 839.894531 456.078125 C 865.027344 454.703125 883.296875 474.199219 872.164062 493.335938 C 875.867188 497.355469 878.953125 501.855469 880.070312 507.890625 C 880.070312 509.621094 880.070312 511.347656 880.070312 513.074219 C 876.746094 528.441406 862.4375 538.824219 838.953125 536.027344 C 832.910156 543.917969 822.15625 551.816406 805.421875 550.832031 C 796.773438 550.316406 790.757812 547.316406 785.488281 543.671875 C 779.941406 546.699219 773.929688 549.078125 765.246094 549.105469 C 745.160156 549.148438 731.722656 537.476562 731.394531 521.46875 C 718.484375 517.722656 709.734375 510.730469 707.355469 498.769531 C 707.355469 497.039062 707.355469 495.308594 707.355469 493.585938 C 709.984375 481.730469 718.253906 474.285156 732.023438 471.128906 C 731.199219 451.132812 758.742188 438.636719 781.375 447.449219 C 786.761719 443.089844 794.382812 438.339844 805.417969 437.570312 Z M 805.417969 437.570312 " clip-rule="nonzero"/></clipPath><clipPath id="7b00f93f70"><path d="M 0.355469 0.570312 L 173.472656 0.570312 L 173.472656 113.917969 L 0.355469 113.917969 Z M 0.355469 0.570312 " clip-rule="nonzero"/></clipPath><clipPath id="3d3bdcb0bf"><path d="M 98.417969 0.570312 C 100.3125 0.570312 102.21875 0.570312 104.109375 0.570312 C 119.183594 2.464844 128.605469 8.765625 132.894531 19.078125 C 158.027344 17.703125 176.296875 37.199219 165.164062 56.335938 C 168.867188 60.355469 171.953125 64.855469 173.070312 70.890625 C 173.070312 72.621094 173.070312 74.347656 173.070312 76.074219 C 169.746094 91.441406 155.4375 101.824219 131.953125 99.027344 C 125.910156 106.917969 115.15625 114.816406 98.421875 113.832031 C 89.773438 113.316406 83.757812 110.316406 78.488281 106.671875 C 72.941406 109.699219 66.929688 112.078125 58.246094 112.105469 C 38.160156 112.148438 24.722656 100.476562 24.394531 84.46875 C 11.484375 80.722656 2.734375 73.730469 0.355469 61.769531 C 0.355469 60.039062 0.355469 58.308594 0.355469 56.585938 C 2.984375 44.730469 11.253906 37.285156 25.023438 34.128906 C 24.199219 14.132812 51.742188 1.636719 74.375 10.449219 C 79.761719 6.089844 87.382812 1.339844 98.417969 0.570312 Z M 98.417969 0.570312 " clip-rule="nonzero"/></clipPath><clipPath id="a425fd321d"><rect x="0" width="174" y="0" height="114"/></clipPath><clipPath id="610f03596b"><path d="M 537.695312 490.964844 L 710.46875 490.964844 L 710.46875 575.859375 L 537.695312 575.859375 Z M 537.695312 490.964844 " clip-rule="nonzero"/></clipPath><clipPath id="0baa8c1ead"><path d="M 622.390625 490.964844 C 638.21875 490.964844 651.574219 499.851562 655.835938 512.023438 C 661.003906 510.238281 666.898438 510.152344 672.550781 512.183594 C 682.195312 515.652344 688.324219 524.265625 688.644531 533.414062 L 688.820312 533.414062 C 700.742188 533.414062 710.410156 542.914062 710.410156 554.636719 C 710.410156 566.359375 700.742188 575.859375 688.820312 575.859375 L 559.285156 575.859375 C 547.363281 575.859375 537.695312 566.359375 537.695312 554.636719 C 537.695312 541.496094 548.90625 533.414062 561.367188 533.414062 C 557.8125 521.546875 567.089844 509.746094 579.257812 508.296875 C 583.023438 507.847656 586.667969 508.363281 589.921875 509.625 C 595.011719 498.703125 607.625 490.964844 622.390625 490.964844 Z M 622.390625 490.964844 " clip-rule="nonzero"/></clipPath><clipPath id="2b75f24d7d"><path d="M 0.695312 0.964844 L 173.46875 0.964844 L 173.46875 85.859375 L 0.695312 85.859375 Z M 0.695312 0.964844 " clip-rule="nonzero"/></clipPath><clipPath id="afb36962c3"><path d="M 85.390625 0.964844 C 101.21875 0.964844 114.574219 9.851562 118.835938 22.023438 C 124.003906 20.238281 129.898438 20.152344 135.550781 22.183594 C 145.195312 25.652344 151.324219 34.265625 151.644531 43.414062 L 151.820312 43.414062 C 163.742188 43.414062 173.410156 52.914062 173.410156 64.636719 C 173.410156 76.359375 163.742188 85.859375 151.820312 85.859375 L 22.285156 85.859375 C 10.363281 85.859375 0.695312 76.359375 0.695312 64.636719 C 0.695312 51.496094 11.90625 43.414062 24.367188 43.414062 C 20.8125 31.546875 30.089844 19.746094 42.257812 18.296875 C 46.023438 17.847656 49.667969 18.363281 52.921875 19.625 C 58.011719 8.703125 70.625 0.964844 85.390625 0.964844 Z M 85.390625 0.964844 " clip-rule="nonzero"/></clipPath><clipPath id="cc6204a46d"><rect x="0" width="174" y="0" height="86"/></clipPath><clipPath id="9358e7f236"><path d="M 880.070312 490.964844 L 1024 490.964844 L 1024 575.859375 L 880.070312 575.859375 Z M 880.070312 490.964844 " clip-rule="nonzero"/></clipPath><clipPath id="e87d96218a"><path d="M 964.765625 490.964844 C 980.59375 490.964844 993.949219 499.851562 998.210938 512.023438 C 1003.378906 510.238281 1009.273438 510.152344 1014.925781 512.183594 C 1024.570312 515.652344 1030.699219 524.265625 1031.019531 533.414062 L 1031.195312 533.414062 C 1043.117188 533.414062 1052.785156 542.914062 1052.785156 554.636719 C 1052.785156 566.359375 1043.117188 575.859375 1031.195312 575.859375 L 901.660156 575.859375 C 889.738281 575.859375 880.070312 566.359375 880.070312 554.636719 C 880.070312 541.496094 891.28125 533.414062 903.742188 533.414062 C 900.1875 521.546875 909.464844 509.746094 921.632812 508.296875 C 925.398438 507.847656 929.042969 508.363281 932.296875 509.625 C 937.386719 498.703125 950 490.964844 964.765625 490.964844 Z M 964.765625 490.964844 " clip-rule="nonzero"/></clipPath><clipPath id="90319e68ca"><path d="M 0.0703125 0.964844 L 144 0.964844 L 144 85.859375 L 0.0703125 85.859375 Z M 0.0703125 0.964844 " clip-rule="nonzero"/></clipPath><clipPath id="443f434e30"><path d="M 84.765625 0.964844 C 100.59375 0.964844 113.949219 9.851562 118.210938 22.023438 C 123.378906 20.238281 129.273438 20.152344 134.925781 22.183594 C 144.570312 25.652344 150.699219 34.265625 151.019531 43.414062 L 151.195312 43.414062 C 163.117188 43.414062 172.785156 52.914062 172.785156 64.636719 C 172.785156 76.359375 163.117188 85.859375 151.195312 85.859375 L 21.660156 85.859375 C 9.738281 85.859375 0.0703125 76.359375 0.0703125 64.636719 C 0.0703125 51.496094 11.28125 43.414062 23.742188 43.414062 C 20.1875 31.546875 29.464844 19.746094 41.632812 18.296875 C 45.398438 17.847656 49.042969 18.363281 52.296875 19.625 C 57.386719 8.703125 70 0.964844 84.765625 0.964844 Z M 84.765625 0.964844 " clip-rule="nonzero"/></clipPath><clipPath id="6551e4a665"><rect x="0" width="144" y="0" height="86"/></clipPath></defs><g clip-path="url(#296a456200)"><path fill="#ffffff" d="M 0 0.140625 L 1024 0.140625 L 1024 575.859375 L 0 575.859375 Z M 0 0.140625 " fill-opacity="1" fill-rule="nonzero"/><path fill="#f8f9fa" d="M 0 0.140625 L 1024 0.140625 L 1024 575.859375 L 0 575.859375 Z M 0 0.140625 " fill-opacity="1" fill-rule="nonzero"/></g><g clip-path="url(#0af6fe01b6)"><g clip-path="url(#0a3e86b665)"><g transform="matrix(1, 0, 0, 1, 0, 445)"><g clip-path="url(#405037493f)"><g clip-path="url(#75709611e5)"><g clip-path="url(#494f7856e0)"><path fill="#001f3f" d="M -40.507812 66.460938 L 119.320312 0.992188 L 184.785156 160.820312 L 24.960938 226.289062 Z M -40.507812 66.460938 " fill-opacity="1" fill-rule="nonzero"/></g></g></g></g></g></g><g clip-path="url(#7c41c59f85)"><g clip-path="url(#ffd6d268cb)"><g transform="matrix(1, 0, 0, 1, 0, 378)"><g clip-path="url(#6cd3e75eb9)"><g clip-path="url(#8a18a1ba1c)"><g clip-path="url(#f3455cadf5)"><path fill="#001f3f" d="M 0 23.046875 L 54.730469 0.628906 L 78.289062 58.140625 L 23.558594 80.558594 Z M 0 23.046875 " fill-opacity="1" fill-rule="nonzero"/></g></g></g></g></g></g><g clip-path="url(#5203c6b28e)"><g clip-path="url(#bb48484e26)"><g transform="matrix(1, 0, 0, 1, 241, 535)"><g clip-path="url(#15b091e487)"><g clip-path="url(#de2bb435fd)"><g clip-path="url(#f516e4ae2c)"><path fill="#001f3f" d="M 0.457031 23.265625 L 55.1875 0.847656 L 78.746094 58.359375 L 24.015625 80.777344 Z M 0.457031 23.265625 " fill-opacity="1" fill-rule="nonzero"/></g></g></g></g></g></g><g clip-path="url(#250cadb398)"><g clip-path="url(#becbb7450c)"><g transform="matrix(1, 0, 0, 1, 267, 476)"><g clip-path="url(#a1129e72a8)"><g clip-path="url(#99f958e972)"><g clip-path="url(#5e43e39374)"><path fill="#001f3f" d="M 0.152344 11.882812 L 28.84375 0.132812 L 41.285156 30.503906 L 12.59375 42.257812 Z M 0.152344 11.882812 " fill-opacity="1" fill-rule="nonzero"/></g></g></g></g></g></g><g clip-path="url(#2737a6698e)"><g clip-path="url(#9353160be3)"><g transform="matrix(1, 0, 0, 1, 164, 512)"><g clip-path="url(#3652751e93)"><g clip-path="url(#b4cccf0c1f)"><g clip-path="url(#c89065d50a)"><path fill="#001f3f" d="M 6.175781 0.429688 L 103.007812 6.476562 L 97.613281 92.847656 L 0.785156 86.800781 Z M 6.175781 0.429688 " fill-opacity="1" fill-rule="nonzero"/></g></g></g></g></g></g><g clip-path="url(#9fec5c8818)"><g clip-path="url(#d5f15d00de)"><g transform="matrix(1, 0, 0, 1, 129, 390)"><g clip-path="url(#d51376e613)"><g clip-path="url(#78754092b3)"><g clip-path="url(#beb2ca02fa)"><path fill="#001f3f" d="M 0.820312 42.117188 L 42.644531 0.296875 L 86.589844 44.242188 L 44.765625 86.066406 Z M 0.820312 42.117188 " fill-opacity="1" fill-rule="nonzero"/></g></g></g></g></g></g><g clip-path="url(#27ed5e6bc0)"><g clip-path="url(#023c4becb4)"><g transform="matrix(1, 0, 0, 1, 239, 416)"><g clip-path="url(#3e7c298fae)"><g clip-path="url(#58624c6920)"><g clip-path="url(#5ed496057b)"><path fill="#001f3f" d="M 0.476562 12.246094 L 29.167969 0.492188 L 41.609375 30.863281 L 12.917969 42.617188 Z M 0.476562 12.246094 " fill-opacity="1" fill-rule="nonzero"/></g></g></g></g></g></g><g clip-path="url(#1831ff60c8)"><g clip-path="url(#ad79212020)"><g transform="matrix(1, 0, 0, 1, 335, 523)"><g clip-path="url(#9731aba81b)"><g clip-path="url(#f0d4fcdce6)"><g clip-path="url(#03f3747c44)"><path fill="#001f3f" d="M 5.699219 0.441406 L 102.53125 6.488281 L 97.136719 92.859375 L 0.308594 86.8125 Z M 5.699219 0.441406 " fill-opacity="1" fill-rule="nonzero"/></g></g></g></g></g></g><g clip-path="url(#165bb23c32)"><g clip-path="url(#a1bd7f291e)"><g transform="matrix(1, 0, 0, 1, 707, 437)"><g clip-path="url(#a425fd321d)"><g clip-path="url(#7b00f93f70)"><g clip-path="url(#3d3bdcb0bf)"><path fill="#17a2b8" d="M 0.355469 0.570312 L 173.027344 0.570312 L 173.027344 113.917969 L 0.355469 113.917969 Z M 0.355469 0.570312 " fill-opacity="1" fill-rule="nonzero"/></g></g></g></g></g></g><g clip-path="url(#610f03596b)"><g clip-path="url(#0baa8c1ead)"><g transform="matrix(1, 0, 0, 1, 537, 490)"><g clip-path="url(#cc6204a46d)"><g clip-path="url(#2b75f24d7d)"><g clip-path="url(#afb36962c3)"><path fill="#17a2b8" d="M 0.695312 0.964844 L 173.46875 0.964844 L 173.46875 85.859375 L 0.695312 85.859375 Z M 0.695312 0.964844 " fill-opacity="1" fill-rule="nonzero"/></g></g></g></g></g></g><g clip-path="url(#9358e7f236)"><g clip-path="url(#e87d96218a)"><g transform="matrix(1, 0, 0, 1, 880, 490)"><g clip-path="url(#6551e4a665)"><g clip-path="url(#90319e68ca)"><g clip-path="url(#443f434e30)"><path fill="#17a2b8" d="M 0.0703125 0.964844 L 172.84375 0.964844 L 172.84375 85.859375 L 0.0703125 85.859375 Z M 0.0703125 0.964844 " fill-opacity="1" fill-rule="nonzero"/></g></g></g></g></g></g><g fill="#1c3144" fill-opacity="1"><g transform="translate(199.250409, 234.176367)"><g><path d="M 48.234375 1.15625 C 40.503906 1.15625 33.375 -0.640625 26.84375 -4.234375 C 20.3125 -7.828125 15.113281 -12.945312 11.25 -19.59375 C 7.382812 -26.238281 5.453125 -33.96875 5.453125 -42.78125 C 5.453125 -51.664062 7.382812 -59.410156 11.25 -66.015625 C 15.113281 -72.628906 20.3125 -77.710938 26.84375 -81.265625 C 33.375 -84.828125 40.503906 -86.609375 48.234375 -86.609375 C 55.960938 -86.609375 63.09375 -84.828125 69.625 -81.265625 C 76.15625 -77.710938 81.351562 -72.628906 85.21875 -66.015625 C 89.082031 -59.410156 91.015625 -51.664062 91.015625 -42.78125 C 91.015625 -33.96875 89.082031 -26.238281 85.21875 -19.59375 C 81.351562 -12.945312 76.15625 -7.828125 69.625 -4.234375 C 63.09375 -0.640625 55.960938 1.15625 48.234375 1.15625 Z M 48.234375 -10.546875 C 53.566406 -10.546875 58.4375 -11.800781 62.84375 -14.3125 C 67.25 -16.832031 70.742188 -20.503906 73.328125 -25.328125 C 75.921875 -30.160156 77.21875 -35.941406 77.21875 -42.671875 C 77.21875 -49.472656 75.921875 -55.285156 73.328125 -60.109375 C 70.742188 -64.941406 67.265625 -68.59375 62.890625 -71.0625 C 58.523438 -73.539062 53.640625 -74.78125 48.234375 -74.78125 C 42.816406 -74.78125 37.90625 -73.539062 33.5 -71.0625 C 29.09375 -68.59375 25.613281 -64.941406 23.0625 -60.109375 C 20.519531 -55.285156 19.25 -49.472656 19.25 -42.671875 C 19.25 -35.941406 20.5625 -30.160156 23.1875 -25.328125 C 25.8125 -20.503906 29.347656 -16.832031 33.796875 -14.3125 C 38.242188 -11.800781 43.054688 -10.546875 48.234375 -10.546875 Z M 48.234375 -10.546875 "/></g></g></g><g fill="#1c3144" fill-opacity="1"><g transform="translate(295.70878, 234.176367)"><g><path d="M 26.671875 1.15625 C 19.328125 1.15625 14.28125 -1.003906 11.53125 -5.328125 C 8.789062 -9.660156 7.421875 -15.691406 7.421875 -23.421875 L 7.421875 -53.21875 L 19.9375 -53.21875 L 19.9375 -26.546875 C 19.9375 -22.140625 20.1875 -18.71875 20.6875 -16.28125 C 21.195312 -13.851562 22.203125 -12.054688 23.703125 -10.890625 C 25.210938 -9.734375 27.472656 -9.15625 30.484375 -9.15625 C 32.648438 -9.15625 34.738281 -9.773438 36.75 -11.015625 C 38.757812 -12.253906 40.398438 -13.9375 41.671875 -16.0625 C 42.953125 -18.1875 43.59375 -20.523438 43.59375 -23.078125 L 43.59375 -53.21875 L 56 -53.21875 L 56 0 L 45.796875 0 L 44.40625 -7.765625 C 42.46875 -4.753906 40.050781 -2.515625 37.15625 -1.046875 C 34.257812 0.421875 30.765625 1.15625 26.671875 1.15625 Z M 26.671875 1.15625 "/></g></g></g><g fill="#1c3144" fill-opacity="1"><g transform="translate(360.168942, 234.176367)"><g><path d="M 12.875 -43.015625 L 3.484375 -43.015625 L 3.484375 -53.21875 L 12.875 -53.21875 L 12.875 -74.890625 L 25.5 -77.671875 L 25.5 -53.21875 L 37.796875 -53.21875 L 37.796875 -43.015625 L 25.5 -43.015625 L 25.5 0 L 12.875 0 Z M 12.875 -43.015625 "/></g></g></g><g fill="#1c3144" fill-opacity="1"><g transform="translate(399.934837, 234.176367)"><g><path d="M 48.234375 1.15625 C 40.503906 1.15625 33.375 -0.640625 26.84375 -4.234375 C 20.3125 -7.828125 15.113281 -12.945312 11.25 -19.59375 C 7.382812 -26.238281 5.453125 -33.96875 5.453125 -42.78125 C 5.453125 -51.664062 7.382812 -59.410156 11.25 -66.015625 C 15.113281 -72.628906 20.3125 -77.710938 26.84375 -81.265625 C 33.375 -84.828125 40.503906 -86.609375 48.234375 -86.609375 C 55.960938 -86.609375 63.09375 -84.828125 69.625 -81.265625 C 76.15625 -77.710938 81.351562 -72.628906 85.21875 -66.015625 C 89.082031 -59.410156 91.015625 -51.664062 91.015625 -42.78125 C 91.015625 -33.96875 89.082031 -26.238281 85.21875 -19.59375 C 81.351562 -12.945312 76.15625 -7.828125 69.625 -4.234375 C 63.09375 -0.640625 55.960938 1.15625 48.234375 1.15625 Z M 48.234375 -10.546875 C 53.566406 -10.546875 58.4375 -11.800781 62.84375 -14.3125 C 67.25 -16.832031 70.742188 -20.503906 73.328125 -25.328125 C 75.921875 -30.160156 77.21875 -35.941406 77.21875 -42.671875 C 77.21875 -49.472656 75.921875 -55.285156 73.328125 -60.109375 C 70.742188 -64.941406 67.265625 -68.59375 62.890625 -71.0625 C 58.523438 -73.539062 53.640625 -74.78125 48.234375 -74.78125 C 42.816406 -74.78125 37.90625 -73.539062 33.5 -71.0625 C 29.09375 -68.59375 25.613281 -64.941406 23.0625 -60.109375 C 20.519531 -55.285156 19.25 -49.472656 19.25 -42.671875 C 19.25 -35.941406 20.5625 -30.160156 23.1875 -25.328125 C 25.8125 -20.503906 29.347656 -16.832031 33.796875 -14.3125 C 38.242188 -11.800781 43.054688 -10.546875 48.234375 -10.546875 Z M 48.234375 -10.546875 "/></g></g></g><g fill="#17a2b8" fill-opacity="1"><g transform="translate(496.398341, 234.176367)"><g><path d="M 13.21875 -43.25 L 4.640625 -43.25 L 4.640625 -53.21875 L 13.21875 -53.21875 L 13.21875 -64.6875 C 13.21875 -71.644531 14.894531 -77.035156 18.25 -80.859375 C 21.613281 -84.691406 26.546875 -86.609375 33.046875 -86.609375 C 35.671875 -86.609375 38.644531 -85.875 41.96875 -84.40625 L 39.53125 -72.578125 C 38.988281 -73.191406 38.15625 -73.789062 37.03125 -74.375 C 35.914062 -74.957031 34.703125 -75.25 33.390625 -75.25 C 28.210938 -75.25 25.582031 -71.882812 25.5 -65.15625 L 25.5 -53.21875 L 38.03125 -53.21875 L 38.03125 -43.25 L 25.5 -43.25 L 25.5 0 L 13.21875 0 Z M 13.21875 -43.25 "/></g></g></g><g fill="#17a2b8" fill-opacity="1"><g transform="translate(538.367008, 234.176367)"><g><path d="M 8.921875 -85.21875 L 48.921875 -85.21875 L 48.921875 -73.96875 L 21.796875 -73.96875 L 21.796875 -49.859375 L 42.890625 -49.859375 L 42.890625 -38.484375 L 21.796875 -38.484375 L 21.796875 0 L 8.921875 0 Z M 8.921875 -85.21875 "/></g></g></g><g fill="#17a2b8" fill-opacity="1"><g transform="translate(587.871364, 234.176367)"><g><path d="M 33.046875 1.15625 C 27.554688 1.15625 22.6875 -0.078125 18.4375 -2.546875 C 14.1875 -5.023438 10.898438 -8.390625 8.578125 -12.640625 C 6.253906 -16.890625 5.09375 -21.601562 5.09375 -26.78125 C 5.09375 -31.882812 6.234375 -36.5625 8.515625 -40.8125 C 10.796875 -45.0625 14.0625 -48.421875 18.3125 -50.890625 C 22.5625 -53.367188 27.472656 -54.609375 33.046875 -54.609375 C 38.609375 -54.609375 43.492188 -53.367188 47.703125 -50.890625 C 51.921875 -48.421875 55.164062 -45.0625 57.4375 -40.8125 C 59.71875 -36.5625 60.859375 -31.882812 60.859375 -26.78125 C 60.859375 -21.601562 59.695312 -16.890625 57.375 -12.640625 C 55.0625 -8.390625 51.800781 -5.023438 47.59375 -2.546875 C 43.382812 -0.078125 38.535156 1.15625 33.046875 1.15625 Z M 33.390625 -9.046875 C 37.867188 -9.046875 41.398438 -10.707031 43.984375 -14.03125 C 46.578125 -17.351562 47.875 -21.523438 47.875 -26.546875 C 47.875 -31.566406 46.484375 -35.796875 43.703125 -39.234375 C 40.921875 -42.679688 37.25 -44.40625 32.6875 -44.40625 C 28.28125 -44.40625 24.742188 -42.703125 22.078125 -39.296875 C 19.421875 -35.898438 18.09375 -31.648438 18.09375 -26.546875 C 18.09375 -21.597656 19.519531 -17.441406 22.375 -14.078125 C 25.238281 -10.722656 28.910156 -9.046875 33.390625 -9.046875 Z M 33.390625 -9.046875 "/></g></g></g><g fill="#17a2b8" fill-opacity="1"><g transform="translate(653.838686, 234.176367)"><g><path d="M 33.046875 1.15625 C 27.785156 1.15625 23.046875 0.015625 18.828125 -2.265625 C 14.617188 -4.546875 11.273438 -7.828125 8.796875 -12.109375 C 6.328125 -16.398438 5.09375 -21.445312 5.09375 -27.25 C 5.09375 -32.738281 6.234375 -37.546875 8.515625 -41.671875 C 10.796875 -45.804688 14.003906 -48.992188 18.140625 -51.234375 C 22.273438 -53.484375 27.050781 -54.609375 32.46875 -54.609375 C 36.5625 -54.609375 40.09375 -54.082031 43.0625 -53.03125 C 46.039062 -51.988281 48.378906 -50.695312 50.078125 -49.15625 L 44.515625 -39.078125 C 41.273438 -42.316406 37.601562 -43.9375 33.5 -43.9375 C 28.550781 -43.9375 24.78125 -42.425781 22.1875 -39.40625 C 19.601562 -36.394531 18.3125 -32.378906 18.3125 -27.359375 C 18.3125 -21.640625 19.644531 -17.195312 22.3125 -14.03125 C 24.976562 -10.863281 28.707031 -9.28125 33.5 -9.28125 C 35.894531 -9.28125 38.234375 -9.625 40.515625 -10.3125 C 42.796875 -11.007812 44.554688 -11.820312 45.796875 -12.75 L 50.3125 -3.9375 C 48.613281 -2.625 46.238281 -1.445312 43.1875 -0.40625 C 40.132812 0.632812 36.753906 1.15625 33.046875 1.15625 Z M 33.046875 1.15625 "/></g></g></g><g fill="#17a2b8" fill-opacity="1"><g transform="translate(707.864662, 234.176367)"><g><path d="M 26.671875 1.15625 C 19.328125 1.15625 14.28125 -1.003906 11.53125 -5.328125 C 8.789062 -9.660156 7.421875 -15.691406 7.421875 -23.421875 L 7.421875 -53.21875 L 19.9375 -53.21875 L 19.9375 -26.546875 C 19.9375 -22.140625 20.1875 -18.71875 20.6875 -16.28125 C 21.195312 -13.851562 22.203125 -12.054688 23.703125 -10.890625 C 25.210938 -9.734375 27.472656 -9.15625 30.484375 -9.15625 C 32.648438 -9.15625 34.738281 -9.773438 36.75 -11.015625 C 38.757812 -12.253906 40.398438 -13.9375 41.671875 -16.0625 C 42.953125 -18.1875 43.59375 -20.523438 43.59375 -23.078125 L 43.59375 -53.21875 L 56 -53.21875 L 56 0 L 45.796875 0 L 44.40625 -7.765625 C 42.46875 -4.753906 40.050781 -2.515625 37.15625 -1.046875 C 34.257812 0.421875 30.765625 1.15625 26.671875 1.15625 Z M 26.671875 1.15625 "/></g></g></g><g fill="#17a2b8" fill-opacity="1"><g transform="translate(772.324823, 234.176367)"><g><path d="M 26.546875 1.15625 C 22.835938 1.15625 18.992188 0.675781 15.015625 -0.28125 C 11.035156 -1.25 8.195312 -2.390625 6.5 -3.703125 L 10.671875 -13.5625 C 15.304688 -10.3125 20.597656 -8.6875 26.546875 -8.6875 C 32.503906 -8.6875 35.484375 -10.425781 35.484375 -13.90625 C 35.484375 -15.457031 34.863281 -16.65625 33.625 -17.5 C 32.382812 -18.351562 30.179688 -19.359375 27.015625 -20.515625 L 22.609375 -22.140625 C 17.972656 -23.992188 14.300781 -26.210938 11.59375 -28.796875 C 8.882812 -31.390625 7.53125 -34.816406 7.53125 -39.078125 C 7.53125 -43.941406 9.441406 -47.742188 13.265625 -50.484375 C 17.097656 -53.234375 22.222656 -54.609375 28.640625 -54.609375 C 31.804688 -54.609375 34.914062 -54.257812 37.96875 -53.5625 C 41.019531 -52.863281 43.359375 -51.972656 44.984375 -50.890625 L 40.46875 -40.921875 C 39.457031 -41.929688 37.847656 -42.800781 35.640625 -43.53125 C 33.441406 -44.269531 30.988281 -44.640625 28.28125 -44.640625 C 22.800781 -44.640625 20.0625 -42.976562 20.0625 -39.65625 C 20.0625 -37.800781 20.796875 -36.390625 22.265625 -35.421875 C 23.734375 -34.453125 26.128906 -33.390625 29.453125 -32.234375 C 29.753906 -32.148438 30.953125 -31.722656 33.046875 -30.953125 C 37.992188 -29.023438 41.664062 -26.820312 44.0625 -24.34375 C 46.457031 -21.875 47.65625 -18.707031 47.65625 -14.84375 C 47.65625 -9.582031 45.660156 -5.597656 41.671875 -2.890625 C 37.691406 -0.191406 32.648438 1.15625 26.546875 1.15625 Z M 26.546875 1.15625 "/></g></g></g><g fill="#17a2b8" fill-opacity="1"><g transform="translate(806.992842, 309.139779)"><g><path d="M 12.6875 0.375 C 11.300781 0.375 10.0625 0.0351562 8.96875 -0.640625 C 7.875 -1.328125 7.113281 -2.113281 6.6875 -3 L 6.625 0 L 2.78125 0 L 2.78125 -27.1875 L 6.6875 -27.1875 L 6.6875 -16.71875 L 6.515625 -13.828125 C 6.929688 -14.816406 7.75 -15.660156 8.96875 -16.359375 C 10.1875 -17.066406 11.507812 -17.421875 12.9375 -17.421875 C 14.613281 -17.421875 16.070312 -17.039062 17.3125 -16.28125 C 18.5625 -15.53125 19.519531 -14.484375 20.1875 -13.140625 C 20.851562 -11.796875 21.1875 -10.238281 21.1875 -8.46875 C 21.1875 -6.664062 20.796875 -5.097656 20.015625 -3.765625 C 19.242188 -2.441406 18.210938 -1.421875 16.921875 -0.703125 C 15.628906 0.015625 14.21875 0.375 12.6875 0.375 Z M 12.015625 -2.953125 C 13.617188 -2.953125 14.851562 -3.460938 15.71875 -4.484375 C 16.582031 -5.515625 17.015625 -6.84375 17.015625 -8.46875 C 17.015625 -10.125 16.585938 -11.460938 15.734375 -12.484375 C 14.878906 -13.503906 13.640625 -14.015625 12.015625 -14.015625 C 10.609375 -14.015625 9.425781 -13.523438 8.46875 -12.546875 C 7.507812 -11.578125 7.03125 -10.304688 7.03125 -8.734375 L 7.03125 -8.46875 C 7.03125 -7.40625 7.253906 -6.453125 7.703125 -5.609375 C 8.160156 -4.773438 8.765625 -4.125 9.515625 -3.65625 C 10.273438 -3.1875 11.109375 -2.953125 12.015625 -2.953125 Z M 12.015625 -2.953125 "/></g></g></g><g fill="#17a2b8" fill-opacity="1"><g transform="translate(829.808275, 309.139779)"><g><path d="M 7.515625 0.515625 L 0.484375 -16.96875 L 5 -16.96875 L 8.625 -6.171875 L 9.4375 -3.546875 L 10.25 -6.171875 L 14.046875 -16.96875 L 18.421875 -16.96875 L 7.984375 9.3125 L 3.84375 9.3125 Z M 7.515625 0.515625 "/></g></g></g><g fill="#17a2b8" fill-opacity="1"><g transform="translate(848.186356, 309.139779)"><g/></g></g><g fill="#17a2b8" fill-opacity="1"><g transform="translate(857.245975, 309.139779)"><g><path d="M 15.390625 0.375 C 12.921875 0.375 10.644531 -0.195312 8.5625 -1.34375 C 6.476562 -2.488281 4.816406 -4.125 3.578125 -6.25 C 2.347656 -8.375 1.734375 -10.835938 1.734375 -13.640625 C 1.734375 -16.484375 2.347656 -18.957031 3.578125 -21.0625 C 4.816406 -23.164062 6.476562 -24.785156 8.5625 -25.921875 C 10.644531 -27.054688 12.921875 -27.625 15.390625 -27.625 C 17.847656 -27.625 20.117188 -27.054688 22.203125 -25.921875 C 24.285156 -24.785156 25.941406 -23.164062 27.171875 -21.0625 C 28.410156 -18.957031 29.03125 -16.484375 29.03125 -13.640625 C 29.03125 -10.835938 28.410156 -8.375 27.171875 -6.25 C 25.941406 -4.125 24.285156 -2.488281 22.203125 -1.34375 C 20.117188 -0.195312 17.847656 0.375 15.390625 0.375 Z M 15.390625 -3.359375 C 17.085938 -3.359375 18.640625 -3.757812 20.046875 -4.5625 C 21.453125 -5.363281 22.566406 -6.535156 23.390625 -8.078125 C 24.210938 -9.617188 24.625 -11.460938 24.625 -13.609375 C 24.625 -15.773438 24.210938 -17.628906 23.390625 -19.171875 C 22.566406 -20.710938 21.457031 -21.878906 20.0625 -22.671875 C 18.664062 -23.460938 17.109375 -23.859375 15.390625 -23.859375 C 13.660156 -23.859375 12.09375 -23.460938 10.6875 -22.671875 C 9.28125 -21.878906 8.171875 -20.710938 7.359375 -19.171875 C 6.546875 -17.628906 6.140625 -15.773438 6.140625 -13.609375 C 6.140625 -11.460938 6.554688 -9.617188 7.390625 -8.078125 C 8.234375 -6.535156 9.363281 -5.363281 10.78125 -4.5625 C 12.195312 -3.757812 13.734375 -3.359375 15.390625 -3.359375 Z M 15.390625 -3.359375 "/></g></g></g><g fill="#17a2b8" fill-opacity="1"><g transform="translate(888.011686, 309.139779)"><g><path d="M 2.703125 -16.96875 L 6.546875 -16.96875 L 6.546875 -13.828125 C 7.898438 -16.222656 10.019531 -17.421875 12.90625 -17.421875 C 15.300781 -17.421875 17.238281 -16.660156 18.71875 -15.140625 C 20.195312 -13.628906 20.9375 -11.441406 20.9375 -8.578125 C 20.9375 -6.804688 20.570312 -5.238281 19.84375 -3.875 C 19.113281 -2.519531 18.125 -1.472656 16.875 -0.734375 C 15.632812 0.00390625 14.25 0.375 12.71875 0.375 C 11.289062 0.375 10.050781 0.125 9 -0.375 C 7.957031 -0.882812 7.140625 -1.609375 6.546875 -2.546875 L 6.578125 8.984375 L 2.703125 8.984375 Z M 11.796875 -3 C 13.398438 -3 14.632812 -3.507812 15.5 -4.53125 C 16.363281 -5.550781 16.796875 -6.863281 16.796875 -8.46875 C 16.796875 -10.144531 16.367188 -11.484375 15.515625 -12.484375 C 14.660156 -13.484375 13.421875 -13.984375 11.796875 -13.984375 C 10.910156 -13.984375 10.078125 -13.765625 9.296875 -13.328125 C 8.523438 -12.898438 7.910156 -12.285156 7.453125 -11.484375 C 6.992188 -10.679688 6.765625 -9.75 6.765625 -8.6875 L 6.765625 -8.4375 C 6.765625 -7.375 6.992188 -6.425781 7.453125 -5.59375 C 7.910156 -4.769531 8.519531 -4.128906 9.28125 -3.671875 C 10.039062 -3.222656 10.878906 -3 11.796875 -3 Z M 11.796875 -3 "/></g></g></g><g fill="#17a2b8" fill-opacity="1"><g transform="translate(910.568277, 309.139779)"><g><path d="M 2.8125 -27.1875 L 6.6875 -27.1875 L 6.6875 -16.96875 L 6.546875 -13.828125 C 7.015625 -14.867188 7.765625 -15.726562 8.796875 -16.40625 C 9.835938 -17.082031 11.046875 -17.421875 12.421875 -17.421875 C 14.171875 -17.421875 15.515625 -17.054688 16.453125 -16.328125 C 17.390625 -15.597656 18.019531 -14.578125 18.34375 -13.265625 C 18.664062 -11.960938 18.828125 -10.265625 18.828125 -8.171875 L 18.828125 0 L 14.875 0 L 14.875 -8.203125 C 14.875 -9.640625 14.789062 -10.765625 14.625 -11.578125 C 14.46875 -12.390625 14.144531 -13.003906 13.65625 -13.421875 C 13.175781 -13.835938 12.484375 -14.046875 11.578125 -14.046875 C 10.835938 -14.046875 10.085938 -13.820312 9.328125 -13.375 C 8.578125 -12.9375 7.957031 -12.289062 7.46875 -11.4375 C 6.976562 -10.59375 6.734375 -9.59375 6.734375 -8.4375 L 6.734375 0 L 2.8125 0 Z M 2.8125 -27.1875 "/></g></g></g><g fill="#17a2b8" fill-opacity="1"><g transform="translate(931.830634, 309.139779)"><g><path d="M 10.65625 0.375 C 8.632812 0.375 6.941406 -0.0234375 5.578125 -0.828125 C 4.222656 -1.628906 3.222656 -2.703125 2.578125 -4.046875 C 1.941406 -5.390625 1.625 -6.863281 1.625 -8.46875 C 1.625 -10.269531 2 -11.847656 2.75 -13.203125 C 3.507812 -14.554688 4.550781 -15.597656 5.875 -16.328125 C 7.207031 -17.054688 8.710938 -17.421875 10.390625 -17.421875 C 13.003906 -17.421875 14.945312 -16.695312 16.21875 -15.25 C 17.488281 -13.8125 18.125 -11.785156 18.125 -9.171875 C 18.125 -8.503906 18.085938 -7.8125 18.015625 -7.09375 L 5.8125 -7.09375 C 6.082031 -5.59375 6.617188 -4.507812 7.421875 -3.84375 C 8.222656 -3.175781 9.335938 -2.84375 10.765625 -2.84375 C 11.941406 -2.84375 12.910156 -2.941406 13.671875 -3.140625 C 14.441406 -3.335938 15.148438 -3.609375 15.796875 -3.953125 L 17.015625 -1.109375 C 16.398438 -0.710938 15.5625 -0.363281 14.5 -0.0625 C 13.4375 0.226562 12.15625 0.375 10.65625 0.375 Z M 14.234375 -9.875 C 14.265625 -11.40625 13.929688 -12.484375 13.234375 -13.109375 C 12.546875 -13.734375 11.5625 -14.046875 10.28125 -14.046875 C 7.6875 -14.046875 6.195312 -12.65625 5.8125 -9.875 Z M 7.53125 -21.671875 L 13.203125 -30.140625 L 16.703125 -27.890625 L 10.234375 -20.15625 Z M 7.53125 -21.671875 "/></g></g></g><g fill="#17a2b8" fill-opacity="1"><g transform="translate(951.508243, 309.139779)"><g/></g></g><g fill="#17a2b8" fill-opacity="1"><g transform="translate(960.567863, 309.139779)"><g/></g></g><g fill="#17a2b8" fill-opacity="1"><g transform="translate(969.627482, 309.139779)"><g/></g></g><g fill="#17a2b8" fill-opacity="1"><g transform="translate(978.687101, 309.139779)"><g/></g></g><g fill="#17a2b8" fill-opacity="1"><g transform="translate(987.746721, 309.139779)"><g/></g></g><g fill="#17a2b8" fill-opacity="1"><g transform="translate(996.80634, 309.139779)"><g/></g></g><g fill="#17a2b8" fill-opacity="1"><g transform="translate(1005.865959, 309.139779)"><g/></g></g><g fill="#000000" fill-opacity="1"><g transform="translate(1014.934314, 309.139779)"><g/></g></g><path stroke-linecap="butt" transform="matrix(0.749634, 0, 0, 0.749634, 267.151648, 286.50074)" fill="none" stroke-linejoin="miter" d="M 0.000927872 1.999989 L 309.625936 1.999989 " stroke="#1c3144" stroke-width="4" stroke-opacity="1" stroke-miterlimit="4"/><path stroke-linecap="butt" transform="matrix(0.749634, 0, 0, 0.749634, 499.256321, 286.50074)" fill="none" stroke-linejoin="miter" d="M 0.00199009 1.999989 L 309.960494 1.999989 " stroke="#17a2b8" stroke-width="4" stroke-opacity="1" stroke-miterlimit="4"/></svg>