<svg xmlns="http://www.w3.org/2000/svg" xmlns:xlink="http://www.w3.org/1999/xlink" width="1366" zoomAndPan="magnify" viewBox="0 0 1024.5 576" height="768" preserveAspectRatio="xMidYMid meet" version="1.0"><defs><g/><clipPath id="711d774ea9"><path d="M 0 0.140625 L 1024 0.140625 L 1024 575.859375 L 0 575.859375 Z M 0 0.140625 " clip-rule="nonzero"/></clipPath><clipPath id="2a6f4b1067"><path d="M 0 445 L 185 445 L 185 575.859375 L 0 575.859375 Z M 0 445 " clip-rule="nonzero"/></clipPath><clipPath id="acf72a09ee"><path d="M -40.507812 511.460938 L 119.320312 445.992188 L 184.785156 605.820312 L 24.960938 671.289062 Z M -40.507812 511.460938 " clip-rule="nonzero"/></clipPath><clipPath id="a8b9082c47"><path d="M 0 0.84375 L 184.949219 0.84375 L 184.949219 130.859375 L 0 130.859375 Z M 0 0.84375 " clip-rule="nonzero"/></clipPath><clipPath id="0c05bb585b"><path d="M -40.507812 66.460938 L 119.320312 0.992188 L 184.785156 160.820312 L 24.960938 226.289062 Z M -40.507812 66.460938 " clip-rule="nonzero"/></clipPath><clipPath id="6989147c35"><rect x="0" width="185" y="0" height="131"/></clipPath><clipPath id="fc98169aeb"><path d="M 0 378 L 79 378 L 79 459 L 0 459 Z M 0 378 " clip-rule="nonzero"/></clipPath><clipPath id="43d77b7c5d"><path d="M 0 401.046875 L 54.730469 378.628906 L 78.324219 436.226562 L 23.59375 458.648438 Z M 0 401.046875 " clip-rule="nonzero"/></clipPath><clipPath id="b4f273570d"><path d="M 0 0.4375 L 78.441406 0.4375 L 78.441406 80.796875 L 0 80.796875 Z M 0 0.4375 " clip-rule="nonzero"/></clipPath><clipPath id="50a8f1c47e"><path d="M 0 23.046875 L 54.730469 0.628906 L 78.324219 58.226562 L 23.59375 80.648438 Z M 0 23.046875 " clip-rule="nonzero"/></clipPath><clipPath id="5c88b3d329"><rect x="0" width="79" y="0" height="81"/></clipPath><clipPath id="0751cfbfa8"><path d="M 241 535 L 320 535 L 320 575.859375 L 241 575.859375 Z M 241 535 " clip-rule="nonzero"/></clipPath><clipPath id="2be8148486"><path d="M 241.457031 558.265625 L 296.1875 535.847656 L 319.78125 593.449219 L 265.050781 615.867188 Z M 241.457031 558.265625 " clip-rule="nonzero"/></clipPath><clipPath id="ff352345b6"><path d="M 0.320312 0.800781 L 79 0.800781 L 79 40.859375 L 0.320312 40.859375 Z M 0.320312 0.800781 " clip-rule="nonzero"/></clipPath><clipPath id="b7eb39d1c0"><path d="M 0.457031 23.265625 L 55.1875 0.847656 L 78.78125 58.449219 L 24.050781 80.867188 Z M 0.457031 23.265625 " clip-rule="nonzero"/></clipPath><clipPath id="b57f341901"><rect x="0" width="79" y="0" height="41"/></clipPath><clipPath id="06b5aa2b77"><path d="M 267 476 L 309 476 L 309 519 L 267 519 Z M 267 476 " clip-rule="nonzero"/></clipPath><clipPath id="9b5bf76bfa"><path d="M 267.152344 487.882812 L 295.84375 476.132812 L 308.296875 506.535156 L 279.605469 518.285156 Z M 267.152344 487.882812 " clip-rule="nonzero"/></clipPath><clipPath id="a6891d33c0"><path d="M 0 0.0664062 L 41.488281 0.0664062 L 41.488281 42.289062 L 0 42.289062 Z M 0 0.0664062 " clip-rule="nonzero"/></clipPath><clipPath id="4612f39f30"><path d="M 0.152344 11.882812 L 28.84375 0.132812 L 41.296875 30.535156 L 12.605469 42.285156 Z M 0.152344 11.882812 " clip-rule="nonzero"/></clipPath><clipPath id="278c17faca"><rect x="0" width="42" y="0" height="43"/></clipPath><clipPath id="e796bfedbd"><path d="M 164 512 L 268 512 L 268 575.859375 L 164 575.859375 Z M 164 512 " clip-rule="nonzero"/></clipPath><clipPath id="dc554399c7"><path d="M 170.175781 512.429688 L 267.152344 518.484375 L 261.757812 604.855469 L 164.785156 598.800781 Z M 170.175781 512.429688 " clip-rule="nonzero"/></clipPath><clipPath id="d5aa79f5a3"><path d="M 0.558594 0.289062 L 103.230469 0.289062 L 103.230469 63.859375 L 0.558594 63.859375 Z M 0.558594 0.289062 " clip-rule="nonzero"/></clipPath><clipPath id="45163fdc4c"><path d="M 6.175781 0.429688 L 103.152344 6.484375 L 97.757812 92.855469 L 0.785156 86.800781 Z M 6.175781 0.429688 " clip-rule="nonzero"/></clipPath><clipPath id="4157dc5b64"><rect x="0" width="104" y="0" height="64"/></clipPath><clipPath id="6da8cb224e"><path d="M 129 390 L 216 390 L 216 477 L 129 477 Z M 129 390 " clip-rule="nonzero"/></clipPath><clipPath id="a31c2dd322"><path d="M 129.820312 432.117188 L 171.644531 390.296875 L 215.65625 434.308594 L 173.835938 476.132812 Z M 129.820312 432.117188 " clip-rule="nonzero"/></clipPath><clipPath id="2c01cb04a5"><path d="M 0.777344 0.191406 L 86.894531 0.191406 L 86.894531 86.308594 L 0.777344 86.308594 Z M 0.777344 0.191406 " clip-rule="nonzero"/></clipPath><clipPath id="057a116982"><path d="M 0.820312 42.117188 L 42.644531 0.296875 L 86.65625 44.308594 L 44.835938 86.132812 Z M 0.820312 42.117188 " clip-rule="nonzero"/></clipPath><clipPath id="b560d4e02b"><rect x="0" width="87" y="0" height="87"/></clipPath><clipPath id="f11623f2ee"><path d="M 239 416 L 281 416 L 281 459 L 239 459 Z M 239 416 " clip-rule="nonzero"/></clipPath><clipPath id="ba1e55dd62"><path d="M 239.476562 428.246094 L 268.167969 416.492188 L 280.621094 446.894531 L 251.929688 458.644531 Z M 239.476562 428.246094 " clip-rule="nonzero"/></clipPath><clipPath id="c7df20f6d3"><path d="M 0.402344 0.335938 L 41.664062 0.335938 L 41.664062 42.796875 L 0.402344 42.796875 Z M 0.402344 0.335938 " clip-rule="nonzero"/></clipPath><clipPath id="b7c55ffce3"><path d="M 0.476562 12.246094 L 29.167969 0.492188 L 41.621094 30.894531 L 12.929688 42.644531 Z M 0.476562 12.246094 " clip-rule="nonzero"/></clipPath><clipPath id="1c34f62e94"><rect x="0" width="42" y="0" height="43"/></clipPath><clipPath id="c3f0c7bb27"><path d="M 335 523 L 438 523 L 438 575.859375 L 335 575.859375 Z M 335 523 " clip-rule="nonzero"/></clipPath><clipPath id="f38d61a35a"><path d="M 340.699219 523.441406 L 437.675781 529.496094 L 432.28125 615.871094 L 335.308594 609.8125 Z M 340.699219 523.441406 " clip-rule="nonzero"/></clipPath><clipPath id="4f109f147b"><path d="M 0.117188 0.324219 L 102.785156 0.324219 L 102.785156 52.859375 L 0.117188 52.859375 Z M 0.117188 0.324219 " clip-rule="nonzero"/></clipPath><clipPath id="b1de979294"><path d="M 5.699219 0.441406 L 102.675781 6.496094 L 97.28125 92.871094 L 0.308594 86.8125 Z M 5.699219 0.441406 " clip-rule="nonzero"/></clipPath><clipPath id="5f6a731958"><rect x="0" width="103" y="0" height="53"/></clipPath><clipPath id="adb25e3996"><path d="M 707.355469 437.570312 L 880.472656 437.570312 L 880.472656 550.917969 L 707.355469 550.917969 Z M 707.355469 437.570312 " clip-rule="nonzero"/></clipPath><clipPath id="69646715e0"><path d="M 805.417969 437.570312 C 807.3125 437.570312 809.21875 437.570312 811.109375 437.570312 C 826.183594 439.464844 835.605469 445.765625 839.894531 456.078125 C 865.027344 454.703125 883.296875 474.199219 872.164062 493.335938 C 875.867188 497.355469 878.953125 501.855469 880.070312 507.890625 C 880.070312 509.621094 880.070312 511.347656 880.070312 513.074219 C 876.746094 528.441406 862.4375 538.824219 838.953125 536.027344 C 832.910156 543.917969 822.15625 551.816406 805.421875 550.832031 C 796.773438 550.316406 790.757812 547.316406 785.488281 543.671875 C 779.941406 546.699219 773.929688 549.078125 765.246094 549.105469 C 745.160156 549.148438 731.722656 537.476562 731.394531 521.46875 C 718.484375 517.722656 709.734375 510.730469 707.355469 498.769531 C 707.355469 497.039062 707.355469 495.308594 707.355469 493.585938 C 709.984375 481.730469 718.253906 474.285156 732.023438 471.128906 C 731.199219 451.132812 758.742188 438.636719 781.375 447.449219 C 786.761719 443.089844 794.382812 438.339844 805.417969 437.570312 Z M 805.417969 437.570312 " clip-rule="nonzero"/></clipPath><clipPath id="9b38a57123"><path d="M 0.355469 0.570312 L 173.472656 0.570312 L 173.472656 113.917969 L 0.355469 113.917969 Z M 0.355469 0.570312 " clip-rule="nonzero"/></clipPath><clipPath id="bdf23636d5"><path d="M 98.417969 0.570312 C 100.3125 0.570312 102.21875 0.570312 104.109375 0.570312 C 119.183594 2.464844 128.605469 8.765625 132.894531 19.078125 C 158.027344 17.703125 176.296875 37.199219 165.164062 56.335938 C 168.867188 60.355469 171.953125 64.855469 173.070312 70.890625 C 173.070312 72.621094 173.070312 74.347656 173.070312 76.074219 C 169.746094 91.441406 155.4375 101.824219 131.953125 99.027344 C 125.910156 106.917969 115.15625 114.816406 98.421875 113.832031 C 89.773438 113.316406 83.757812 110.316406 78.488281 106.671875 C 72.941406 109.699219 66.929688 112.078125 58.246094 112.105469 C 38.160156 112.148438 24.722656 100.476562 24.394531 84.46875 C 11.484375 80.722656 2.734375 73.730469 0.355469 61.769531 C 0.355469 60.039062 0.355469 58.308594 0.355469 56.585938 C 2.984375 44.730469 11.253906 37.285156 25.023438 34.128906 C 24.199219 14.132812 51.742188 1.636719 74.375 10.449219 C 79.761719 6.089844 87.382812 1.339844 98.417969 0.570312 Z M 98.417969 0.570312 " clip-rule="nonzero"/></clipPath><clipPath id="48295caa49"><rect x="0" width="174" y="0" height="114"/></clipPath><clipPath id="5651e783be"><path d="M 537.695312 490.964844 L 710.46875 490.964844 L 710.46875 575.859375 L 537.695312 575.859375 Z M 537.695312 490.964844 " clip-rule="nonzero"/></clipPath><clipPath id="17bed33cda"><path d="M 622.390625 490.964844 C 638.21875 490.964844 651.574219 499.851562 655.835938 512.023438 C 661.003906 510.238281 666.898438 510.152344 672.550781 512.183594 C 682.195312 515.652344 688.324219 524.265625 688.644531 533.414062 L 688.820312 533.414062 C 700.742188 533.414062 710.410156 542.914062 710.410156 554.636719 C 710.410156 566.359375 700.742188 575.859375 688.820312 575.859375 L 559.285156 575.859375 C 547.363281 575.859375 537.695312 566.359375 537.695312 554.636719 C 537.695312 541.496094 548.90625 533.414062 561.367188 533.414062 C 557.8125 521.546875 567.089844 509.746094 579.257812 508.296875 C 583.023438 507.847656 586.667969 508.363281 589.921875 509.625 C 595.011719 498.703125 607.625 490.964844 622.390625 490.964844 Z M 622.390625 490.964844 " clip-rule="nonzero"/></clipPath><clipPath id="fd7012032e"><path d="M 0.695312 0.964844 L 173.46875 0.964844 L 173.46875 85.859375 L 0.695312 85.859375 Z M 0.695312 0.964844 " clip-rule="nonzero"/></clipPath><clipPath id="7291f0f85b"><path d="M 85.390625 0.964844 C 101.21875 0.964844 114.574219 9.851562 118.835938 22.023438 C 124.003906 20.238281 129.898438 20.152344 135.550781 22.183594 C 145.195312 25.652344 151.324219 34.265625 151.644531 43.414062 L 151.820312 43.414062 C 163.742188 43.414062 173.410156 52.914062 173.410156 64.636719 C 173.410156 76.359375 163.742188 85.859375 151.820312 85.859375 L 22.285156 85.859375 C 10.363281 85.859375 0.695312 76.359375 0.695312 64.636719 C 0.695312 51.496094 11.90625 43.414062 24.367188 43.414062 C 20.8125 31.546875 30.089844 19.746094 42.257812 18.296875 C 46.023438 17.847656 49.667969 18.363281 52.921875 19.625 C 58.011719 8.703125 70.625 0.964844 85.390625 0.964844 Z M 85.390625 0.964844 " clip-rule="nonzero"/></clipPath><clipPath id="65d2b397a3"><rect x="0" width="174" y="0" height="86"/></clipPath><clipPath id="8202c1c1f1"><path d="M 880.070312 490.964844 L 1024 490.964844 L 1024 575.859375 L 880.070312 575.859375 Z M 880.070312 490.964844 " clip-rule="nonzero"/></clipPath><clipPath id="aaf45d010e"><path d="M 964.765625 490.964844 C 980.59375 490.964844 993.949219 499.851562 998.210938 512.023438 C 1003.378906 510.238281 1009.273438 510.152344 1014.925781 512.183594 C 1024.570312 515.652344 1030.699219 524.265625 1031.019531 533.414062 L 1031.195312 533.414062 C 1043.117188 533.414062 1052.785156 542.914062 1052.785156 554.636719 C 1052.785156 566.359375 1043.117188 575.859375 1031.195312 575.859375 L 901.660156 575.859375 C 889.738281 575.859375 880.070312 566.359375 880.070312 554.636719 C 880.070312 541.496094 891.28125 533.414062 903.742188 533.414062 C 900.1875 521.546875 909.464844 509.746094 921.632812 508.296875 C 925.398438 507.847656 929.042969 508.363281 932.296875 509.625 C 937.386719 498.703125 950 490.964844 964.765625 490.964844 Z M 964.765625 490.964844 " clip-rule="nonzero"/></clipPath><clipPath id="4fb6b2b035"><path d="M 0.0703125 0.964844 L 144 0.964844 L 144 85.859375 L 0.0703125 85.859375 Z M 0.0703125 0.964844 " clip-rule="nonzero"/></clipPath><clipPath id="83d34d4bd8"><path d="M 84.765625 0.964844 C 100.59375 0.964844 113.949219 9.851562 118.210938 22.023438 C 123.378906 20.238281 129.273438 20.152344 134.925781 22.183594 C 144.570312 25.652344 150.699219 34.265625 151.019531 43.414062 L 151.195312 43.414062 C 163.117188 43.414062 172.785156 52.914062 172.785156 64.636719 C 172.785156 76.359375 163.117188 85.859375 151.195312 85.859375 L 21.660156 85.859375 C 9.738281 85.859375 0.0703125 76.359375 0.0703125 64.636719 C 0.0703125 51.496094 11.28125 43.414062 23.742188 43.414062 C 20.1875 31.546875 29.464844 19.746094 41.632812 18.296875 C 45.398438 17.847656 49.042969 18.363281 52.296875 19.625 C 57.386719 8.703125 70 0.964844 84.765625 0.964844 Z M 84.765625 0.964844 " clip-rule="nonzero"/></clipPath><clipPath id="4358a0f6fc"><rect x="0" width="144" y="0" height="86"/></clipPath></defs><g clip-path="url(#711d774ea9)"><path fill="#ffffff" d="M 0 0.140625 L 1024 0.140625 L 1024 575.859375 L 0 575.859375 Z M 0 0.140625 " fill-opacity="1" fill-rule="nonzero"/><path fill="#f8f9fa" d="M 0 0.140625 L 1024 0.140625 L 1024 575.859375 L 0 575.859375 Z M 0 0.140625 " fill-opacity="1" fill-rule="nonzero"/></g><g clip-path="url(#2a6f4b1067)"><g clip-path="url(#acf72a09ee)"><g transform="matrix(1, 0, 0, 1, 0, 445)"><g clip-path="url(#6989147c35)"><g clip-path="url(#a8b9082c47)"><g clip-path="url(#0c05bb585b)"><path fill="#001f3f" d="M -40.507812 66.460938 L 119.320312 0.992188 L 184.785156 160.820312 L 24.960938 226.289062 Z M -40.507812 66.460938 " fill-opacity="1" fill-rule="nonzero"/></g></g></g></g></g></g><g clip-path="url(#fc98169aeb)"><g clip-path="url(#43d77b7c5d)"><g transform="matrix(1, 0, 0, 1, 0, 378)"><g clip-path="url(#5c88b3d329)"><g clip-path="url(#b4f273570d)"><g clip-path="url(#50a8f1c47e)"><path fill="#001f3f" d="M 0 23.046875 L 54.730469 0.628906 L 78.289062 58.140625 L 23.558594 80.558594 Z M 0 23.046875 " fill-opacity="1" fill-rule="nonzero"/></g></g></g></g></g></g><g clip-path="url(#0751cfbfa8)"><g clip-path="url(#2be8148486)"><g transform="matrix(1, 0, 0, 1, 241, 535)"><g clip-path="url(#b57f341901)"><g clip-path="url(#ff352345b6)"><g clip-path="url(#b7eb39d1c0)"><path fill="#001f3f" d="M 0.457031 23.265625 L 55.1875 0.847656 L 78.746094 58.359375 L 24.015625 80.777344 Z M 0.457031 23.265625 " fill-opacity="1" fill-rule="nonzero"/></g></g></g></g></g></g><g clip-path="url(#06b5aa2b77)"><g clip-path="url(#9b5bf76bfa)"><g transform="matrix(1, 0, 0, 1, 267, 476)"><g clip-path="url(#278c17faca)"><g clip-path="url(#a6891d33c0)"><g clip-path="url(#4612f39f30)"><path fill="#001f3f" d="M 0.152344 11.882812 L 28.84375 0.132812 L 41.285156 30.503906 L 12.59375 42.257812 Z M 0.152344 11.882812 " fill-opacity="1" fill-rule="nonzero"/></g></g></g></g></g></g><g clip-path="url(#e796bfedbd)"><g clip-path="url(#dc554399c7)"><g transform="matrix(1, 0, 0, 1, 164, 512)"><g clip-path="url(#4157dc5b64)"><g clip-path="url(#d5aa79f5a3)"><g clip-path="url(#45163fdc4c)"><path fill="#001f3f" d="M 6.175781 0.429688 L 103.007812 6.476562 L 97.613281 92.847656 L 0.785156 86.800781 Z M 6.175781 0.429688 " fill-opacity="1" fill-rule="nonzero"/></g></g></g></g></g></g><g clip-path="url(#6da8cb224e)"><g clip-path="url(#a31c2dd322)"><g transform="matrix(1, 0, 0, 1, 129, 390)"><g clip-path="url(#b560d4e02b)"><g clip-path="url(#2c01cb04a5)"><g clip-path="url(#057a116982)"><path fill="#001f3f" d="M 0.820312 42.117188 L 42.644531 0.296875 L 86.589844 44.242188 L 44.765625 86.066406 Z M 0.820312 42.117188 " fill-opacity="1" fill-rule="nonzero"/></g></g></g></g></g></g><g clip-path="url(#f11623f2ee)"><g clip-path="url(#ba1e55dd62)"><g transform="matrix(1, 0, 0, 1, 239, 416)"><g clip-path="url(#1c34f62e94)"><g clip-path="url(#c7df20f6d3)"><g clip-path="url(#b7c55ffce3)"><path fill="#001f3f" d="M 0.476562 12.246094 L 29.167969 0.492188 L 41.609375 30.863281 L 12.917969 42.617188 Z M 0.476562 12.246094 " fill-opacity="1" fill-rule="nonzero"/></g></g></g></g></g></g><g clip-path="url(#c3f0c7bb27)"><g clip-path="url(#f38d61a35a)"><g transform="matrix(1, 0, 0, 1, 335, 523)"><g clip-path="url(#5f6a731958)"><g clip-path="url(#4f109f147b)"><g clip-path="url(#b1de979294)"><path fill="#001f3f" d="M 5.699219 0.441406 L 102.53125 6.488281 L 97.136719 92.859375 L 0.308594 86.8125 Z M 5.699219 0.441406 " fill-opacity="1" fill-rule="nonzero"/></g></g></g></g></g></g><g clip-path="url(#adb25e3996)"><g clip-path="url(#69646715e0)"><g transform="matrix(1, 0, 0, 1, 707, 437)"><g clip-path="url(#48295caa49)"><g clip-path="url(#9b38a57123)"><g clip-path="url(#bdf23636d5)"><path fill="#17a2b8" d="M 0.355469 0.570312 L 173.027344 0.570312 L 173.027344 113.917969 L 0.355469 113.917969 Z M 0.355469 0.570312 " fill-opacity="1" fill-rule="nonzero"/></g></g></g></g></g></g><g clip-path="url(#5651e783be)"><g clip-path="url(#17bed33cda)"><g transform="matrix(1, 0, 0, 1, 537, 490)"><g clip-path="url(#65d2b397a3)"><g clip-path="url(#fd7012032e)"><g clip-path="url(#7291f0f85b)"><path fill="#17a2b8" d="M 0.695312 0.964844 L 173.46875 0.964844 L 173.46875 85.859375 L 0.695312 85.859375 Z M 0.695312 0.964844 " fill-opacity="1" fill-rule="nonzero"/></g></g></g></g></g></g><g clip-path="url(#8202c1c1f1)"><g clip-path="url(#aaf45d010e)"><g transform="matrix(1, 0, 0, 1, 880, 490)"><g clip-path="url(#4358a0f6fc)"><g clip-path="url(#4fb6b2b035)"><g clip-path="url(#83d34d4bd8)"><path fill="#17a2b8" d="M 0.0703125 0.964844 L 172.84375 0.964844 L 172.84375 85.859375 L 0.0703125 85.859375 Z M 0.0703125 0.964844 " fill-opacity="1" fill-rule="nonzero"/></g></g></g></g></g></g><g fill="#1c3144" fill-opacity="1"><g transform="translate(199.250409, 234.176367)"><g><path d="M 48.234375 1.15625 C 40.503906 1.15625 33.375 -0.640625 26.84375 -4.234375 C 20.3125 -7.828125 15.113281 -12.945312 11.25 -19.59375 C 7.382812 -26.238281 5.453125 -33.96875 5.453125 -42.78125 C 5.453125 -51.664062 7.382812 -59.410156 11.25 -66.015625 C 15.113281 -72.628906 20.3125 -77.710938 26.84375 -81.265625 C 33.375 -84.828125 40.503906 -86.609375 48.234375 -86.609375 C 55.960938 -86.609375 63.09375 -84.828125 69.625 -81.265625 C 76.15625 -77.710938 81.351562 -72.628906 85.21875 -66.015625 C 89.082031 -59.410156 91.015625 -51.664062 91.015625 -42.78125 C 91.015625 -33.96875 89.082031 -26.238281 85.21875 -19.59375 C 81.351562 -12.945312 76.15625 -7.828125 69.625 -4.234375 C 63.09375 -0.640625 55.960938 1.15625 48.234375 1.15625 Z M 48.234375 -10.546875 C 53.566406 -10.546875 58.4375 -11.800781 62.84375 -14.3125 C 67.25 -16.832031 70.742188 -20.503906 73.328125 -25.328125 C 75.921875 -30.160156 77.21875 -35.941406 77.21875 -42.671875 C 77.21875 -49.472656 75.921875 -55.285156 73.328125 -60.109375 C 70.742188 -64.941406 67.265625 -68.59375 62.890625 -71.0625 C 58.523438 -73.539062 53.640625 -74.78125 48.234375 -74.78125 C 42.816406 -74.78125 37.90625 -73.539062 33.5 -71.0625 C 29.09375 -68.59375 25.613281 -64.941406 23.0625 -60.109375 C 20.519531 -55.285156 19.25 -49.472656 19.25 -42.671875 C 19.25 -35.941406 20.5625 -30.160156 23.1875 -25.328125 C 25.8125 -20.503906 29.347656 -16.832031 33.796875 -14.3125 C 38.242188 -11.800781 43.054688 -10.546875 48.234375 -10.546875 Z M 48.234375 -10.546875 "/></g></g></g><g fill="#1c3144" fill-opacity="1"><g transform="translate(295.70878, 234.176367)"><g><path d="M 26.671875 1.15625 C 19.328125 1.15625 14.28125 -1.003906 11.53125 -5.328125 C 8.789062 -9.660156 7.421875 -15.691406 7.421875 -23.421875 L 7.421875 -53.21875 L 19.9375 -53.21875 L 19.9375 -26.546875 C 19.9375 -22.140625 20.1875 -18.71875 20.6875 -16.28125 C 21.195312 -13.851562 22.203125 -12.054688 23.703125 -10.890625 C 25.210938 -9.734375 27.472656 -9.15625 30.484375 -9.15625 C 32.648438 -9.15625 34.738281 -9.773438 36.75 -11.015625 C 38.757812 -12.253906 40.398438 -13.9375 41.671875 -16.0625 C 42.953125 -18.1875 43.59375 -20.523438 43.59375 -23.078125 L 43.59375 -53.21875 L 56 -53.21875 L 56 0 L 45.796875 0 L 44.40625 -7.765625 C 42.46875 -4.753906 40.050781 -2.515625 37.15625 -1.046875 C 34.257812 0.421875 30.765625 1.15625 26.671875 1.15625 Z M 26.671875 1.15625 "/></g></g></g><g fill="#1c3144" fill-opacity="1"><g transform="translate(360.168942, 234.176367)"><g><path d="M 12.875 -43.015625 L 3.484375 -43.015625 L 3.484375 -53.21875 L 12.875 -53.21875 L 12.875 -74.890625 L 25.5 -77.671875 L 25.5 -53.21875 L 37.796875 -53.21875 L 37.796875 -43.015625 L 25.5 -43.015625 L 25.5 0 L 12.875 0 Z M 12.875 -43.015625 "/></g></g></g><g fill="#1c3144" fill-opacity="1"><g transform="translate(399.934837, 234.176367)"><g><path d="M 48.234375 1.15625 C 40.503906 1.15625 33.375 -0.640625 26.84375 -4.234375 C 20.3125 -7.828125 15.113281 -12.945312 11.25 -19.59375 C 7.382812 -26.238281 5.453125 -33.96875 5.453125 -42.78125 C 5.453125 -51.664062 7.382812 -59.410156 11.25 -66.015625 C 15.113281 -72.628906 20.3125 -77.710938 26.84375 -81.265625 C 33.375 -84.828125 40.503906 -86.609375 48.234375 -86.609375 C 55.960938 -86.609375 63.09375 -84.828125 69.625 -81.265625 C 76.15625 -77.710938 81.351562 -72.628906 85.21875 -66.015625 C 89.082031 -59.410156 91.015625 -51.664062 91.015625 -42.78125 C 91.015625 -33.96875 89.082031 -26.238281 85.21875 -19.59375 C 81.351562 -12.945312 76.15625 -7.828125 69.625 -4.234375 C 63.09375 -0.640625 55.960938 1.15625 48.234375 1.15625 Z M 48.234375 -10.546875 C 53.566406 -10.546875 58.4375 -11.800781 62.84375 -14.3125 C 67.25 -16.832031 70.742188 -20.503906 73.328125 -25.328125 C 75.921875 -30.160156 77.21875 -35.941406 77.21875 -42.671875 C 77.21875 -49.472656 75.921875 -55.285156 73.328125 -60.109375 C 70.742188 -64.941406 67.265625 -68.59375 62.890625 -71.0625 C 58.523438 -73.539062 53.640625 -74.78125 48.234375 -74.78125 C 42.816406 -74.78125 37.90625 -73.539062 33.5 -71.0625 C 29.09375 -68.59375 25.613281 -64.941406 23.0625 -60.109375 C 20.519531 -55.285156 19.25 -49.472656 19.25 -42.671875 C 19.25 -35.941406 20.5625 -30.160156 23.1875 -25.328125 C 25.8125 -20.503906 29.347656 -16.832031 33.796875 -14.3125 C 38.242188 -11.800781 43.054688 -10.546875 48.234375 -10.546875 Z M 48.234375 -10.546875 "/></g></g></g><g fill="#17a2b8" fill-opacity="1"><g transform="translate(496.398341, 234.176367)"><g><path d="M 13.21875 -43.25 L 4.640625 -43.25 L 4.640625 -53.21875 L 13.21875 -53.21875 L 13.21875 -64.6875 C 13.21875 -71.644531 14.894531 -77.035156 18.25 -80.859375 C 21.613281 -84.691406 26.546875 -86.609375 33.046875 -86.609375 C 35.671875 -86.609375 38.644531 -85.875 41.96875 -84.40625 L 39.53125 -72.578125 C 38.988281 -73.191406 38.15625 -73.789062 37.03125 -74.375 C 35.914062 -74.957031 34.703125 -75.25 33.390625 -75.25 C 28.210938 -75.25 25.582031 -71.882812 25.5 -65.15625 L 25.5 -53.21875 L 38.03125 -53.21875 L 38.03125 -43.25 L 25.5 -43.25 L 25.5 0 L 13.21875 0 Z M 13.21875 -43.25 "/></g></g></g><g fill="#17a2b8" fill-opacity="1"><g transform="translate(538.367008, 234.176367)"><g><path d="M 8.921875 -85.21875 L 48.921875 -85.21875 L 48.921875 -73.96875 L 21.796875 -73.96875 L 21.796875 -49.859375 L 42.890625 -49.859375 L 42.890625 -38.484375 L 21.796875 -38.484375 L 21.796875 0 L 8.921875 0 Z M 8.921875 -85.21875 "/></g></g></g><g fill="#17a2b8" fill-opacity="1"><g transform="translate(587.871364, 234.176367)"><g><path d="M 33.046875 1.15625 C 27.554688 1.15625 22.6875 -0.078125 18.4375 -2.546875 C 14.1875 -5.023438 10.898438 -8.390625 8.578125 -12.640625 C 6.253906 -16.890625 5.09375 -21.601562 5.09375 -26.78125 C 5.09375 -31.882812 6.234375 -36.5625 8.515625 -40.8125 C 10.796875 -45.0625 14.0625 -48.421875 18.3125 -50.890625 C 22.5625 -53.367188 27.472656 -54.609375 33.046875 -54.609375 C 38.609375 -54.609375 43.492188 -53.367188 47.703125 -50.890625 C 51.921875 -48.421875 55.164062 -45.0625 57.4375 -40.8125 C 59.71875 -36.5625 60.859375 -31.882812 60.859375 -26.78125 C 60.859375 -21.601562 59.695312 -16.890625 57.375 -12.640625 C 55.0625 -8.390625 51.800781 -5.023438 47.59375 -2.546875 C 43.382812 -0.078125 38.535156 1.15625 33.046875 1.15625 Z M 33.390625 -9.046875 C 37.867188 -9.046875 41.398438 -10.707031 43.984375 -14.03125 C 46.578125 -17.351562 47.875 -21.523438 47.875 -26.546875 C 47.875 -31.566406 46.484375 -35.796875 43.703125 -39.234375 C 40.921875 -42.679688 37.25 -44.40625 32.6875 -44.40625 C 28.28125 -44.40625 24.742188 -42.703125 22.078125 -39.296875 C 19.421875 -35.898438 18.09375 -31.648438 18.09375 -26.546875 C 18.09375 -21.597656 19.519531 -17.441406 22.375 -14.078125 C 25.238281 -10.722656 28.910156 -9.046875 33.390625 -9.046875 Z M 33.390625 -9.046875 "/></g></g></g><g fill="#17a2b8" fill-opacity="1"><g transform="translate(653.838686, 234.176367)"><g><path d="M 33.046875 1.15625 C 27.785156 1.15625 23.046875 0.015625 18.828125 -2.265625 C 14.617188 -4.546875 11.273438 -7.828125 8.796875 -12.109375 C 6.328125 -16.398438 5.09375 -21.445312 5.09375 -27.25 C 5.09375 -32.738281 6.234375 -37.546875 8.515625 -41.671875 C 10.796875 -45.804688 14.003906 -48.992188 18.140625 -51.234375 C 22.273438 -53.484375 27.050781 -54.609375 32.46875 -54.609375 C 36.5625 -54.609375 40.09375 -54.082031 43.0625 -53.03125 C 46.039062 -51.988281 48.378906 -50.695312 50.078125 -49.15625 L 44.515625 -39.078125 C 41.273438 -42.316406 37.601562 -43.9375 33.5 -43.9375 C 28.550781 -43.9375 24.78125 -42.425781 22.1875 -39.40625 C 19.601562 -36.394531 18.3125 -32.378906 18.3125 -27.359375 C 18.3125 -21.640625 19.644531 -17.195312 22.3125 -14.03125 C 24.976562 -10.863281 28.707031 -9.28125 33.5 -9.28125 C 35.894531 -9.28125 38.234375 -9.625 40.515625 -10.3125 C 42.796875 -11.007812 44.554688 -11.820312 45.796875 -12.75 L 50.3125 -3.9375 C 48.613281 -2.625 46.238281 -1.445312 43.1875 -0.40625 C 40.132812 0.632812 36.753906 1.15625 33.046875 1.15625 Z M 33.046875 1.15625 "/></g></g></g><g fill="#17a2b8" fill-opacity="1"><g transform="translate(707.864662, 234.176367)"><g><path d="M 26.671875 1.15625 C 19.328125 1.15625 14.28125 -1.003906 11.53125 -5.328125 C 8.789062 -9.660156 7.421875 -15.691406 7.421875 -23.421875 L 7.421875 -53.21875 L 19.9375 -53.21875 L 19.9375 -26.546875 C 19.9375 -22.140625 20.1875 -18.71875 20.6875 -16.28125 C 21.195312 -13.851562 22.203125 -12.054688 23.703125 -10.890625 C 25.210938 -9.734375 27.472656 -9.15625 30.484375 -9.15625 C 32.648438 -9.15625 34.738281 -9.773438 36.75 -11.015625 C 38.757812 -12.253906 40.398438 -13.9375 41.671875 -16.0625 C 42.953125 -18.1875 43.59375 -20.523438 43.59375 -23.078125 L 43.59375 -53.21875 L 56 -53.21875 L 56 0 L 45.796875 0 L 44.40625 -7.765625 C 42.46875 -4.753906 40.050781 -2.515625 37.15625 -1.046875 C 34.257812 0.421875 30.765625 1.15625 26.671875 1.15625 Z M 26.671875 1.15625 "/></g></g></g><g fill="#17a2b8" fill-opacity="1"><g transform="translate(772.324823, 234.176367)"><g><path d="M 26.546875 1.15625 C 22.835938 1.15625 18.992188 0.675781 15.015625 -0.28125 C 11.035156 -1.25 8.195312 -2.390625 6.5 -3.703125 L 10.671875 -13.5625 C 15.304688 -10.3125 20.597656 -8.6875 26.546875 -8.6875 C 32.503906 -8.6875 35.484375 -10.425781 35.484375 -13.90625 C 35.484375 -15.457031 34.863281 -16.65625 33.625 -17.5 C 32.382812 -18.351562 30.179688 -19.359375 27.015625 -20.515625 L 22.609375 -22.140625 C 17.972656 -23.992188 14.300781 -26.210938 11.59375 -28.796875 C 8.882812 -31.390625 7.53125 -34.816406 7.53125 -39.078125 C 7.53125 -43.941406 9.441406 -47.742188 13.265625 -50.484375 C 17.097656 -53.234375 22.222656 -54.609375 28.640625 -54.609375 C 31.804688 -54.609375 34.914062 -54.257812 37.96875 -53.5625 C 41.019531 -52.863281 43.359375 -51.972656 44.984375 -50.890625 L 40.46875 -40.921875 C 39.457031 -41.929688 37.847656 -42.800781 35.640625 -43.53125 C 33.441406 -44.269531 30.988281 -44.640625 28.28125 -44.640625 C 22.800781 -44.640625 20.0625 -42.976562 20.0625 -39.65625 C 20.0625 -37.800781 20.796875 -36.390625 22.265625 -35.421875 C 23.734375 -34.453125 26.128906 -33.390625 29.453125 -32.234375 C 29.753906 -32.148438 30.953125 -31.722656 33.046875 -30.953125 C 37.992188 -29.023438 41.664062 -26.820312 44.0625 -24.34375 C 46.457031 -21.875 47.65625 -18.707031 47.65625 -14.84375 C 47.65625 -9.582031 45.660156 -5.597656 41.671875 -2.890625 C 37.691406 -0.191406 32.648438 1.15625 26.546875 1.15625 Z M 26.546875 1.15625 "/></g></g></g><g fill="#17a2b8" fill-opacity="1"><g transform="translate(785.417435, 306.141242)"><g><path d="M 11.65625 0.34375 C 10.382812 0.34375 9.242188 0.03125 8.234375 -0.59375 C 7.234375 -1.21875 6.539062 -1.9375 6.15625 -2.75 L 6.078125 0 L 2.546875 0 L 2.546875 -24.984375 L 6.15625 -24.984375 L 6.15625 -15.359375 L 5.984375 -12.703125 C 6.367188 -13.609375 7.117188 -14.382812 8.234375 -15.03125 C 9.359375 -15.675781 10.578125 -16 11.890625 -16 C 13.429688 -16 14.773438 -15.65625 15.921875 -14.96875 C 17.066406 -14.28125 17.941406 -13.316406 18.546875 -12.078125 C 19.160156 -10.847656 19.46875 -9.414062 19.46875 -7.78125 C 19.46875 -6.125 19.109375 -4.679688 18.390625 -3.453125 C 17.679688 -2.234375 16.734375 -1.296875 15.546875 -0.640625 C 14.359375 0.015625 13.0625 0.34375 11.65625 0.34375 Z M 11.046875 -2.71875 C 12.515625 -2.71875 13.644531 -3.1875 14.4375 -4.125 C 15.238281 -5.070312 15.640625 -6.289062 15.640625 -7.78125 C 15.640625 -9.300781 15.242188 -10.53125 14.453125 -11.46875 C 13.671875 -12.40625 12.535156 -12.875 11.046875 -12.875 C 9.753906 -12.875 8.664062 -12.425781 7.78125 -11.53125 C 6.894531 -10.644531 6.453125 -9.472656 6.453125 -8.015625 L 6.453125 -7.78125 C 6.453125 -6.8125 6.660156 -5.941406 7.078125 -5.171875 C 7.503906 -4.398438 8.0625 -3.796875 8.75 -3.359375 C 9.4375 -2.929688 10.203125 -2.71875 11.046875 -2.71875 Z M 11.046875 -2.71875 "/></g></g></g><g fill="#17a2b8" fill-opacity="1"><g transform="translate(806.382803, 306.141242)"><g><path d="M 6.90625 0.46875 L 0.4375 -15.59375 L 4.59375 -15.59375 L 7.921875 -5.671875 L 8.671875 -3.265625 L 9.40625 -5.671875 L 12.921875 -15.59375 L 16.921875 -15.59375 L 7.34375 8.5625 L 3.53125 8.5625 Z M 6.90625 0.46875 "/></g></g></g><g fill="#17a2b8" fill-opacity="1"><g transform="translate(823.270629, 306.141242)"><g/></g></g><g fill="#17a2b8" fill-opacity="1"><g transform="translate(831.59561, 306.141242)"><g><path d="M 14.140625 0.34375 C 11.867188 0.34375 9.773438 -0.179688 7.859375 -1.234375 C 5.953125 -2.296875 4.429688 -3.800781 3.296875 -5.75 C 2.160156 -7.695312 1.59375 -9.960938 1.59375 -12.546875 C 1.59375 -15.148438 2.160156 -17.421875 3.296875 -19.359375 C 4.429688 -21.296875 5.953125 -22.785156 7.859375 -23.828125 C 9.773438 -24.867188 11.867188 -25.390625 14.140625 -25.390625 C 16.398438 -25.390625 18.488281 -24.867188 20.40625 -23.828125 C 22.320312 -22.785156 23.84375 -21.296875 24.96875 -19.359375 C 26.101562 -17.421875 26.671875 -15.148438 26.671875 -12.546875 C 26.671875 -9.960938 26.101562 -7.695312 24.96875 -5.75 C 23.84375 -3.800781 22.320312 -2.296875 20.40625 -1.234375 C 18.488281 -0.179688 16.398438 0.34375 14.140625 0.34375 Z M 14.140625 -3.09375 C 15.703125 -3.09375 17.128906 -3.457031 18.421875 -4.1875 C 19.710938 -4.925781 20.738281 -6.003906 21.5 -7.421875 C 22.257812 -8.835938 22.640625 -10.53125 22.640625 -12.5 C 22.640625 -14.5 22.257812 -16.207031 21.5 -17.625 C 20.738281 -19.039062 19.71875 -20.109375 18.4375 -20.828125 C 17.15625 -21.554688 15.722656 -21.921875 14.140625 -21.921875 C 12.554688 -21.921875 11.117188 -21.554688 9.828125 -20.828125 C 8.535156 -20.109375 7.515625 -19.039062 6.765625 -17.625 C 6.015625 -16.207031 5.640625 -14.5 5.640625 -12.5 C 5.640625 -10.53125 6.023438 -8.835938 6.796875 -7.421875 C 7.566406 -6.003906 8.601562 -4.925781 9.90625 -4.1875 C 11.207031 -3.457031 12.617188 -3.09375 14.140625 -3.09375 Z M 14.140625 -3.09375 "/></g></g></g><g fill="#17a2b8" fill-opacity="1"><g transform="translate(859.866571, 306.141242)"><g><path d="M 2.484375 -15.59375 L 6.015625 -15.59375 L 6.015625 -12.703125 C 7.265625 -14.898438 9.210938 -16 11.859375 -16 C 14.054688 -16 15.832031 -15.300781 17.1875 -13.90625 C 18.550781 -12.519531 19.234375 -10.515625 19.234375 -7.890625 C 19.234375 -6.253906 18.898438 -4.8125 18.234375 -3.5625 C 17.566406 -2.320312 16.660156 -1.359375 15.515625 -0.671875 C 14.367188 0.00390625 13.09375 0.34375 11.6875 0.34375 C 10.375 0.34375 9.234375 0.113281 8.265625 -0.34375 C 7.304688 -0.8125 6.554688 -1.476562 6.015625 -2.34375 L 6.046875 8.265625 L 2.484375 8.265625 Z M 10.84375 -2.75 C 12.3125 -2.75 13.441406 -3.21875 14.234375 -4.15625 C 15.023438 -5.101562 15.421875 -6.3125 15.421875 -7.78125 C 15.421875 -9.320312 15.03125 -10.550781 14.25 -11.46875 C 13.46875 -12.382812 12.332031 -12.84375 10.84375 -12.84375 C 10.03125 -12.84375 9.265625 -12.644531 8.546875 -12.25 C 7.835938 -11.851562 7.269531 -11.285156 6.84375 -10.546875 C 6.425781 -9.816406 6.21875 -8.960938 6.21875 -7.984375 L 6.21875 -7.75 C 6.21875 -6.769531 6.425781 -5.898438 6.84375 -5.140625 C 7.269531 -4.390625 7.832031 -3.800781 8.53125 -3.375 C 9.226562 -2.957031 10 -2.75 10.84375 -2.75 Z M 10.84375 -2.75 "/></g></g></g><g fill="#17a2b8" fill-opacity="1"><g transform="translate(880.594075, 306.141242)"><g><path d="M 2.578125 -24.984375 L 6.15625 -24.984375 L 6.15625 -15.59375 L 6.015625 -12.703125 C 6.441406 -13.660156 7.128906 -14.445312 8.078125 -15.0625 C 9.035156 -15.6875 10.148438 -16 11.421875 -16 C 13.023438 -16 14.257812 -15.664062 15.125 -15 C 15.988281 -14.332031 16.566406 -13.398438 16.859375 -12.203125 C 17.148438 -11.003906 17.296875 -9.441406 17.296875 -7.515625 L 17.296875 0 L 13.65625 0 L 13.65625 -7.546875 C 13.65625 -8.859375 13.582031 -9.890625 13.4375 -10.640625 C 13.289062 -11.390625 12.992188 -11.957031 12.546875 -12.34375 C 12.109375 -12.726562 11.472656 -12.921875 10.640625 -12.921875 C 9.960938 -12.921875 9.273438 -12.710938 8.578125 -12.296875 C 7.890625 -11.890625 7.316406 -11.296875 6.859375 -10.515625 C 6.410156 -9.734375 6.1875 -8.8125 6.1875 -7.75 L 6.1875 0 L 2.578125 0 Z M 2.578125 -24.984375 "/></g></g></g><g fill="#17a2b8" fill-opacity="1"><g transform="translate(900.132295, 306.141242)"><g><path d="M 9.78125 0.34375 C 7.925781 0.34375 6.375 -0.0234375 5.125 -0.765625 C 3.882812 -1.503906 2.96875 -2.488281 2.375 -3.71875 C 1.789062 -4.957031 1.5 -6.3125 1.5 -7.78125 C 1.5 -9.4375 1.84375 -10.882812 2.53125 -12.125 C 3.21875 -13.375 4.171875 -14.332031 5.390625 -15 C 6.617188 -15.664062 8.003906 -16 9.546875 -16 C 11.953125 -16 13.738281 -15.335938 14.90625 -14.015625 C 16.070312 -12.691406 16.65625 -10.828125 16.65625 -8.421875 C 16.65625 -7.816406 16.617188 -7.1875 16.546875 -6.53125 L 5.328125 -6.53125 C 5.578125 -5.144531 6.070312 -4.144531 6.8125 -3.53125 C 7.550781 -2.914062 8.578125 -2.609375 9.890625 -2.609375 C 10.972656 -2.609375 11.863281 -2.695312 12.5625 -2.875 C 13.269531 -3.0625 13.921875 -3.316406 14.515625 -3.640625 L 15.640625 -1.015625 C 15.066406 -0.648438 14.289062 -0.332031 13.3125 -0.0625 C 12.34375 0.207031 11.164062 0.34375 9.78125 0.34375 Z M 13.078125 -9.078125 C 13.109375 -10.484375 12.804688 -11.472656 12.171875 -12.046875 C 11.535156 -12.628906 10.628906 -12.921875 9.453125 -12.921875 C 7.066406 -12.921875 5.691406 -11.640625 5.328125 -9.078125 Z M 13.078125 -9.078125 "/></g></g></g><g fill="#17a2b8" fill-opacity="1"><g transform="translate(918.209406, 306.141242)"><g><path d="M 2.71875 -24.984375 L 6.359375 -24.984375 L 6.359375 0 L 2.71875 0 Z M 2.71875 -24.984375 "/></g></g></g><g fill="#17a2b8" fill-opacity="1"><g transform="translate(927.315923, 306.141242)"><g><path d="M 2.6875 -15.59375 L 6.484375 -15.59375 L 6.484375 0 L 2.6875 0 Z M 4.546875 -18.515625 C 3.847656 -18.515625 3.257812 -18.753906 2.78125 -19.234375 C 2.300781 -19.710938 2.0625 -20.300781 2.0625 -21 C 2.0625 -21.632812 2.300781 -22.175781 2.78125 -22.625 C 3.257812 -23.082031 3.847656 -23.3125 4.546875 -23.3125 C 5.222656 -23.3125 5.800781 -23.082031 6.28125 -22.625 C 6.757812 -22.175781 7 -21.632812 7 -21 C 7 -20.300781 6.765625 -19.710938 6.296875 -19.234375 C 5.828125 -18.753906 5.242188 -18.515625 4.546875 -18.515625 Z M 4.546875 -18.515625 "/></g></g></g><g fill="#17a2b8" fill-opacity="1"><g transform="translate(936.490396, 306.141242)"><g><path d="M 9.3125 0.34375 C 7.90625 0.34375 6.609375 0.0078125 5.421875 -0.65625 C 4.234375 -1.332031 3.28125 -2.285156 2.5625 -3.515625 C 1.851562 -4.753906 1.5 -6.195312 1.5 -7.84375 C 1.5 -9.476562 1.804688 -10.90625 2.421875 -12.125 C 3.046875 -13.351562 3.9375 -14.304688 5.09375 -14.984375 C 6.25 -15.660156 7.609375 -16 9.171875 -16 C 10.078125 -16 10.925781 -15.84375 11.71875 -15.53125 C 12.519531 -15.21875 13.191406 -14.828125 13.734375 -14.359375 C 14.273438 -13.890625 14.632812 -13.429688 14.8125 -12.984375 L 14.890625 -15.59375 L 18.390625 -15.59375 L 18.390625 0 L 14.921875 0 L 14.84375 -2.75 C 14.46875 -1.9375 13.769531 -1.21875 12.75 -0.59375 C 11.726562 0.03125 10.582031 0.34375 9.3125 0.34375 Z M 9.921875 -2.71875 C 11.210938 -2.71875 12.300781 -3.164062 13.1875 -4.0625 C 14.070312 -4.957031 14.515625 -6.128906 14.515625 -7.578125 L 14.515625 -7.8125 C 14.515625 -8.789062 14.304688 -9.664062 13.890625 -10.4375 C 13.484375 -11.207031 12.929688 -11.804688 12.234375 -12.234375 C 11.535156 -12.660156 10.765625 -12.875 9.921875 -12.875 C 8.472656 -12.875 7.351562 -12.40625 6.5625 -11.46875 C 5.769531 -10.53125 5.375 -9.3125 5.375 -7.8125 C 5.375 -6.300781 5.765625 -5.070312 6.546875 -4.125 C 7.328125 -3.1875 8.453125 -2.71875 9.921875 -2.71875 Z M 9.921875 -2.71875 "/></g></g></g><g fill="#17a2b8" fill-opacity="1"><g transform="translate(957.388186, 306.141242)"><g/></g></g><g fill="#17a2b8" fill-opacity="1"><g transform="translate(965.713167, 306.141242)"><g/></g></g><g fill="#17a2b8" fill-opacity="1"><g transform="translate(974.038148, 306.141242)"><g/></g></g><g fill="#17a2b8" fill-opacity="1"><g transform="translate(982.363129, 306.141242)"><g/></g></g><g fill="#17a2b8" fill-opacity="1"><g transform="translate(990.68811, 306.141242)"><g/></g></g><g fill="#17a2b8" fill-opacity="1"><g transform="translate(999.013091, 306.141242)"><g/></g></g><g fill="#17a2b8" fill-opacity="1"><g transform="translate(1007.338073, 306.141242)"><g/></g></g><g fill="#000000" fill-opacity="1"><g transform="translate(1015.672238, 306.141242)"><g/></g></g><path stroke-linecap="butt" transform="matrix(0.749634, 0, 0, 0.749634, 267.151648, 286.50074)" fill="none" stroke-linejoin="miter" d="M 0.000927872 1.999989 L 309.625936 1.999989 " stroke="#1c3144" stroke-width="4" stroke-opacity="1" stroke-miterlimit="4"/><path stroke-linecap="butt" transform="matrix(0.749634, 0, 0, 0.749634, 499.256321, 286.50074)" fill="none" stroke-linejoin="miter" d="M 0.00199009 1.999989 L 309.960494 1.999989 " stroke="#17a2b8" stroke-width="4" stroke-opacity="1" stroke-miterlimit="4"/></svg>