<svg xmlns="http://www.w3.org/2000/svg" xmlns:xlink="http://www.w3.org/1999/xlink" width="1366" zoomAndPan="magnify" viewBox="0 0 1024.5 576" height="768" preserveAspectRatio="xMidYMid meet" version="1.0"><defs><g/><clipPath id="a9ed2e1223"><path d="M 0 0.140625 L 1024 0.140625 L 1024 575.859375 L 0 575.859375 Z M 0 0.140625 " clip-rule="nonzero"/></clipPath><clipPath id="6c50de7e57"><path d="M 0 445 L 185 445 L 185 575.859375 L 0 575.859375 Z M 0 445 " clip-rule="nonzero"/></clipPath><clipPath id="8858311081"><path d="M -40.507812 511.460938 L 119.320312 445.992188 L 184.785156 605.820312 L 24.960938 671.289062 Z M -40.507812 511.460938 " clip-rule="nonzero"/></clipPath><clipPath id="925c11b362"><path d="M 0 0.84375 L 184.949219 0.84375 L 184.949219 130.859375 L 0 130.859375 Z M 0 0.84375 " clip-rule="nonzero"/></clipPath><clipPath id="d8d4b06c01"><path d="M -40.507812 66.460938 L 119.320312 0.992188 L 184.785156 160.820312 L 24.960938 226.289062 Z M -40.507812 66.460938 " clip-rule="nonzero"/></clipPath><clipPath id="fb44683c93"><rect x="0" width="185" y="0" height="131"/></clipPath><clipPath id="70d8626500"><path d="M 0 378 L 79 378 L 79 459 L 0 459 Z M 0 378 " clip-rule="nonzero"/></clipPath><clipPath id="9edc14241c"><path d="M 0 401.046875 L 54.730469 378.628906 L 78.324219 436.226562 L 23.59375 458.648438 Z M 0 401.046875 " clip-rule="nonzero"/></clipPath><clipPath id="412ffd3d25"><path d="M 0 0.4375 L 78.441406 0.4375 L 78.441406 80.796875 L 0 80.796875 Z M 0 0.4375 " clip-rule="nonzero"/></clipPath><clipPath id="54b9148ca5"><path d="M 0 23.046875 L 54.730469 0.628906 L 78.324219 58.226562 L 23.59375 80.648438 Z M 0 23.046875 " clip-rule="nonzero"/></clipPath><clipPath id="9849177db7"><rect x="0" width="79" y="0" height="81"/></clipPath><clipPath id="3ffbd88117"><path d="M 241 535 L 320 535 L 320 575.859375 L 241 575.859375 Z M 241 535 " clip-rule="nonzero"/></clipPath><clipPath id="d76c8e17e2"><path d="M 241.457031 558.265625 L 296.1875 535.847656 L 319.78125 593.449219 L 265.050781 615.867188 Z M 241.457031 558.265625 " clip-rule="nonzero"/></clipPath><clipPath id="a879e2e3e9"><path d="M 0.320312 0.800781 L 79 0.800781 L 79 40.859375 L 0.320312 40.859375 Z M 0.320312 0.800781 " clip-rule="nonzero"/></clipPath><clipPath id="ffbd30ff24"><path d="M 0.457031 23.265625 L 55.1875 0.847656 L 78.78125 58.449219 L 24.050781 80.867188 Z M 0.457031 23.265625 " clip-rule="nonzero"/></clipPath><clipPath id="628e47d048"><rect x="0" width="79" y="0" height="41"/></clipPath><clipPath id="ab4c589e41"><path d="M 267 476 L 309 476 L 309 519 L 267 519 Z M 267 476 " clip-rule="nonzero"/></clipPath><clipPath id="0e64d09382"><path d="M 267.152344 487.882812 L 295.84375 476.132812 L 308.296875 506.535156 L 279.605469 518.285156 Z M 267.152344 487.882812 " clip-rule="nonzero"/></clipPath><clipPath id="5e4bcb4980"><path d="M 0 0.0664062 L 41.488281 0.0664062 L 41.488281 42.289062 L 0 42.289062 Z M 0 0.0664062 " clip-rule="nonzero"/></clipPath><clipPath id="5ae7d555a6"><path d="M 0.152344 11.882812 L 28.84375 0.132812 L 41.296875 30.535156 L 12.605469 42.285156 Z M 0.152344 11.882812 " clip-rule="nonzero"/></clipPath><clipPath id="5b2bc3cae7"><rect x="0" width="42" y="0" height="43"/></clipPath><clipPath id="bdbcd91556"><path d="M 164 512 L 268 512 L 268 575.859375 L 164 575.859375 Z M 164 512 " clip-rule="nonzero"/></clipPath><clipPath id="298e9f1868"><path d="M 170.175781 512.429688 L 267.152344 518.484375 L 261.757812 604.855469 L 164.785156 598.800781 Z M 170.175781 512.429688 " clip-rule="nonzero"/></clipPath><clipPath id="deae213fbf"><path d="M 0.558594 0.289062 L 103.230469 0.289062 L 103.230469 63.859375 L 0.558594 63.859375 Z M 0.558594 0.289062 " clip-rule="nonzero"/></clipPath><clipPath id="26016c535a"><path d="M 6.175781 0.429688 L 103.152344 6.484375 L 97.757812 92.855469 L 0.785156 86.800781 Z M 6.175781 0.429688 " clip-rule="nonzero"/></clipPath><clipPath id="b876be0ddc"><rect x="0" width="104" y="0" height="64"/></clipPath><clipPath id="10b7695d02"><path d="M 129 390 L 216 390 L 216 477 L 129 477 Z M 129 390 " clip-rule="nonzero"/></clipPath><clipPath id="9908a021f2"><path d="M 129.820312 432.117188 L 171.644531 390.296875 L 215.65625 434.308594 L 173.835938 476.132812 Z M 129.820312 432.117188 " clip-rule="nonzero"/></clipPath><clipPath id="b6b015d138"><path d="M 0.777344 0.191406 L 86.894531 0.191406 L 86.894531 86.308594 L 0.777344 86.308594 Z M 0.777344 0.191406 " clip-rule="nonzero"/></clipPath><clipPath id="58ef311c97"><path d="M 0.820312 42.117188 L 42.644531 0.296875 L 86.65625 44.308594 L 44.835938 86.132812 Z M 0.820312 42.117188 " clip-rule="nonzero"/></clipPath><clipPath id="29e189f7e9"><rect x="0" width="87" y="0" height="87"/></clipPath><clipPath id="0ee4232910"><path d="M 239 416 L 281 416 L 281 459 L 239 459 Z M 239 416 " clip-rule="nonzero"/></clipPath><clipPath id="4357087376"><path d="M 239.476562 428.246094 L 268.167969 416.492188 L 280.621094 446.894531 L 251.929688 458.644531 Z M 239.476562 428.246094 " clip-rule="nonzero"/></clipPath><clipPath id="e41bf1e353"><path d="M 0.402344 0.335938 L 41.664062 0.335938 L 41.664062 42.796875 L 0.402344 42.796875 Z M 0.402344 0.335938 " clip-rule="nonzero"/></clipPath><clipPath id="584829def8"><path d="M 0.476562 12.246094 L 29.167969 0.492188 L 41.621094 30.894531 L 12.929688 42.644531 Z M 0.476562 12.246094 " clip-rule="nonzero"/></clipPath><clipPath id="1576e6892d"><rect x="0" width="42" y="0" height="43"/></clipPath><clipPath id="5d7ecc3178"><path d="M 335 523 L 438 523 L 438 575.859375 L 335 575.859375 Z M 335 523 " clip-rule="nonzero"/></clipPath><clipPath id="a0a5e83ad4"><path d="M 340.699219 523.441406 L 437.675781 529.496094 L 432.28125 615.871094 L 335.308594 609.8125 Z M 340.699219 523.441406 " clip-rule="nonzero"/></clipPath><clipPath id="db82656016"><path d="M 0.117188 0.324219 L 102.785156 0.324219 L 102.785156 52.859375 L 0.117188 52.859375 Z M 0.117188 0.324219 " clip-rule="nonzero"/></clipPath><clipPath id="458925d0bf"><path d="M 5.699219 0.441406 L 102.675781 6.496094 L 97.28125 92.871094 L 0.308594 86.8125 Z M 5.699219 0.441406 " clip-rule="nonzero"/></clipPath><clipPath id="b0a324755f"><rect x="0" width="103" y="0" height="53"/></clipPath><clipPath id="a39a883867"><path d="M 707.355469 437.570312 L 880.472656 437.570312 L 880.472656 550.917969 L 707.355469 550.917969 Z M 707.355469 437.570312 " clip-rule="nonzero"/></clipPath><clipPath id="2c633724d3"><path d="M 805.417969 437.570312 C 807.3125 437.570312 809.21875 437.570312 811.109375 437.570312 C 826.183594 439.464844 835.605469 445.765625 839.894531 456.078125 C 865.027344 454.703125 883.296875 474.199219 872.164062 493.335938 C 875.867188 497.355469 878.953125 501.855469 880.070312 507.890625 C 880.070312 509.621094 880.070312 511.347656 880.070312 513.074219 C 876.746094 528.441406 862.4375 538.824219 838.953125 536.027344 C 832.910156 543.917969 822.15625 551.816406 805.421875 550.832031 C 796.773438 550.316406 790.757812 547.316406 785.488281 543.671875 C 779.941406 546.699219 773.929688 549.078125 765.246094 549.105469 C 745.160156 549.148438 731.722656 537.476562 731.394531 521.46875 C 718.484375 517.722656 709.734375 510.730469 707.355469 498.769531 C 707.355469 497.039062 707.355469 495.308594 707.355469 493.585938 C 709.984375 481.730469 718.253906 474.285156 732.023438 471.128906 C 731.199219 451.132812 758.742188 438.636719 781.375 447.449219 C 786.761719 443.089844 794.382812 438.339844 805.417969 437.570312 Z M 805.417969 437.570312 " clip-rule="nonzero"/></clipPath><clipPath id="f45de7408f"><path d="M 0.355469 0.570312 L 173.472656 0.570312 L 173.472656 113.917969 L 0.355469 113.917969 Z M 0.355469 0.570312 " clip-rule="nonzero"/></clipPath><clipPath id="b86609fcd5"><path d="M 98.417969 0.570312 C 100.3125 0.570312 102.21875 0.570312 104.109375 0.570312 C 119.183594 2.464844 128.605469 8.765625 132.894531 19.078125 C 158.027344 17.703125 176.296875 37.199219 165.164062 56.335938 C 168.867188 60.355469 171.953125 64.855469 173.070312 70.890625 C 173.070312 72.621094 173.070312 74.347656 173.070312 76.074219 C 169.746094 91.441406 155.4375 101.824219 131.953125 99.027344 C 125.910156 106.917969 115.15625 114.816406 98.421875 113.832031 C 89.773438 113.316406 83.757812 110.316406 78.488281 106.671875 C 72.941406 109.699219 66.929688 112.078125 58.246094 112.105469 C 38.160156 112.148438 24.722656 100.476562 24.394531 84.46875 C 11.484375 80.722656 2.734375 73.730469 0.355469 61.769531 C 0.355469 60.039062 0.355469 58.308594 0.355469 56.585938 C 2.984375 44.730469 11.253906 37.285156 25.023438 34.128906 C 24.199219 14.132812 51.742188 1.636719 74.375 10.449219 C 79.761719 6.089844 87.382812 1.339844 98.417969 0.570312 Z M 98.417969 0.570312 " clip-rule="nonzero"/></clipPath><clipPath id="0015f0af88"><rect x="0" width="174" y="0" height="114"/></clipPath><clipPath id="db2745477e"><path d="M 537.695312 490.964844 L 710.46875 490.964844 L 710.46875 575.859375 L 537.695312 575.859375 Z M 537.695312 490.964844 " clip-rule="nonzero"/></clipPath><clipPath id="57c5359a3f"><path d="M 622.390625 490.964844 C 638.21875 490.964844 651.574219 499.851562 655.835938 512.023438 C 661.003906 510.238281 666.898438 510.152344 672.550781 512.183594 C 682.195312 515.652344 688.324219 524.265625 688.644531 533.414062 L 688.820312 533.414062 C 700.742188 533.414062 710.410156 542.914062 710.410156 554.636719 C 710.410156 566.359375 700.742188 575.859375 688.820312 575.859375 L 559.285156 575.859375 C 547.363281 575.859375 537.695312 566.359375 537.695312 554.636719 C 537.695312 541.496094 548.90625 533.414062 561.367188 533.414062 C 557.8125 521.546875 567.089844 509.746094 579.257812 508.296875 C 583.023438 507.847656 586.667969 508.363281 589.921875 509.625 C 595.011719 498.703125 607.625 490.964844 622.390625 490.964844 Z M 622.390625 490.964844 " clip-rule="nonzero"/></clipPath><clipPath id="1606518afe"><path d="M 0.695312 0.964844 L 173.46875 0.964844 L 173.46875 85.859375 L 0.695312 85.859375 Z M 0.695312 0.964844 " clip-rule="nonzero"/></clipPath><clipPath id="6097a2e2d3"><path d="M 85.390625 0.964844 C 101.21875 0.964844 114.574219 9.851562 118.835938 22.023438 C 124.003906 20.238281 129.898438 20.152344 135.550781 22.183594 C 145.195312 25.652344 151.324219 34.265625 151.644531 43.414062 L 151.820312 43.414062 C 163.742188 43.414062 173.410156 52.914062 173.410156 64.636719 C 173.410156 76.359375 163.742188 85.859375 151.820312 85.859375 L 22.285156 85.859375 C 10.363281 85.859375 0.695312 76.359375 0.695312 64.636719 C 0.695312 51.496094 11.90625 43.414062 24.367188 43.414062 C 20.8125 31.546875 30.089844 19.746094 42.257812 18.296875 C 46.023438 17.847656 49.667969 18.363281 52.921875 19.625 C 58.011719 8.703125 70.625 0.964844 85.390625 0.964844 Z M 85.390625 0.964844 " clip-rule="nonzero"/></clipPath><clipPath id="551be3d598"><rect x="0" width="174" y="0" height="86"/></clipPath><clipPath id="1511143e3f"><path d="M 880.070312 490.964844 L 1024 490.964844 L 1024 575.859375 L 880.070312 575.859375 Z M 880.070312 490.964844 " clip-rule="nonzero"/></clipPath><clipPath id="338c094d43"><path d="M 964.765625 490.964844 C 980.59375 490.964844 993.949219 499.851562 998.210938 512.023438 C 1003.378906 510.238281 1009.273438 510.152344 1014.925781 512.183594 C 1024.570312 515.652344 1030.699219 524.265625 1031.019531 533.414062 L 1031.195312 533.414062 C 1043.117188 533.414062 1052.785156 542.914062 1052.785156 554.636719 C 1052.785156 566.359375 1043.117188 575.859375 1031.195312 575.859375 L 901.660156 575.859375 C 889.738281 575.859375 880.070312 566.359375 880.070312 554.636719 C 880.070312 541.496094 891.28125 533.414062 903.742188 533.414062 C 900.1875 521.546875 909.464844 509.746094 921.632812 508.296875 C 925.398438 507.847656 929.042969 508.363281 932.296875 509.625 C 937.386719 498.703125 950 490.964844 964.765625 490.964844 Z M 964.765625 490.964844 " clip-rule="nonzero"/></clipPath><clipPath id="8e306ddea2"><path d="M 0.0703125 0.964844 L 144 0.964844 L 144 85.859375 L 0.0703125 85.859375 Z M 0.0703125 0.964844 " clip-rule="nonzero"/></clipPath><clipPath id="3c981a3d32"><path d="M 84.765625 0.964844 C 100.59375 0.964844 113.949219 9.851562 118.210938 22.023438 C 123.378906 20.238281 129.273438 20.152344 134.925781 22.183594 C 144.570312 25.652344 150.699219 34.265625 151.019531 43.414062 L 151.195312 43.414062 C 163.117188 43.414062 172.785156 52.914062 172.785156 64.636719 C 172.785156 76.359375 163.117188 85.859375 151.195312 85.859375 L 21.660156 85.859375 C 9.738281 85.859375 0.0703125 76.359375 0.0703125 64.636719 C 0.0703125 51.496094 11.28125 43.414062 23.742188 43.414062 C 20.1875 31.546875 29.464844 19.746094 41.632812 18.296875 C 45.398438 17.847656 49.042969 18.363281 52.296875 19.625 C 57.386719 8.703125 70 0.964844 84.765625 0.964844 Z M 84.765625 0.964844 " clip-rule="nonzero"/></clipPath><clipPath id="33d7756dab"><rect x="0" width="144" y="0" height="86"/></clipPath></defs><g clip-path="url(#a9ed2e1223)"><path fill="#ffffff" d="M 0 0.140625 L 1024 0.140625 L 1024 575.859375 L 0 575.859375 Z M 0 0.140625 " fill-opacity="1" fill-rule="nonzero"/><path fill="#f8f9fa" d="M 0 0.140625 L 1024 0.140625 L 1024 575.859375 L 0 575.859375 Z M 0 0.140625 " fill-opacity="1" fill-rule="nonzero"/></g><g clip-path="url(#6c50de7e57)"><g clip-path="url(#8858311081)"><g transform="matrix(1, 0, 0, 1, 0, 445)"><g clip-path="url(#fb44683c93)"><g clip-path="url(#925c11b362)"><g clip-path="url(#d8d4b06c01)"><path fill="#001f3f" d="M -40.507812 66.460938 L 119.320312 0.992188 L 184.785156 160.820312 L 24.960938 226.289062 Z M -40.507812 66.460938 " fill-opacity="1" fill-rule="nonzero"/></g></g></g></g></g></g><g clip-path="url(#70d8626500)"><g clip-path="url(#9edc14241c)"><g transform="matrix(1, 0, 0, 1, 0, 378)"><g clip-path="url(#9849177db7)"><g clip-path="url(#412ffd3d25)"><g clip-path="url(#54b9148ca5)"><path fill="#001f3f" d="M 0 23.046875 L 54.730469 0.628906 L 78.289062 58.140625 L 23.558594 80.558594 Z M 0 23.046875 " fill-opacity="1" fill-rule="nonzero"/></g></g></g></g></g></g><g clip-path="url(#3ffbd88117)"><g clip-path="url(#d76c8e17e2)"><g transform="matrix(1, 0, 0, 1, 241, 535)"><g clip-path="url(#628e47d048)"><g clip-path="url(#a879e2e3e9)"><g clip-path="url(#ffbd30ff24)"><path fill="#001f3f" d="M 0.457031 23.265625 L 55.1875 0.847656 L 78.746094 58.359375 L 24.015625 80.777344 Z M 0.457031 23.265625 " fill-opacity="1" fill-rule="nonzero"/></g></g></g></g></g></g><g clip-path="url(#ab4c589e41)"><g clip-path="url(#0e64d09382)"><g transform="matrix(1, 0, 0, 1, 267, 476)"><g clip-path="url(#5b2bc3cae7)"><g clip-path="url(#5e4bcb4980)"><g clip-path="url(#5ae7d555a6)"><path fill="#001f3f" d="M 0.152344 11.882812 L 28.84375 0.132812 L 41.285156 30.503906 L 12.59375 42.257812 Z M 0.152344 11.882812 " fill-opacity="1" fill-rule="nonzero"/></g></g></g></g></g></g><g clip-path="url(#bdbcd91556)"><g clip-path="url(#298e9f1868)"><g transform="matrix(1, 0, 0, 1, 164, 512)"><g clip-path="url(#b876be0ddc)"><g clip-path="url(#deae213fbf)"><g clip-path="url(#26016c535a)"><path fill="#001f3f" d="M 6.175781 0.429688 L 103.007812 6.476562 L 97.613281 92.847656 L 0.785156 86.800781 Z M 6.175781 0.429688 " fill-opacity="1" fill-rule="nonzero"/></g></g></g></g></g></g><g clip-path="url(#10b7695d02)"><g clip-path="url(#9908a021f2)"><g transform="matrix(1, 0, 0, 1, 129, 390)"><g clip-path="url(#29e189f7e9)"><g clip-path="url(#b6b015d138)"><g clip-path="url(#58ef311c97)"><path fill="#001f3f" d="M 0.820312 42.117188 L 42.644531 0.296875 L 86.589844 44.242188 L 44.765625 86.066406 Z M 0.820312 42.117188 " fill-opacity="1" fill-rule="nonzero"/></g></g></g></g></g></g><g clip-path="url(#0ee4232910)"><g clip-path="url(#4357087376)"><g transform="matrix(1, 0, 0, 1, 239, 416)"><g clip-path="url(#1576e6892d)"><g clip-path="url(#e41bf1e353)"><g clip-path="url(#584829def8)"><path fill="#001f3f" d="M 0.476562 12.246094 L 29.167969 0.492188 L 41.609375 30.863281 L 12.917969 42.617188 Z M 0.476562 12.246094 " fill-opacity="1" fill-rule="nonzero"/></g></g></g></g></g></g><g clip-path="url(#5d7ecc3178)"><g clip-path="url(#a0a5e83ad4)"><g transform="matrix(1, 0, 0, 1, 335, 523)"><g clip-path="url(#b0a324755f)"><g clip-path="url(#db82656016)"><g clip-path="url(#458925d0bf)"><path fill="#001f3f" d="M 5.699219 0.441406 L 102.53125 6.488281 L 97.136719 92.859375 L 0.308594 86.8125 Z M 5.699219 0.441406 " fill-opacity="1" fill-rule="nonzero"/></g></g></g></g></g></g><g clip-path="url(#a39a883867)"><g clip-path="url(#2c633724d3)"><g transform="matrix(1, 0, 0, 1, 707, 437)"><g clip-path="url(#0015f0af88)"><g clip-path="url(#f45de7408f)"><g clip-path="url(#b86609fcd5)"><path fill="#17a2b8" d="M 0.355469 0.570312 L 173.027344 0.570312 L 173.027344 113.917969 L 0.355469 113.917969 Z M 0.355469 0.570312 " fill-opacity="1" fill-rule="nonzero"/></g></g></g></g></g></g><g clip-path="url(#db2745477e)"><g clip-path="url(#57c5359a3f)"><g transform="matrix(1, 0, 0, 1, 537, 490)"><g clip-path="url(#551be3d598)"><g clip-path="url(#1606518afe)"><g clip-path="url(#6097a2e2d3)"><path fill="#17a2b8" d="M 0.695312 0.964844 L 173.46875 0.964844 L 173.46875 85.859375 L 0.695312 85.859375 Z M 0.695312 0.964844 " fill-opacity="1" fill-rule="nonzero"/></g></g></g></g></g></g><g clip-path="url(#1511143e3f)"><g clip-path="url(#338c094d43)"><g transform="matrix(1, 0, 0, 1, 880, 490)"><g clip-path="url(#33d7756dab)"><g clip-path="url(#8e306ddea2)"><g clip-path="url(#3c981a3d32)"><path fill="#17a2b8" d="M 0.0703125 0.964844 L 172.84375 0.964844 L 172.84375 85.859375 L 0.0703125 85.859375 Z M 0.0703125 0.964844 " fill-opacity="1" fill-rule="nonzero"/></g></g></g></g></g></g><g fill="#000000" fill-opacity="1"><g transform="translate(238.576475, 219.306599)"><g><path d="M 23.5 0.734375 C 19.550781 0.734375 16.046875 -0.132812 12.984375 -1.875 C 9.921875 -3.613281 7.53125 -6.007812 5.8125 -9.0625 C 4.101562 -12.125 3.25 -15.632812 3.25 -19.59375 C 3.25 -23.582031 4.101562 -27.097656 5.8125 -30.140625 C 7.53125 -33.179688 9.921875 -35.566406 12.984375 -37.296875 C 16.046875 -39.035156 19.550781 -39.90625 23.5 -39.90625 C 27.5 -39.90625 31.019531 -39.035156 34.0625 -37.296875 C 37.101562 -35.566406 39.488281 -33.179688 41.21875 -30.140625 C 42.957031 -27.097656 43.828125 -23.582031 43.828125 -19.59375 C 43.828125 -15.632812 42.957031 -12.125 41.21875 -9.0625 C 39.488281 -6.007812 37.101562 -3.613281 34.0625 -1.875 C 31.019531 -0.132812 27.5 0.734375 23.5 0.734375 Z M 8.28125 -19.59375 C 8.28125 -16.570312 8.921875 -13.898438 10.203125 -11.578125 C 11.492188 -9.265625 13.285156 -7.457031 15.578125 -6.15625 C 17.878906 -4.851562 20.519531 -4.203125 23.5 -4.203125 C 26.53125 -4.203125 29.179688 -4.851562 31.453125 -6.15625 C 33.734375 -7.457031 35.515625 -9.265625 36.796875 -11.578125 C 38.085938 -13.898438 38.734375 -16.570312 38.734375 -19.59375 C 38.734375 -22.644531 38.085938 -25.316406 36.796875 -27.609375 C 35.515625 -29.910156 33.734375 -31.710938 31.453125 -33.015625 C 29.179688 -34.328125 26.53125 -34.984375 23.5 -34.984375 C 20.519531 -34.984375 17.878906 -34.328125 15.578125 -33.015625 C 13.285156 -31.710938 11.492188 -29.910156 10.203125 -27.609375 C 8.921875 -25.316406 8.28125 -22.644531 8.28125 -19.59375 Z M 8.28125 -19.59375 "/></g></g></g><g fill="#000000" fill-opacity="1"><g transform="translate(285.586962, 219.306599)"><g><path d="M 16.796875 0.734375 C 12.984375 0.734375 10.003906 -0.492188 7.859375 -2.953125 C 5.710938 -5.421875 4.640625 -8.726562 4.640625 -12.875 L 4.640625 -29.046875 L 9.34375 -29.046875 L 9.34375 -13.328125 C 9.34375 -10.410156 10.0625 -8.09375 11.5 -6.375 C 12.9375 -4.664062 14.90625 -3.8125 17.40625 -3.8125 C 20.125 -3.8125 22.332031 -4.78125 24.03125 -6.71875 C 25.726562 -8.65625 26.578125 -11.210938 26.578125 -14.390625 L 26.578125 -29.046875 L 31.28125 -29.046875 L 31.28125 0 L 27.421875 0 L 26.921875 -4.25 C 25.648438 -2.53125 24.128906 -1.269531 22.359375 -0.46875 C 20.585938 0.332031 18.734375 0.734375 16.796875 0.734375 Z M 16.796875 0.734375 "/></g></g></g><g fill="#000000" fill-opacity="1"><g transform="translate(322.076057, 219.306599)"><g><path d="M 17.734375 0 C 14.523438 0 12.035156 -0.910156 10.265625 -2.734375 C 8.492188 -4.566406 7.609375 -7.144531 7.609375 -10.46875 L 7.609375 -24.734375 L 1.515625 -24.734375 L 1.515625 -29.046875 L 4.421875 -29.046875 C 5.765625 -29.046875 6.695312 -29.269531 7.21875 -29.71875 C 7.738281 -30.164062 8.078125 -31.039062 8.234375 -32.34375 L 8.671875 -36.265625 L 12.3125 -36.265625 L 12.3125 -29.046875 L 21.71875 -29.046875 L 21.71875 -24.734375 L 12.3125 -24.734375 L 12.3125 -10.6875 C 12.3125 -6.582031 14.195312 -4.53125 17.96875 -4.53125 L 22.109375 -4.53125 L 22.109375 0 Z M 17.734375 0 "/></g></g></g><g fill="#000000" fill-opacity="1"><g transform="translate(346.924456, 219.306599)"><g><path d="M 23.5 0.734375 C 19.550781 0.734375 16.046875 -0.132812 12.984375 -1.875 C 9.921875 -3.613281 7.53125 -6.007812 5.8125 -9.0625 C 4.101562 -12.125 3.25 -15.632812 3.25 -19.59375 C 3.25 -23.582031 4.101562 -27.097656 5.8125 -30.140625 C 7.53125 -33.179688 9.921875 -35.566406 12.984375 -37.296875 C 16.046875 -39.035156 19.550781 -39.90625 23.5 -39.90625 C 27.5 -39.90625 31.019531 -39.035156 34.0625 -37.296875 C 37.101562 -35.566406 39.488281 -33.179688 41.21875 -30.140625 C 42.957031 -27.097656 43.828125 -23.582031 43.828125 -19.59375 C 43.828125 -15.632812 42.957031 -12.125 41.21875 -9.0625 C 39.488281 -6.007812 37.101562 -3.613281 34.0625 -1.875 C 31.019531 -0.132812 27.5 0.734375 23.5 0.734375 Z M 8.28125 -19.59375 C 8.28125 -16.570312 8.921875 -13.898438 10.203125 -11.578125 C 11.492188 -9.265625 13.285156 -7.457031 15.578125 -6.15625 C 17.878906 -4.851562 20.519531 -4.203125 23.5 -4.203125 C 26.53125 -4.203125 29.179688 -4.851562 31.453125 -6.15625 C 33.734375 -7.457031 35.515625 -9.265625 36.796875 -11.578125 C 38.085938 -13.898438 38.734375 -16.570312 38.734375 -19.59375 C 38.734375 -22.644531 38.085938 -25.316406 36.796875 -27.609375 C 35.515625 -29.910156 33.734375 -31.710938 31.453125 -33.015625 C 29.179688 -34.328125 26.53125 -34.984375 23.5 -34.984375 C 20.519531 -34.984375 17.878906 -34.328125 15.578125 -33.015625 C 13.285156 -31.710938 11.492188 -29.910156 10.203125 -27.609375 C 8.921875 -25.316406 8.28125 -22.644531 8.28125 -19.59375 Z M 8.28125 -19.59375 "/></g></g></g><g fill="#000000" fill-opacity="1"><g transform="translate(393.095425, 219.306599)"><g><path d="M 8 -32.015625 C 8 -35.335938 8.863281 -37.851562 10.59375 -39.5625 C 12.332031 -41.28125 14.847656 -42.140625 18.140625 -42.140625 L 23.109375 -42.140625 L 23.109375 -37.71875 L 18.578125 -37.71875 C 16.523438 -37.71875 15.03125 -37.242188 14.09375 -36.296875 C 13.164062 -35.347656 12.703125 -33.828125 12.703125 -31.734375 L 12.703125 -29.046875 L 22.828125 -29.046875 L 22.828125 -24.734375 L 12.703125 -24.734375 L 12.703125 0 L 8 0 L 8 -24.734375 L 1.671875 -24.734375 L 1.671875 -29.046875 L 8 -29.046875 Z M 8 -32.015625 "/></g></g></g><g fill="#000000" fill-opacity="1"><g transform="translate(416.768563, 219.306599)"><g><path d="M 5.703125 0 L 5.703125 -39.171875 L 28.15625 -39.171875 L 28.15625 -34.59375 L 10.640625 -34.59375 L 10.640625 -21.046875 L 26.703125 -21.046875 L 26.703125 -16.515625 L 10.640625 -16.515625 L 10.640625 0 Z M 5.703125 0 "/></g></g></g><g fill="#000000" fill-opacity="1"><g transform="translate(446.485832, 219.306599)"><g><path d="M 18.296875 0.734375 C 15.273438 0.734375 12.609375 0.0820312 10.296875 -1.21875 C 7.984375 -2.53125 6.171875 -4.34375 4.859375 -6.65625 C 3.554688 -8.96875 2.90625 -11.597656 2.90625 -14.546875 C 2.90625 -17.535156 3.554688 -20.164062 4.859375 -22.4375 C 6.171875 -24.71875 7.984375 -26.507812 10.296875 -27.8125 C 12.609375 -29.125 15.273438 -29.78125 18.296875 -29.78125 C 21.316406 -29.78125 23.984375 -29.125 26.296875 -27.8125 C 28.617188 -26.507812 30.429688 -24.71875 31.734375 -22.4375 C 33.035156 -20.164062 33.6875 -17.535156 33.6875 -14.546875 C 33.6875 -11.597656 33.035156 -8.96875 31.734375 -6.65625 C 30.429688 -4.34375 28.617188 -2.53125 26.296875 -1.21875 C 23.984375 0.0820312 21.316406 0.734375 18.296875 0.734375 Z M 7.609375 -14.546875 C 7.609375 -12.421875 8.066406 -10.546875 8.984375 -8.921875 C 9.898438 -7.304688 11.160156 -6.050781 12.765625 -5.15625 C 14.367188 -4.257812 16.210938 -3.8125 18.296875 -3.8125 C 20.390625 -3.8125 22.238281 -4.257812 23.84375 -5.15625 C 25.445312 -6.050781 26.703125 -7.304688 27.609375 -8.921875 C 28.523438 -10.546875 28.984375 -12.421875 28.984375 -14.546875 C 28.984375 -16.671875 28.523438 -18.535156 27.609375 -20.140625 C 26.703125 -21.753906 25.445312 -23.015625 23.84375 -23.921875 C 22.238281 -24.835938 20.390625 -25.296875 18.296875 -25.296875 C 16.210938 -25.296875 14.367188 -24.835938 12.765625 -23.921875 C 11.160156 -23.015625 9.898438 -21.753906 8.984375 -20.140625 C 8.066406 -18.535156 7.609375 -16.671875 7.609375 -14.546875 Z M 7.609375 -14.546875 "/></g></g></g><g fill="#000000" fill-opacity="1"><g transform="translate(483.086864, 219.306599)"><g><path d="M 17.859375 0.734375 C 14.941406 0.734375 12.363281 0.0820312 10.125 -1.21875 C 7.882812 -2.53125 6.117188 -4.34375 4.828125 -6.65625 C 3.546875 -8.96875 2.90625 -11.597656 2.90625 -14.546875 C 2.90625 -17.492188 3.546875 -20.113281 4.828125 -22.40625 C 6.117188 -24.707031 7.882812 -26.507812 10.125 -27.8125 C 12.363281 -29.125 14.941406 -29.78125 17.859375 -29.78125 C 20.273438 -29.78125 22.488281 -29.320312 24.5 -28.40625 C 26.519531 -27.488281 28.21875 -26.21875 29.59375 -24.59375 C 30.976562 -22.96875 31.914062 -21.054688 32.40625 -18.859375 L 27.65625 -18.859375 C 26.789062 -20.878906 25.488281 -22.457031 23.75 -23.59375 C 22.019531 -24.726562 20.054688 -25.296875 17.859375 -25.296875 C 15.878906 -25.296875 14.113281 -24.835938 12.5625 -23.921875 C 11.019531 -23.015625 9.804688 -21.75 8.921875 -20.125 C 8.046875 -18.5 7.609375 -16.640625 7.609375 -14.546875 C 7.609375 -12.460938 8.046875 -10.609375 8.921875 -8.984375 C 9.804688 -7.359375 11.019531 -6.085938 12.5625 -5.171875 C 14.113281 -4.265625 15.878906 -3.8125 17.859375 -3.8125 C 20.203125 -3.8125 22.257812 -4.4375 24.03125 -5.6875 C 25.8125 -6.9375 27.054688 -8.601562 27.765625 -10.6875 L 32.734375 -10.6875 C 31.765625 -7.175781 29.957031 -4.394531 27.3125 -2.34375 C 24.664062 -0.289062 21.515625 0.734375 17.859375 0.734375 Z M 17.859375 0.734375 "/></g></g></g><g fill="#000000" fill-opacity="1"><g transform="translate(518.568569, 219.306599)"><g><path d="M 16.796875 0.734375 C 12.984375 0.734375 10.003906 -0.492188 7.859375 -2.953125 C 5.710938 -5.421875 4.640625 -8.726562 4.640625 -12.875 L 4.640625 -29.046875 L 9.34375 -29.046875 L 9.34375 -13.328125 C 9.34375 -10.410156 10.0625 -8.09375 11.5 -6.375 C 12.9375 -4.664062 14.90625 -3.8125 17.40625 -3.8125 C 20.125 -3.8125 22.332031 -4.78125 24.03125 -6.71875 C 25.726562 -8.65625 26.578125 -11.210938 26.578125 -14.390625 L 26.578125 -29.046875 L 31.28125 -29.046875 L 31.28125 0 L 27.421875 0 L 26.921875 -4.25 C 25.648438 -2.53125 24.128906 -1.269531 22.359375 -0.46875 C 20.585938 0.332031 18.734375 0.734375 16.796875 0.734375 Z M 16.796875 0.734375 "/></g></g></g><g fill="#000000" fill-opacity="1"><g transform="translate(555.057687, 219.306599)"><g><path d="M 15.734375 0.734375 C 11.921875 0.734375 8.867188 -0.171875 6.578125 -1.984375 C 4.285156 -3.796875 3.097656 -6.175781 3.015625 -9.125 L 7.671875 -9.125 C 7.742188 -7.375 8.488281 -5.992188 9.90625 -4.984375 C 11.320312 -3.972656 13.28125 -3.46875 15.78125 -3.46875 C 17.976562 -3.46875 19.710938 -3.847656 20.984375 -4.609375 C 22.253906 -5.378906 22.890625 -6.414062 22.890625 -7.71875 C 22.890625 -9.03125 22.226562 -10.09375 20.90625 -10.90625 C 19.582031 -11.726562 17.5 -12.382812 14.65625 -12.875 C 10.925781 -13.507812 8.15625 -14.535156 6.34375 -15.953125 C 4.539062 -17.367188 3.640625 -19.210938 3.640625 -21.484375 C 3.640625 -24.097656 4.632812 -26.132812 6.625 -27.59375 C 8.625 -29.050781 11.378906 -29.78125 14.890625 -29.78125 C 18.472656 -29.78125 21.335938 -28.984375 23.484375 -27.390625 C 25.628906 -25.804688 26.796875 -23.578125 26.984375 -20.703125 L 22.328125 -20.703125 C 22.179688 -22.304688 21.460938 -23.53125 20.171875 -24.375 C 18.890625 -25.21875 17.144531 -25.640625 14.9375 -25.640625 C 12.851562 -25.640625 11.222656 -25.273438 10.046875 -24.546875 C 8.867188 -23.816406 8.28125 -22.796875 8.28125 -21.484375 C 8.28125 -20.253906 8.875 -19.296875 10.0625 -18.609375 C 11.257812 -17.921875 13.375 -17.273438 16.40625 -16.671875 C 23.820312 -15.222656 27.53125 -12.203125 27.53125 -7.609375 C 27.53125 -5.109375 26.457031 -3.09375 24.3125 -1.5625 C 22.164062 -0.03125 19.304688 0.734375 15.734375 0.734375 Z M 15.734375 0.734375 "/></g></g></g><g fill="#000000" fill-opacity="1"><g transform="translate(584.383209, 219.306599)"><g/></g></g><g fill="#000000" fill-opacity="1"><g transform="translate(598.26249, 219.306599)"><g><path d="M 21.046875 0.734375 C 18.660156 0.734375 16.484375 0.265625 14.515625 -0.671875 C 12.554688 -1.609375 10.925781 -2.878906 9.625 -4.484375 L 9.0625 0 L 5.203125 0 L 5.203125 -41.421875 L 9.90625 -41.421875 L 9.90625 -24.90625 C 11.207031 -26.4375 12.816406 -27.628906 14.734375 -28.484375 C 16.660156 -29.347656 18.765625 -29.78125 21.046875 -29.78125 C 23.921875 -29.78125 26.46875 -29.113281 28.6875 -27.78125 C 30.90625 -26.457031 32.644531 -24.65625 33.90625 -22.375 C 35.175781 -20.101562 35.8125 -17.492188 35.8125 -14.546875 C 35.8125 -11.597656 35.175781 -8.976562 33.90625 -6.6875 C 32.644531 -4.394531 30.90625 -2.582031 28.6875 -1.25 C 26.46875 0.0703125 23.921875 0.734375 21.046875 0.734375 Z M 9.734375 -14.546875 C 9.734375 -12.460938 10.191406 -10.609375 11.109375 -8.984375 C 12.023438 -7.359375 13.285156 -6.085938 14.890625 -5.171875 C 16.492188 -4.265625 18.335938 -3.8125 20.421875 -3.8125 C 22.554688 -3.8125 24.425781 -4.265625 26.03125 -5.171875 C 27.632812 -6.085938 28.882812 -7.359375 29.78125 -8.984375 C 30.675781 -10.609375 31.125 -12.460938 31.125 -14.546875 C 31.125 -16.640625 30.675781 -18.5 29.78125 -20.125 C 28.882812 -21.75 27.632812 -23.015625 26.03125 -23.921875 C 24.425781 -24.835938 22.554688 -25.296875 20.421875 -25.296875 C 18.335938 -25.296875 16.492188 -24.835938 14.890625 -23.921875 C 13.285156 -23.015625 12.023438 -21.75 11.109375 -20.125 C 10.191406 -18.5 9.734375 -16.640625 9.734375 -14.546875 Z M 9.734375 -14.546875 "/></g></g></g><g fill="#000000" fill-opacity="1"><g transform="translate(635.758928, 219.306599)"><g><path d="M 4.203125 11.1875 L 4.203125 6.765625 L 7.046875 6.765625 C 8.910156 6.765625 10.269531 6.492188 11.125 5.953125 C 11.988281 5.421875 12.722656 4.351562 13.328125 2.75 L 14.65625 -0.671875 L 0.890625 -29.046875 L 6.15625 -29.046875 L 12.703125 -15.328125 L 16.953125 -6.328125 L 20.484375 -15.328125 L 25.90625 -29.046875 L 30.890625 -29.046875 L 17.578125 4.53125 C 16.898438 6.28125 16.125 7.640625 15.25 8.609375 C 14.375 9.585938 13.320312 10.257812 12.09375 10.625 C 10.863281 11 9.332031 11.1875 7.5 11.1875 Z M 4.203125 11.1875 "/></g></g></g><g fill="#000000" fill-opacity="1"><g transform="translate(666.315669, 219.306599)"><g/></g></g><g fill="#000000" fill-opacity="1"><g transform="translate(678.683808, 219.306599)"><g><path d="M 23.5 0.734375 C 19.550781 0.734375 16.046875 -0.132812 12.984375 -1.875 C 9.921875 -3.613281 7.53125 -6.007812 5.8125 -9.0625 C 4.101562 -12.125 3.25 -15.632812 3.25 -19.59375 C 3.25 -23.582031 4.101562 -27.097656 5.8125 -30.140625 C 7.53125 -33.179688 9.921875 -35.566406 12.984375 -37.296875 C 16.046875 -39.035156 19.550781 -39.90625 23.5 -39.90625 C 27.5 -39.90625 31.019531 -39.035156 34.0625 -37.296875 C 37.101562 -35.566406 39.488281 -33.179688 41.21875 -30.140625 C 42.957031 -27.097656 43.828125 -23.582031 43.828125 -19.59375 C 43.828125 -15.632812 42.957031 -12.125 41.21875 -9.0625 C 39.488281 -6.007812 37.101562 -3.613281 34.0625 -1.875 C 31.019531 -0.132812 27.5 0.734375 23.5 0.734375 Z M 8.28125 -19.59375 C 8.28125 -16.570312 8.921875 -13.898438 10.203125 -11.578125 C 11.492188 -9.265625 13.285156 -7.457031 15.578125 -6.15625 C 17.878906 -4.851562 20.519531 -4.203125 23.5 -4.203125 C 26.53125 -4.203125 29.179688 -4.851562 31.453125 -6.15625 C 33.734375 -7.457031 35.515625 -9.265625 36.796875 -11.578125 C 38.085938 -13.898438 38.734375 -16.570312 38.734375 -19.59375 C 38.734375 -22.644531 38.085938 -25.316406 36.796875 -27.609375 C 35.515625 -29.910156 33.734375 -31.710938 31.453125 -33.015625 C 29.179688 -34.328125 26.53125 -34.984375 23.5 -34.984375 C 20.519531 -34.984375 17.878906 -34.328125 15.578125 -33.015625 C 13.285156 -31.710938 11.492188 -29.910156 10.203125 -27.609375 C 8.921875 -25.316406 8.28125 -22.644531 8.28125 -19.59375 Z M 8.28125 -19.59375 "/></g></g></g><g fill="#000000" fill-opacity="1"><g transform="translate(725.694341, 219.306599)"><g><path d="M 21.046875 0.734375 C 18.765625 0.734375 16.660156 0.296875 14.734375 -0.578125 C 12.816406 -1.460938 11.207031 -2.648438 9.90625 -4.140625 L 9.90625 11.1875 L 5.203125 11.1875 L 5.203125 -29.046875 L 9.0625 -29.046875 L 9.625 -24.5625 C 10.925781 -26.207031 12.554688 -27.488281 14.515625 -28.40625 C 16.484375 -29.320312 18.660156 -29.78125 21.046875 -29.78125 C 23.921875 -29.78125 26.46875 -29.113281 28.6875 -27.78125 C 30.90625 -26.457031 32.644531 -24.65625 33.90625 -22.375 C 35.175781 -20.101562 35.8125 -17.492188 35.8125 -14.546875 C 35.8125 -11.597656 35.175781 -8.976562 33.90625 -6.6875 C 32.644531 -4.394531 30.90625 -2.582031 28.6875 -1.25 C 26.46875 0.0703125 23.921875 0.734375 21.046875 0.734375 Z M 9.734375 -14.546875 C 9.734375 -12.460938 10.191406 -10.609375 11.109375 -8.984375 C 12.023438 -7.359375 13.285156 -6.085938 14.890625 -5.171875 C 16.492188 -4.265625 18.335938 -3.8125 20.421875 -3.8125 C 22.554688 -3.8125 24.425781 -4.265625 26.03125 -5.171875 C 27.632812 -6.085938 28.882812 -7.359375 29.78125 -8.984375 C 30.675781 -10.609375 31.125 -12.460938 31.125 -14.546875 C 31.125 -16.640625 30.675781 -18.5 29.78125 -20.125 C 28.882812 -21.75 27.632812 -23.015625 26.03125 -23.921875 C 24.425781 -24.835938 22.554688 -25.296875 20.421875 -25.296875 C 18.335938 -25.296875 16.492188 -24.835938 14.890625 -23.921875 C 13.285156 -23.015625 12.023438 -21.75 11.109375 -20.125 C 10.191406 -18.5 9.734375 -16.640625 9.734375 -14.546875 Z M 9.734375 -14.546875 "/></g></g></g><g fill="#000000" fill-opacity="1"><g transform="translate(764.422021, 219.306599)"><g><path d="M 5.203125 0 L 5.203125 -41.421875 L 9.90625 -41.421875 L 9.90625 -25.234375 C 11.175781 -26.804688 12.6875 -27.957031 14.4375 -28.6875 C 16.195312 -29.414062 18.007812 -29.78125 19.875 -29.78125 C 23.71875 -29.78125 26.71875 -28.578125 28.875 -26.171875 C 31.039062 -23.765625 32.125 -20.488281 32.125 -16.34375 L 32.125 0 L 27.421875 0 L 27.421875 -15.890625 C 27.421875 -18.804688 26.691406 -21.101562 25.234375 -22.78125 C 23.785156 -24.457031 21.789062 -25.296875 19.25 -25.296875 C 16.53125 -25.296875 14.289062 -24.351562 12.53125 -22.46875 C 10.78125 -20.582031 9.90625 -18.035156 9.90625 -14.828125 L 9.90625 0 Z M 5.203125 0 "/></g></g></g><g fill="#000000" fill-opacity="1"><g transform="translate(801.190924, 219.306599)"><g><path d="M 17.796875 0.734375 C 14.890625 0.734375 12.316406 0.0859375 10.078125 -1.203125 C 7.835938 -2.492188 6.082031 -4.296875 4.8125 -6.609375 C 3.539062 -8.921875 2.90625 -11.566406 2.90625 -14.546875 C 2.90625 -17.535156 3.539062 -20.175781 4.8125 -22.46875 C 6.082031 -24.757812 7.84375 -26.550781 10.09375 -27.84375 C 12.351562 -29.132812 14.941406 -29.78125 17.859375 -29.78125 C 20.953125 -29.78125 23.632812 -29.050781 25.90625 -27.59375 C 28.1875 -26.132812 29.929688 -24.125 31.140625 -21.5625 C 32.359375 -19.007812 32.910156 -16.039062 32.796875 -12.65625 L 7.671875 -12.65625 C 8.046875 -9.925781 9.144531 -7.75 10.96875 -6.125 C 12.800781 -4.5 15.097656 -3.6875 17.859375 -3.6875 C 19.753906 -3.6875 21.484375 -4.097656 23.046875 -4.921875 C 24.617188 -5.742188 25.851562 -6.921875 26.75 -8.453125 L 32.0625 -8.453125 C 30.90625 -5.617188 29.054688 -3.378906 26.515625 -1.734375 C 23.984375 -0.0859375 21.078125 0.734375 17.796875 0.734375 Z M 7.71875 -16.796875 L 28.09375 -16.796875 C 27.613281 -19.441406 26.445312 -21.53125 24.59375 -23.0625 C 22.75 -24.59375 20.503906 -25.359375 17.859375 -25.359375 C 15.171875 -25.359375 12.910156 -24.570312 11.078125 -23 C 9.253906 -21.4375 8.132812 -19.367188 7.71875 -16.796875 Z M 15.28125 -33.640625 L 18.40625 -42.25 L 23.453125 -42.25 L 19.640625 -33.640625 Z M 15.28125 -33.640625 "/></g></g></g><path stroke-linecap="butt" transform="matrix(0.749634, 0, 0, 0.749634, 317.48504, 286.50074)" fill="none" stroke-linejoin="miter" d="M -0.000887673 1.999989 L 242.48199 1.999989 " stroke="#1c3144" stroke-width="4" stroke-opacity="1" stroke-miterlimit="4"/><path stroke-linecap="butt" transform="matrix(0.749634, 0, 0, 0.749634, 499.256321, 286.50074)" fill="none" stroke-linejoin="miter" d="M 0.00199009 1.999989 L 242.479657 1.999989 " stroke="#17a2b8" stroke-width="4" stroke-opacity="1" stroke-miterlimit="4"/></svg>