<svg xmlns="http://www.w3.org/2000/svg" viewBox="0 0 1600 900" preserveAspectRatio="xMidYMid slice">
  <defs>
    <filter id="toBlack" color-interpolation-filters="sRGB">
      <!-- Set RGB to 0, keep alpha -->
      <feColorMatrix type="matrix" values="0 0 0 0 0  0 0 0 0 0  0 0 0 0 0  0 0 0 1 0"/>
    </filter>
    <mask id="alphaInvert" maskContentUnits="userSpaceOnUse">
      <!-- White keeps overlay; black punches a transparent hole -->
      <rect x="0" y="0" width="100%" height="100%" fill="white"/>
      <!-- Original artwork converted to pure black using source alpha -->
      <g filter="url(#toBlack)">
<svg xmlns="http://www.w3.org/2000/svg" xmlns:xlink="http://www.w3.org/1999/xlink" width="1366" zoomAndPan="magnify" viewBox="0 0 1024.5 576" height="768" preserveAspectRatio="xMidYMid meet" version="1.0"><defs><g/><clipPath id="800cbb627d"><path d="M 0 445 L 185 445 L 185 575.859375 L 0 575.859375 Z M 0 445 " clip-rule="nonzero"/></clipPath><clipPath id="4bd0a65650"><path d="M -40.507812 511.460938 L 119.320312 445.992188 L 184.785156 605.820312 L 24.960938 671.289062 Z M -40.507812 511.460938 " clip-rule="nonzero"/></clipPath><clipPath id="a003dc46b3"><path d="M 0 0.84375 L 184.949219 0.84375 L 184.949219 130.859375 L 0 130.859375 Z M 0 0.84375 " clip-rule="nonzero"/></clipPath><clipPath id="697618f71f"><path d="M -40.507812 66.460938 L 119.320312 0.992188 L 184.785156 160.820312 L 24.960938 226.289062 Z M -40.507812 66.460938 " clip-rule="nonzero"/></clipPath><clipPath id="e7e39c340d"><rect x="0" width="185" y="0" height="131"/></clipPath><clipPath id="9d1f06b2bc"><path d="M 0 378 L 79 378 L 79 459 L 0 459 Z M 0 378 " clip-rule="nonzero"/></clipPath><clipPath id="b6d6dd2562"><path d="M 0 401.046875 L 54.730469 378.628906 L 78.324219 436.226562 L 23.59375 458.648438 Z M 0 401.046875 " clip-rule="nonzero"/></clipPath><clipPath id="530a56c4dd"><path d="M 0 0.4375 L 78.441406 0.4375 L 78.441406 80.796875 L 0 80.796875 Z M 0 0.4375 " clip-rule="nonzero"/></clipPath><clipPath id="6feecfef41"><path d="M 0 23.046875 L 54.730469 0.628906 L 78.324219 58.226562 L 23.59375 80.648438 Z M 0 23.046875 " clip-rule="nonzero"/></clipPath><clipPath id="dd88fe75f5"><rect x="0" width="79" y="0" height="81"/></clipPath><clipPath id="831d1fdef6"><path d="M 241 535 L 320 535 L 320 575.859375 L 241 575.859375 Z M 241 535 " clip-rule="nonzero"/></clipPath><clipPath id="73b1cae334"><path d="M 241.457031 558.265625 L 296.1875 535.847656 L 319.78125 593.449219 L 265.050781 615.867188 Z M 241.457031 558.265625 " clip-rule="nonzero"/></clipPath><clipPath id="36128de8e0"><path d="M 0.320312 0.800781 L 79 0.800781 L 79 40.859375 L 0.320312 40.859375 Z M 0.320312 0.800781 " clip-rule="nonzero"/></clipPath><clipPath id="41323b048f"><path d="M 0.457031 23.265625 L 55.1875 0.847656 L 78.78125 58.449219 L 24.050781 80.867188 Z M 0.457031 23.265625 " clip-rule="nonzero"/></clipPath><clipPath id="33b9f7a033"><rect x="0" width="79" y="0" height="41"/></clipPath><clipPath id="a0f4dbe279"><path d="M 267 476 L 309 476 L 309 519 L 267 519 Z M 267 476 " clip-rule="nonzero"/></clipPath><clipPath id="4ea001f2d1"><path d="M 267.152344 487.882812 L 295.84375 476.132812 L 308.296875 506.535156 L 279.605469 518.285156 Z M 267.152344 487.882812 " clip-rule="nonzero"/></clipPath><clipPath id="cabf562860"><path d="M 0 0.0664062 L 41.488281 0.0664062 L 41.488281 42.289062 L 0 42.289062 Z M 0 0.0664062 " clip-rule="nonzero"/></clipPath><clipPath id="c4a66ee240"><path d="M 0.152344 11.882812 L 28.84375 0.132812 L 41.296875 30.535156 L 12.605469 42.285156 Z M 0.152344 11.882812 " clip-rule="nonzero"/></clipPath><clipPath id="1af37949e4"><rect x="0" width="42" y="0" height="43"/></clipPath><clipPath id="4658bab720"><path d="M 164 512 L 268 512 L 268 575.859375 L 164 575.859375 Z M 164 512 " clip-rule="nonzero"/></clipPath><clipPath id="93b5c2c350"><path d="M 170.175781 512.429688 L 267.152344 518.484375 L 261.757812 604.855469 L 164.785156 598.800781 Z M 170.175781 512.429688 " clip-rule="nonzero"/></clipPath><clipPath id="dcba265e97"><path d="M 0.558594 0.289062 L 103.230469 0.289062 L 103.230469 63.859375 L 0.558594 63.859375 Z M 0.558594 0.289062 " clip-rule="nonzero"/></clipPath><clipPath id="74debb287b"><path d="M 6.175781 0.429688 L 103.152344 6.484375 L 97.757812 92.855469 L 0.785156 86.800781 Z M 6.175781 0.429688 " clip-rule="nonzero"/></clipPath><clipPath id="0d5b9ddde6"><rect x="0" width="104" y="0" height="64"/></clipPath><clipPath id="fe25435f27"><path d="M 129 390 L 216 390 L 216 477 L 129 477 Z M 129 390 " clip-rule="nonzero"/></clipPath><clipPath id="97d6f46fba"><path d="M 129.820312 432.117188 L 171.644531 390.296875 L 215.65625 434.308594 L 173.835938 476.132812 Z M 129.820312 432.117188 " clip-rule="nonzero"/></clipPath><clipPath id="95c90917c7"><path d="M 0.777344 0.191406 L 86.894531 0.191406 L 86.894531 86.308594 L 0.777344 86.308594 Z M 0.777344 0.191406 " clip-rule="nonzero"/></clipPath><clipPath id="b91fac72c0"><path d="M 0.820312 42.117188 L 42.644531 0.296875 L 86.65625 44.308594 L 44.835938 86.132812 Z M 0.820312 42.117188 " clip-rule="nonzero"/></clipPath><clipPath id="ed2ca1a712"><rect x="0" width="87" y="0" height="87"/></clipPath><clipPath id="63ac5916b4"><path d="M 239 416 L 281 416 L 281 459 L 239 459 Z M 239 416 " clip-rule="nonzero"/></clipPath><clipPath id="0fac06fedc"><path d="M 239.476562 428.246094 L 268.167969 416.492188 L 280.621094 446.894531 L 251.929688 458.644531 Z M 239.476562 428.246094 " clip-rule="nonzero"/></clipPath><clipPath id="a208c39ac2"><path d="M 0.402344 0.335938 L 41.664062 0.335938 L 41.664062 42.796875 L 0.402344 42.796875 Z M 0.402344 0.335938 " clip-rule="nonzero"/></clipPath><clipPath id="d160a34d59"><path d="M 0.476562 12.246094 L 29.167969 0.492188 L 41.621094 30.894531 L 12.929688 42.644531 Z M 0.476562 12.246094 " clip-rule="nonzero"/></clipPath><clipPath id="3c92bf98b7"><rect x="0" width="42" y="0" height="43"/></clipPath><clipPath id="b4796daba4"><path d="M 335 523 L 438 523 L 438 575.859375 L 335 575.859375 Z M 335 523 " clip-rule="nonzero"/></clipPath><clipPath id="19e23b0e29"><path d="M 340.699219 523.441406 L 437.675781 529.496094 L 432.28125 615.871094 L 335.308594 609.8125 Z M 340.699219 523.441406 " clip-rule="nonzero"/></clipPath><clipPath id="f23e478958"><path d="M 0.117188 0.324219 L 102.785156 0.324219 L 102.785156 52.859375 L 0.117188 52.859375 Z M 0.117188 0.324219 " clip-rule="nonzero"/></clipPath><clipPath id="01d49399f7"><path d="M 5.699219 0.441406 L 102.675781 6.496094 L 97.28125 92.871094 L 0.308594 86.8125 Z M 5.699219 0.441406 " clip-rule="nonzero"/></clipPath><clipPath id="a43269c55d"><rect x="0" width="103" y="0" height="53"/></clipPath><clipPath id="b0d5287e46"><path d="M 707.355469 437.570312 L 880.472656 437.570312 L 880.472656 550.917969 L 707.355469 550.917969 Z M 707.355469 437.570312 " clip-rule="nonzero"/></clipPath><clipPath id="8cb5a0ed92"><path d="M 805.417969 437.570312 C 807.3125 437.570312 809.21875 437.570312 811.109375 437.570312 C 826.183594 439.464844 835.605469 445.765625 839.894531 456.078125 C 865.027344 454.703125 883.296875 474.199219 872.164062 493.335938 C 875.867188 497.355469 878.953125 501.855469 880.070312 507.890625 C 880.070312 509.621094 880.070312 511.347656 880.070312 513.074219 C 876.746094 528.441406 862.4375 538.824219 838.953125 536.027344 C 832.910156 543.917969 822.15625 551.816406 805.421875 550.832031 C 796.773438 550.316406 790.757812 547.316406 785.488281 543.671875 C 779.941406 546.699219 773.929688 549.078125 765.246094 549.105469 C 745.160156 549.148438 731.722656 537.476562 731.394531 521.46875 C 718.484375 517.722656 709.734375 510.730469 707.355469 498.769531 C 707.355469 497.039062 707.355469 495.308594 707.355469 493.585938 C 709.984375 481.730469 718.253906 474.285156 732.023438 471.128906 C 731.199219 451.132812 758.742188 438.636719 781.375 447.449219 C 786.761719 443.089844 794.382812 438.339844 805.417969 437.570312 Z M 805.417969 437.570312 " clip-rule="nonzero"/></clipPath><clipPath id="875f5e7a23"><path d="M 0.355469 0.570312 L 173.472656 0.570312 L 173.472656 113.917969 L 0.355469 113.917969 Z M 0.355469 0.570312 " clip-rule="nonzero"/></clipPath><clipPath id="8122836e91"><path d="M 98.417969 0.570312 C 100.3125 0.570312 102.21875 0.570312 104.109375 0.570312 C 119.183594 2.464844 128.605469 8.765625 132.894531 19.078125 C 158.027344 17.703125 176.296875 37.199219 165.164062 56.335938 C 168.867188 60.355469 171.953125 64.855469 173.070312 70.890625 C 173.070312 72.621094 173.070312 74.347656 173.070312 76.074219 C 169.746094 91.441406 155.4375 101.824219 131.953125 99.027344 C 125.910156 106.917969 115.15625 114.816406 98.421875 113.832031 C 89.773438 113.316406 83.757812 110.316406 78.488281 106.671875 C 72.941406 109.699219 66.929688 112.078125 58.246094 112.105469 C 38.160156 112.148438 24.722656 100.476562 24.394531 84.46875 C 11.484375 80.722656 2.734375 73.730469 0.355469 61.769531 C 0.355469 60.039062 0.355469 58.308594 0.355469 56.585938 C 2.984375 44.730469 11.253906 37.285156 25.023438 34.128906 C 24.199219 14.132812 51.742188 1.636719 74.375 10.449219 C 79.761719 6.089844 87.382812 1.339844 98.417969 0.570312 Z M 98.417969 0.570312 " clip-rule="nonzero"/></clipPath><clipPath id="7c3a7cfb20"><rect x="0" width="174" y="0" height="114"/></clipPath><clipPath id="cb6502eeed"><path d="M 537.695312 490.964844 L 710.46875 490.964844 L 710.46875 575.859375 L 537.695312 575.859375 Z M 537.695312 490.964844 " clip-rule="nonzero"/></clipPath><clipPath id="050943a95e"><path d="M 622.390625 490.964844 C 638.21875 490.964844 651.574219 499.851562 655.835938 512.023438 C 661.003906 510.238281 666.898438 510.152344 672.550781 512.183594 C 682.195312 515.652344 688.324219 524.265625 688.644531 533.414062 L 688.820312 533.414062 C 700.742188 533.414062 710.410156 542.914062 710.410156 554.636719 C 710.410156 566.359375 700.742188 575.859375 688.820312 575.859375 L 559.285156 575.859375 C 547.363281 575.859375 537.695312 566.359375 537.695312 554.636719 C 537.695312 541.496094 548.90625 533.414062 561.367188 533.414062 C 557.8125 521.546875 567.089844 509.746094 579.257812 508.296875 C 583.023438 507.847656 586.667969 508.363281 589.921875 509.625 C 595.011719 498.703125 607.625 490.964844 622.390625 490.964844 Z M 622.390625 490.964844 " clip-rule="nonzero"/></clipPath><clipPath id="eadc2d9350"><path d="M 0.695312 0.964844 L 173.46875 0.964844 L 173.46875 85.859375 L 0.695312 85.859375 Z M 0.695312 0.964844 " clip-rule="nonzero"/></clipPath><clipPath id="7611581c05"><path d="M 85.390625 0.964844 C 101.21875 0.964844 114.574219 9.851562 118.835938 22.023438 C 124.003906 20.238281 129.898438 20.152344 135.550781 22.183594 C 145.195312 25.652344 151.324219 34.265625 151.644531 43.414062 L 151.820312 43.414062 C 163.742188 43.414062 173.410156 52.914062 173.410156 64.636719 C 173.410156 76.359375 163.742188 85.859375 151.820312 85.859375 L 22.285156 85.859375 C 10.363281 85.859375 0.695312 76.359375 0.695312 64.636719 C 0.695312 51.496094 11.90625 43.414062 24.367188 43.414062 C 20.8125 31.546875 30.089844 19.746094 42.257812 18.296875 C 46.023438 17.847656 49.667969 18.363281 52.921875 19.625 C 58.011719 8.703125 70.625 0.964844 85.390625 0.964844 Z M 85.390625 0.964844 " clip-rule="nonzero"/></clipPath><clipPath id="33d28e160c"><rect x="0" width="174" y="0" height="86"/></clipPath><clipPath id="6b441ac246"><path d="M 880.070312 490.964844 L 1024 490.964844 L 1024 575.859375 L 880.070312 575.859375 Z M 880.070312 490.964844 " clip-rule="nonzero"/></clipPath><clipPath id="d166ddc2bb"><path d="M 964.765625 490.964844 C 980.59375 490.964844 993.949219 499.851562 998.210938 512.023438 C 1003.378906 510.238281 1009.273438 510.152344 1014.925781 512.183594 C 1024.570312 515.652344 1030.699219 524.265625 1031.019531 533.414062 L 1031.195312 533.414062 C 1043.117188 533.414062 1052.785156 542.914062 1052.785156 554.636719 C 1052.785156 566.359375 1043.117188 575.859375 1031.195312 575.859375 L 901.660156 575.859375 C 889.738281 575.859375 880.070312 566.359375 880.070312 554.636719 C 880.070312 541.496094 891.28125 533.414062 903.742188 533.414062 C 900.1875 521.546875 909.464844 509.746094 921.632812 508.296875 C 925.398438 507.847656 929.042969 508.363281 932.296875 509.625 C 937.386719 498.703125 950 490.964844 964.765625 490.964844 Z M 964.765625 490.964844 " clip-rule="nonzero"/></clipPath><clipPath id="15f08e38f7"><path d="M 0.0703125 0.964844 L 144 0.964844 L 144 85.859375 L 0.0703125 85.859375 Z M 0.0703125 0.964844 " clip-rule="nonzero"/></clipPath><clipPath id="3b2aa16c7a"><path d="M 84.765625 0.964844 C 100.59375 0.964844 113.949219 9.851562 118.210938 22.023438 C 123.378906 20.238281 129.273438 20.152344 134.925781 22.183594 C 144.570312 25.652344 150.699219 34.265625 151.019531 43.414062 L 151.195312 43.414062 C 163.117188 43.414062 172.785156 52.914062 172.785156 64.636719 C 172.785156 76.359375 163.117188 85.859375 151.195312 85.859375 L 21.660156 85.859375 C 9.738281 85.859375 0.0703125 76.359375 0.0703125 64.636719 C 0.0703125 51.496094 11.28125 43.414062 23.742188 43.414062 C 20.1875 31.546875 29.464844 19.746094 41.632812 18.296875 C 45.398438 17.847656 49.042969 18.363281 52.296875 19.625 C 57.386719 8.703125 70 0.964844 84.765625 0.964844 Z M 84.765625 0.964844 " clip-rule="nonzero"/></clipPath><clipPath id="f27c467d95"><rect x="0" width="144" y="0" height="86"/></clipPath></defs><g clip-path="url(#800cbb627d)"><g clip-path="url(#4bd0a65650)"><g transform="matrix(1, 0, 0, 1, 0, 445)"><g clip-path="url(#e7e39c340d)"><g clip-path="url(#a003dc46b3)"><g clip-path="url(#697618f71f)"><path fill="#001f3f" d="M -40.507812 66.460938 L 119.320312 0.992188 L 184.785156 160.820312 L 24.960938 226.289062 Z M -40.507812 66.460938 " fill-opacity="1" fill-rule="nonzero"/></g></g></g></g></g></g><g clip-path="url(#9d1f06b2bc)"><g clip-path="url(#b6d6dd2562)"><g transform="matrix(1, 0, 0, 1, 0, 378)"><g clip-path="url(#dd88fe75f5)"><g clip-path="url(#530a56c4dd)"><g clip-path="url(#6feecfef41)"><path fill="#001f3f" d="M 0 23.046875 L 54.730469 0.628906 L 78.289062 58.140625 L 23.558594 80.558594 Z M 0 23.046875 " fill-opacity="1" fill-rule="nonzero"/></g></g></g></g></g></g><g clip-path="url(#831d1fdef6)"><g clip-path="url(#73b1cae334)"><g transform="matrix(1, 0, 0, 1, 241, 535)"><g clip-path="url(#33b9f7a033)"><g clip-path="url(#36128de8e0)"><g clip-path="url(#41323b048f)"><path fill="#001f3f" d="M 0.457031 23.265625 L 55.1875 0.847656 L 78.746094 58.359375 L 24.015625 80.777344 Z M 0.457031 23.265625 " fill-opacity="1" fill-rule="nonzero"/></g></g></g></g></g></g><g clip-path="url(#a0f4dbe279)"><g clip-path="url(#4ea001f2d1)"><g transform="matrix(1, 0, 0, 1, 267, 476)"><g clip-path="url(#1af37949e4)"><g clip-path="url(#cabf562860)"><g clip-path="url(#c4a66ee240)"><path fill="#001f3f" d="M 0.152344 11.882812 L 28.84375 0.132812 L 41.285156 30.503906 L 12.59375 42.257812 Z M 0.152344 11.882812 " fill-opacity="1" fill-rule="nonzero"/></g></g></g></g></g></g><g clip-path="url(#4658bab720)"><g clip-path="url(#93b5c2c350)"><g transform="matrix(1, 0, 0, 1, 164, 512)"><g clip-path="url(#0d5b9ddde6)"><g clip-path="url(#dcba265e97)"><g clip-path="url(#74debb287b)"><path fill="#001f3f" d="M 6.175781 0.429688 L 103.007812 6.476562 L 97.613281 92.847656 L 0.785156 86.800781 Z M 6.175781 0.429688 " fill-opacity="1" fill-rule="nonzero"/></g></g></g></g></g></g><g clip-path="url(#fe25435f27)"><g clip-path="url(#97d6f46fba)"><g transform="matrix(1, 0, 0, 1, 129, 390)"><g clip-path="url(#ed2ca1a712)"><g clip-path="url(#95c90917c7)"><g clip-path="url(#b91fac72c0)"><path fill="#001f3f" d="M 0.820312 42.117188 L 42.644531 0.296875 L 86.589844 44.242188 L 44.765625 86.066406 Z M 0.820312 42.117188 " fill-opacity="1" fill-rule="nonzero"/></g></g></g></g></g></g><g clip-path="url(#63ac5916b4)"><g clip-path="url(#0fac06fedc)"><g transform="matrix(1, 0, 0, 1, 239, 416)"><g clip-path="url(#3c92bf98b7)"><g clip-path="url(#a208c39ac2)"><g clip-path="url(#d160a34d59)"><path fill="#001f3f" d="M 0.476562 12.246094 L 29.167969 0.492188 L 41.609375 30.863281 L 12.917969 42.617188 Z M 0.476562 12.246094 " fill-opacity="1" fill-rule="nonzero"/></g></g></g></g></g></g><g clip-path="url(#b4796daba4)"><g clip-path="url(#19e23b0e29)"><g transform="matrix(1, 0, 0, 1, 335, 523)"><g clip-path="url(#a43269c55d)"><g clip-path="url(#f23e478958)"><g clip-path="url(#01d49399f7)"><path fill="#001f3f" d="M 5.699219 0.441406 L 102.53125 6.488281 L 97.136719 92.859375 L 0.308594 86.8125 Z M 5.699219 0.441406 " fill-opacity="1" fill-rule="nonzero"/></g></g></g></g></g></g><g clip-path="url(#b0d5287e46)"><g clip-path="url(#8cb5a0ed92)"><g transform="matrix(1, 0, 0, 1, 707, 437)"><g clip-path="url(#7c3a7cfb20)"><g clip-path="url(#875f5e7a23)"><g clip-path="url(#8122836e91)"><path fill="#17a2b8" d="M 0.355469 0.570312 L 173.027344 0.570312 L 173.027344 113.917969 L 0.355469 113.917969 Z M 0.355469 0.570312 " fill-opacity="1" fill-rule="nonzero"/></g></g></g></g></g></g><g clip-path="url(#cb6502eeed)"><g clip-path="url(#050943a95e)"><g transform="matrix(1, 0, 0, 1, 537, 490)"><g clip-path="url(#33d28e160c)"><g clip-path="url(#eadc2d9350)"><g clip-path="url(#7611581c05)"><path fill="#17a2b8" d="M 0.695312 0.964844 L 173.46875 0.964844 L 173.46875 85.859375 L 0.695312 85.859375 Z M 0.695312 0.964844 " fill-opacity="1" fill-rule="nonzero"/></g></g></g></g></g></g><g clip-path="url(#6b441ac246)"><g clip-path="url(#d166ddc2bb)"><g transform="matrix(1, 0, 0, 1, 880, 490)"><g clip-path="url(#f27c467d95)"><g clip-path="url(#15f08e38f7)"><g clip-path="url(#3b2aa16c7a)"><path fill="#17a2b8" d="M 0.0703125 0.964844 L 172.84375 0.964844 L 172.84375 85.859375 L 0.0703125 85.859375 Z M 0.0703125 0.964844 " fill-opacity="1" fill-rule="nonzero"/></g></g></g></g></g></g><g fill="#1c3144" fill-opacity="1"><g transform="translate(225.712636, 219.306599)"><g><path d="M 23.5 0.734375 C 19.550781 0.734375 16.046875 -0.132812 12.984375 -1.875 C 9.921875 -3.613281 7.53125 -6.007812 5.8125 -9.0625 C 4.101562 -12.125 3.25 -15.632812 3.25 -19.59375 C 3.25 -23.582031 4.101562 -27.097656 5.8125 -30.140625 C 7.53125 -33.179688 9.921875 -35.566406 12.984375 -37.296875 C 16.046875 -39.035156 19.550781 -39.90625 23.5 -39.90625 C 27.5 -39.90625 31.019531 -39.035156 34.0625 -37.296875 C 37.101562 -35.566406 39.488281 -33.179688 41.21875 -30.140625 C 42.957031 -27.097656 43.828125 -23.582031 43.828125 -19.59375 C 43.828125 -15.632812 42.957031 -12.125 41.21875 -9.0625 C 39.488281 -6.007812 37.101562 -3.613281 34.0625 -1.875 C 31.019531 -0.132812 27.5 0.734375 23.5 0.734375 Z M 8.28125 -19.59375 C 8.28125 -16.570312 8.921875 -13.898438 10.203125 -11.578125 C 11.492188 -9.265625 13.285156 -7.457031 15.578125 -6.15625 C 17.878906 -4.851562 20.519531 -4.203125 23.5 -4.203125 C 26.53125 -4.203125 29.179688 -4.851562 31.453125 -6.15625 C 33.734375 -7.457031 35.515625 -9.265625 36.796875 -11.578125 C 38.085938 -13.898438 38.734375 -16.570312 38.734375 -19.59375 C 38.734375 -22.644531 38.085938 -25.316406 36.796875 -27.609375 C 35.515625 -29.910156 33.734375 -31.710938 31.453125 -33.015625 C 29.179688 -34.328125 26.53125 -34.984375 23.5 -34.984375 C 20.519531 -34.984375 17.878906 -34.328125 15.578125 -33.015625 C 13.285156 -31.710938 11.492188 -29.910156 10.203125 -27.609375 C 8.921875 -25.316406 8.28125 -22.644531 8.28125 -19.59375 Z M 8.28125 -19.59375 "/></g></g></g><g fill="#1c3144" fill-opacity="1"><g transform="translate(272.723123, 219.306599)"><g><path d="M 21.046875 0.734375 C 18.765625 0.734375 16.660156 0.296875 14.734375 -0.578125 C 12.816406 -1.460938 11.207031 -2.648438 9.90625 -4.140625 L 9.90625 11.1875 L 5.203125 11.1875 L 5.203125 -29.046875 L 9.0625 -29.046875 L 9.625 -24.5625 C 10.925781 -26.207031 12.554688 -27.488281 14.515625 -28.40625 C 16.484375 -29.320312 18.660156 -29.78125 21.046875 -29.78125 C 23.921875 -29.78125 26.46875 -29.113281 28.6875 -27.78125 C 30.90625 -26.457031 32.644531 -24.65625 33.90625 -22.375 C 35.175781 -20.101562 35.8125 -17.492188 35.8125 -14.546875 C 35.8125 -11.597656 35.175781 -8.976562 33.90625 -6.6875 C 32.644531 -4.394531 30.90625 -2.582031 28.6875 -1.25 C 26.46875 0.0703125 23.921875 0.734375 21.046875 0.734375 Z M 9.734375 -14.546875 C 9.734375 -12.460938 10.191406 -10.609375 11.109375 -8.984375 C 12.023438 -7.359375 13.285156 -6.085938 14.890625 -5.171875 C 16.492188 -4.265625 18.335938 -3.8125 20.421875 -3.8125 C 22.554688 -3.8125 24.425781 -4.265625 26.03125 -5.171875 C 27.632812 -6.085938 28.882812 -7.359375 29.78125 -8.984375 C 30.675781 -10.609375 31.125 -12.460938 31.125 -14.546875 C 31.125 -16.640625 30.675781 -18.5 29.78125 -20.125 C 28.882812 -21.75 27.632812 -23.015625 26.03125 -23.921875 C 24.425781 -24.835938 22.554688 -25.296875 20.421875 -25.296875 C 18.335938 -25.296875 16.492188 -24.835938 14.890625 -23.921875 C 13.285156 -23.015625 12.023438 -21.75 11.109375 -20.125 C 10.191406 -18.5 9.734375 -16.640625 9.734375 -14.546875 Z M 9.734375 -14.546875 "/></g></g></g><g fill="#1c3144" fill-opacity="1"><g transform="translate(311.450814, 219.306599)"><g><path d="M 5.203125 0 L 5.203125 -41.421875 L 9.90625 -41.421875 L 9.90625 -25.234375 C 11.175781 -26.804688 12.6875 -27.957031 14.4375 -28.6875 C 16.195312 -29.414062 18.007812 -29.78125 19.875 -29.78125 C 23.71875 -29.78125 26.71875 -28.578125 28.875 -26.171875 C 31.039062 -23.765625 32.125 -20.488281 32.125 -16.34375 L 32.125 0 L 27.421875 0 L 27.421875 -15.890625 C 27.421875 -18.804688 26.691406 -21.101562 25.234375 -22.78125 C 23.785156 -24.457031 21.789062 -25.296875 19.25 -25.296875 C 16.53125 -25.296875 14.289062 -24.351562 12.53125 -22.46875 C 10.78125 -20.582031 9.90625 -18.035156 9.90625 -14.828125 L 9.90625 0 Z M 5.203125 0 "/></g></g></g><g fill="#1c3144" fill-opacity="1"><g transform="translate(348.21973, 219.306599)"><g><path d="M 17.796875 0.734375 C 14.890625 0.734375 12.316406 0.0859375 10.078125 -1.203125 C 7.835938 -2.492188 6.082031 -4.296875 4.8125 -6.609375 C 3.539062 -8.921875 2.90625 -11.566406 2.90625 -14.546875 C 2.90625 -17.535156 3.539062 -20.175781 4.8125 -22.46875 C 6.082031 -24.757812 7.84375 -26.550781 10.09375 -27.84375 C 12.351562 -29.132812 14.941406 -29.78125 17.859375 -29.78125 C 20.953125 -29.78125 23.632812 -29.050781 25.90625 -27.59375 C 28.1875 -26.132812 29.929688 -24.125 31.140625 -21.5625 C 32.359375 -19.007812 32.910156 -16.039062 32.796875 -12.65625 L 7.671875 -12.65625 C 8.046875 -9.925781 9.144531 -7.75 10.96875 -6.125 C 12.800781 -4.5 15.097656 -3.6875 17.859375 -3.6875 C 19.753906 -3.6875 21.484375 -4.097656 23.046875 -4.921875 C 24.617188 -5.742188 25.851562 -6.921875 26.75 -8.453125 L 32.0625 -8.453125 C 30.90625 -5.617188 29.054688 -3.378906 26.515625 -1.734375 C 23.984375 -0.0859375 21.078125 0.734375 17.796875 0.734375 Z M 7.71875 -16.796875 L 28.09375 -16.796875 C 27.613281 -19.441406 26.445312 -21.53125 24.59375 -23.0625 C 22.75 -24.59375 20.503906 -25.359375 17.859375 -25.359375 C 15.171875 -25.359375 12.910156 -24.570312 11.078125 -23 C 9.253906 -21.4375 8.132812 -19.367188 7.71875 -16.796875 Z M 7.71875 -16.796875 "/></g></g></g><g fill="#1c3144" fill-opacity="1"><g transform="translate(383.813384, 219.306599)"><g><path d="M 5.203125 0 L 5.203125 -41.421875 L 9.90625 -41.421875 L 9.90625 0 Z M 5.203125 0 "/></g></g></g><g fill="#1c3144" fill-opacity="1"><g transform="translate(398.923894, 219.306599)"><g><path d="M 5.203125 0 L 5.203125 -29.046875 L 9.90625 -29.046875 L 9.90625 0 Z M 3.75 -37.5 C 3.75 -38.582031 4.09375 -39.46875 4.78125 -40.15625 C 5.476562 -40.84375 6.40625 -41.1875 7.5625 -41.1875 C 8.71875 -41.1875 9.628906 -40.84375 10.296875 -40.15625 C 10.972656 -39.46875 11.3125 -38.582031 11.3125 -37.5 C 11.3125 -36.457031 10.972656 -35.585938 10.296875 -34.890625 C 9.628906 -34.203125 8.71875 -33.859375 7.5625 -33.859375 C 6.40625 -33.859375 5.476562 -34.203125 4.78125 -34.890625 C 4.09375 -35.585938 3.75 -36.457031 3.75 -37.5 Z M 3.75 -37.5 "/></g></g></g><g fill="#1c3144" fill-opacity="1"><g transform="translate(414.034405, 219.306599)"><g><path d="M 14.71875 0.453125 C 11.207031 0.453125 8.460938 -0.335938 6.484375 -1.921875 C 4.515625 -3.515625 3.53125 -5.671875 3.53125 -8.390625 C 3.53125 -11.046875 4.441406 -13.15625 6.265625 -14.71875 C 8.097656 -16.289062 10.523438 -17.078125 13.546875 -17.078125 L 25.40625 -17.078125 L 25.40625 -18.140625 C 25.40625 -20.410156 24.695312 -22.1875 23.28125 -23.46875 C 21.863281 -24.757812 19.925781 -25.40625 17.46875 -25.40625 C 15.59375 -25.40625 13.960938 -24.984375 12.578125 -24.140625 C 11.203125 -23.304688 10.273438 -22.179688 9.796875 -20.765625 L 5.03125 -20.765625 C 5.664062 -23.566406 7.09375 -25.769531 9.3125 -27.375 C 11.539062 -28.976562 14.238281 -29.78125 17.40625 -29.78125 C 19.945312 -29.78125 22.164062 -29.300781 24.0625 -28.34375 C 25.96875 -27.394531 27.453125 -26.070312 28.515625 -24.375 C 29.578125 -22.675781 30.109375 -20.707031 30.109375 -18.46875 L 30.109375 0 L 26.25 0 L 25.75 -4.03125 C 23.09375 -1.039062 19.414062 0.453125 14.71875 0.453125 Z M 8.234375 -8.453125 C 8.234375 -7.035156 8.828125 -5.894531 10.015625 -5.03125 C 11.210938 -4.175781 12.835938 -3.75 14.890625 -3.75 C 16.898438 -3.75 18.6875 -4.140625 20.25 -4.921875 C 21.820312 -5.703125 23.070312 -6.785156 24 -8.171875 C 24.9375 -9.554688 25.425781 -11.140625 25.46875 -12.921875 L 13.71875 -12.921875 C 12.113281 -12.921875 10.796875 -12.519531 9.765625 -11.71875 C 8.742188 -10.914062 8.234375 -9.828125 8.234375 -8.453125 Z M 8.234375 -8.453125 "/></g></g></g><g fill="#1c3144" fill-opacity="1"><g transform="translate(448.732629, 219.306599)"><g/></g></g><g fill="#1c3144" fill-opacity="1"><g transform="translate(462.611933, 219.306599)"><g><path d="M 2.96875 0 L 2.96875 -3.640625 L 23.78125 -34.484375 L 3.53125 -34.484375 L 3.53125 -39.171875 L 30.328125 -39.171875 L 30.328125 -35.546875 L 9.515625 -4.703125 L 30.890625 -4.703125 L 30.890625 0 Z M 2.96875 0 "/></g></g></g><g fill="#1c3144" fill-opacity="1"><g transform="translate(496.414694, 219.306599)"><g><path d="M 5.203125 0 L 5.203125 -29.046875 L 9.90625 -29.046875 L 9.90625 0 Z M 3.75 -37.5 C 3.75 -38.582031 4.09375 -39.46875 4.78125 -40.15625 C 5.476562 -40.84375 6.40625 -41.1875 7.5625 -41.1875 C 8.71875 -41.1875 9.628906 -40.84375 10.296875 -40.15625 C 10.972656 -39.46875 11.3125 -38.582031 11.3125 -37.5 C 11.3125 -36.457031 10.972656 -35.585938 10.296875 -34.890625 C 9.628906 -34.203125 8.71875 -33.859375 7.5625 -33.859375 C 6.40625 -33.859375 5.476562 -34.203125 4.78125 -34.890625 C 4.09375 -35.585938 3.75 -36.457031 3.75 -37.5 Z M 3.75 -37.5 "/></g></g></g><g fill="#17a2b8" fill-opacity="1"><g transform="translate(511.534072, 219.306599)"><g><path d="M 5.203125 0 L 5.203125 -29.046875 L 9.0625 -29.046875 L 9.515625 -25.40625 C 11.753906 -28.320312 14.90625 -29.78125 18.96875 -29.78125 C 21.28125 -29.78125 23.3125 -29.289062 25.0625 -28.3125 C 26.820312 -27.34375 28.1875 -25.925781 29.15625 -24.0625 C 31.507812 -27.875 35.113281 -29.78125 39.96875 -29.78125 C 43.625 -29.78125 46.539062 -28.601562 48.71875 -26.25 C 50.90625 -23.894531 52 -20.6875 52 -16.625 L 52 0 L 47.296875 0 L 47.296875 -15.84375 C 47.296875 -18.71875 46.578125 -21.007812 45.140625 -22.71875 C 43.703125 -24.4375 41.769531 -25.296875 39.34375 -25.296875 C 36.84375 -25.296875 34.816406 -24.398438 33.265625 -22.609375 C 31.722656 -20.816406 30.953125 -18.429688 30.953125 -15.453125 L 30.953125 0 L 26.25 0 L 26.25 -15.84375 C 26.25 -18.71875 25.53125 -21.007812 24.09375 -22.71875 C 22.65625 -24.4375 20.722656 -25.296875 18.296875 -25.296875 C 15.796875 -25.296875 13.769531 -24.398438 12.21875 -22.609375 C 10.675781 -20.816406 9.90625 -18.429688 9.90625 -15.453125 L 9.90625 0 Z M 5.203125 0 "/></g></g></g><g fill="#17a2b8" fill-opacity="1"><g transform="translate(568.170522, 219.306599)"><g><path d="M 5.203125 0 L 5.203125 -29.046875 L 9.0625 -29.046875 L 9.515625 -25.40625 C 11.753906 -28.320312 14.90625 -29.78125 18.96875 -29.78125 C 21.28125 -29.78125 23.3125 -29.289062 25.0625 -28.3125 C 26.820312 -27.34375 28.1875 -25.925781 29.15625 -24.0625 C 31.507812 -27.875 35.113281 -29.78125 39.96875 -29.78125 C 43.625 -29.78125 46.539062 -28.601562 48.71875 -26.25 C 50.90625 -23.894531 52 -20.6875 52 -16.625 L 52 0 L 47.296875 0 L 47.296875 -15.84375 C 47.296875 -18.71875 46.578125 -21.007812 45.140625 -22.71875 C 43.703125 -24.4375 41.769531 -25.296875 39.34375 -25.296875 C 36.84375 -25.296875 34.816406 -24.398438 33.265625 -22.609375 C 31.722656 -20.816406 30.953125 -18.429688 30.953125 -15.453125 L 30.953125 0 L 26.25 0 L 26.25 -15.84375 C 26.25 -18.71875 25.53125 -21.007812 24.09375 -22.71875 C 22.65625 -24.4375 20.722656 -25.296875 18.296875 -25.296875 C 15.796875 -25.296875 13.769531 -24.398438 12.21875 -22.609375 C 10.675781 -20.816406 9.90625 -18.429688 9.90625 -15.453125 L 9.90625 0 Z M 5.203125 0 "/></g></g></g><g fill="#17a2b8" fill-opacity="1"><g transform="translate(624.806971, 219.306599)"><g><path d="M 17.796875 0.734375 C 14.890625 0.734375 12.316406 0.0859375 10.078125 -1.203125 C 7.835938 -2.492188 6.082031 -4.296875 4.8125 -6.609375 C 3.539062 -8.921875 2.90625 -11.566406 2.90625 -14.546875 C 2.90625 -17.535156 3.539062 -20.175781 4.8125 -22.46875 C 6.082031 -24.757812 7.84375 -26.550781 10.09375 -27.84375 C 12.351562 -29.132812 14.941406 -29.78125 17.859375 -29.78125 C 20.953125 -29.78125 23.632812 -29.050781 25.90625 -27.59375 C 28.1875 -26.132812 29.929688 -24.125 31.140625 -21.5625 C 32.359375 -19.007812 32.910156 -16.039062 32.796875 -12.65625 L 7.671875 -12.65625 C 8.046875 -9.925781 9.144531 -7.75 10.96875 -6.125 C 12.800781 -4.5 15.097656 -3.6875 17.859375 -3.6875 C 19.753906 -3.6875 21.484375 -4.097656 23.046875 -4.921875 C 24.617188 -5.742188 25.851562 -6.921875 26.75 -8.453125 L 32.0625 -8.453125 C 30.90625 -5.617188 29.054688 -3.378906 26.515625 -1.734375 C 23.984375 -0.0859375 21.078125 0.734375 17.796875 0.734375 Z M 7.71875 -16.796875 L 28.09375 -16.796875 C 27.613281 -19.441406 26.445312 -21.53125 24.59375 -23.0625 C 22.75 -24.59375 20.503906 -25.359375 17.859375 -25.359375 C 15.171875 -25.359375 12.910156 -24.570312 11.078125 -23 C 9.253906 -21.4375 8.132812 -19.367188 7.71875 -16.796875 Z M 7.71875 -16.796875 "/></g></g></g><g fill="#17a2b8" fill-opacity="1"><g transform="translate(660.400625, 219.306599)"><g><path d="M 5.203125 0 L 5.203125 -29.046875 L 9.0625 -29.046875 L 9.625 -24.015625 C 10.664062 -25.765625 11.960938 -27.039062 13.515625 -27.84375 C 15.066406 -28.644531 17.070312 -29.046875 19.53125 -29.046875 L 22.15625 -29.046875 L 22.15625 -24.6875 L 19.3125 -24.6875 C 17.550781 -24.6875 15.960938 -24.332031 14.546875 -23.625 C 13.128906 -22.914062 12 -21.738281 11.15625 -20.09375 C 10.320312 -18.445312 9.90625 -16.242188 9.90625 -13.484375 L 9.90625 0 Z M 5.203125 0 "/></g></g></g><g fill="#17a2b8" fill-opacity="1"><g transform="translate(684.801309, 219.306599)"><g><path d="M 5.203125 0 L 5.203125 -29.046875 L 9.0625 -29.046875 L 9.515625 -25.40625 C 11.753906 -28.320312 14.90625 -29.78125 18.96875 -29.78125 C 21.28125 -29.78125 23.3125 -29.289062 25.0625 -28.3125 C 26.820312 -27.34375 28.1875 -25.925781 29.15625 -24.0625 C 31.507812 -27.875 35.113281 -29.78125 39.96875 -29.78125 C 43.625 -29.78125 46.539062 -28.601562 48.71875 -26.25 C 50.90625 -23.894531 52 -20.6875 52 -16.625 L 52 0 L 47.296875 0 L 47.296875 -15.84375 C 47.296875 -18.71875 46.578125 -21.007812 45.140625 -22.71875 C 43.703125 -24.4375 41.769531 -25.296875 39.34375 -25.296875 C 36.84375 -25.296875 34.816406 -24.398438 33.265625 -22.609375 C 31.722656 -20.816406 30.953125 -18.429688 30.953125 -15.453125 L 30.953125 0 L 26.25 0 L 26.25 -15.84375 C 26.25 -18.71875 25.53125 -21.007812 24.09375 -22.71875 C 22.65625 -24.4375 20.722656 -25.296875 18.296875 -25.296875 C 15.796875 -25.296875 13.769531 -24.398438 12.21875 -22.609375 C 10.675781 -20.816406 9.90625 -18.429688 9.90625 -15.453125 L 9.90625 0 Z M 5.203125 0 "/></g></g></g><g fill="#17a2b8" fill-opacity="1"><g transform="translate(741.437759, 219.306599)"><g><path d="M 14.71875 0.453125 C 11.207031 0.453125 8.460938 -0.335938 6.484375 -1.921875 C 4.515625 -3.515625 3.53125 -5.671875 3.53125 -8.390625 C 3.53125 -11.046875 4.441406 -13.15625 6.265625 -14.71875 C 8.097656 -16.289062 10.523438 -17.078125 13.546875 -17.078125 L 25.40625 -17.078125 L 25.40625 -18.140625 C 25.40625 -20.410156 24.695312 -22.1875 23.28125 -23.46875 C 21.863281 -24.757812 19.925781 -25.40625 17.46875 -25.40625 C 15.59375 -25.40625 13.960938 -24.984375 12.578125 -24.140625 C 11.203125 -23.304688 10.273438 -22.179688 9.796875 -20.765625 L 5.03125 -20.765625 C 5.664062 -23.566406 7.09375 -25.769531 9.3125 -27.375 C 11.539062 -28.976562 14.238281 -29.78125 17.40625 -29.78125 C 19.945312 -29.78125 22.164062 -29.300781 24.0625 -28.34375 C 25.96875 -27.394531 27.453125 -26.070312 28.515625 -24.375 C 29.578125 -22.675781 30.109375 -20.707031 30.109375 -18.46875 L 30.109375 0 L 26.25 0 L 25.75 -4.03125 C 23.09375 -1.039062 19.414062 0.453125 14.71875 0.453125 Z M 8.234375 -8.453125 C 8.234375 -7.035156 8.828125 -5.894531 10.015625 -5.03125 C 11.210938 -4.175781 12.835938 -3.75 14.890625 -3.75 C 16.898438 -3.75 18.6875 -4.140625 20.25 -4.921875 C 21.820312 -5.703125 23.070312 -6.785156 24 -8.171875 C 24.9375 -9.554688 25.425781 -11.140625 25.46875 -12.921875 L 13.71875 -12.921875 C 12.113281 -12.921875 10.796875 -12.519531 9.765625 -11.71875 C 8.742188 -10.914062 8.234375 -9.828125 8.234375 -8.453125 Z M 8.234375 -8.453125 "/></g></g></g><g fill="#17a2b8" fill-opacity="1"><g transform="translate(776.135972, 219.306599)"><g><path d="M 5.203125 0 L 5.203125 -29.046875 L 9.0625 -29.046875 L 9.578125 -24.796875 C 10.835938 -26.546875 12.375 -27.8125 14.1875 -28.59375 C 16 -29.382812 17.875 -29.78125 19.8125 -29.78125 C 23.695312 -29.78125 26.71875 -28.546875 28.875 -26.078125 C 31.039062 -23.617188 32.125 -20.316406 32.125 -16.171875 L 32.125 0 L 27.421875 0 L 27.421875 -15.734375 C 27.421875 -18.679688 26.679688 -21.007812 25.203125 -22.71875 C 23.734375 -24.4375 21.734375 -25.296875 19.203125 -25.296875 C 17.410156 -25.296875 15.8125 -24.859375 14.40625 -23.984375 C 13.007812 -23.109375 11.910156 -21.867188 11.109375 -20.265625 C 10.304688 -18.660156 9.90625 -16.789062 9.90625 -14.65625 L 9.90625 0 Z M 5.203125 0 "/></g></g></g><g fill="#17a2b8" fill-opacity="1"><g transform="translate(812.904899, 219.306599)"><g><path d="M 5.203125 0 L 5.203125 -29.046875 L 9.0625 -29.046875 L 9.578125 -24.796875 C 10.835938 -26.546875 12.375 -27.8125 14.1875 -28.59375 C 16 -29.382812 17.875 -29.78125 19.8125 -29.78125 C 23.695312 -29.78125 26.71875 -28.546875 28.875 -26.078125 C 31.039062 -23.617188 32.125 -20.316406 32.125 -16.171875 L 32.125 0 L 27.421875 0 L 27.421875 -15.734375 C 27.421875 -18.679688 26.679688 -21.007812 25.203125 -22.71875 C 23.734375 -24.4375 21.734375 -25.296875 19.203125 -25.296875 C 17.410156 -25.296875 15.8125 -24.859375 14.40625 -23.984375 C 13.007812 -23.109375 11.910156 -21.867188 11.109375 -20.265625 C 10.304688 -18.660156 9.90625 -16.789062 9.90625 -14.65625 L 9.90625 0 Z M 5.203125 0 "/></g></g></g><path stroke-linecap="butt" transform="matrix(0.749634, 0, 0, 0.749634, 330.22882, 286.50074)" fill="none" stroke-linejoin="miter" d="M 0.00219889 1.999989 L 242.479866 1.999989 " stroke="#1c3144" stroke-width="4" stroke-opacity="1" stroke-miterlimit="4"/><path stroke-linecap="butt" transform="matrix(0.749634, 0, 0, 0.749634, 512.000101, 286.50074)" fill="none" stroke-linejoin="miter" d="M -0.000134223 1.999989 L 242.477533 1.999989 " stroke="#17a2b8" stroke-width="4" stroke-opacity="1" stroke-miterlimit="4"/></svg>
      </g>
    </mask>
  </defs>
  <!-- Overlay filled with #f8f9fa; the original shapes (from the mask) become transparent -->
  <rect x="0" y="0" width="100%" height="100%" fill="#f8f9fa" mask="url(#alphaInvert)"/>
</svg>
